{
.appVersion = "1342";
copyright = "Copyright 2012 Google Inc. All Rights Reserved.";
customParameters = (
{
name = vendorID;
value = MONO;
},
{
name = panose;
value = (
2,
2,
6,
0,
6,
5,
0,
2,
2,
0
);
},
{
name = unicodeRanges;
value = (
0,
1,
2,
3,
4,
5,
6,
7,
9,
29,
30,
31,
32,
33,
34,
35,
36,
37,
38,
39,
43,
44,
45,
46,
60,
62,
64,
67,
69
);
},
{
name = glyphOrder;
value = (
.notdef,
CR,
space,
uni0000,
exclam,
quotedbl,
numbersign,
dollar,
percent,
ampersand,
quotesingle,
parenleft,
parenright,
asterisk,
plus,
comma,
hyphen,
period,
slash,
zero,
one,
two,
three,
four,
five,
six,
seven,
eight,
nine,
colon,
semicolon,
less,
equal,
greater,
question,
at,
A,
B,
C,
D,
E,
F,
G,
H,
I,
J,
K,
L,
M,
N,
O,
P,
Q,
R,
S,
T,
U,
V,
W,
X,
Y,
Z,
bracketleft,
backslash,
bracketright,
asciicircum,
underscore,
grave,
a,
b,
c,
d,
e,
f,
g,
h,
i,
j,
k,
l,
m,
n,
o,
p,
q,
r,
s,
t,
u,
v,
w,
x,
y,
z,
braceleft,
bar,
braceright,
asciitilde,
uni00A0,
exclamdown,
cent,
sterling,
currency,
yen,
brokenbar,
section,
dieresis,
copyright,
ordfeminine,
guillemotleft,
logicalnot,
uni00AD,
registered,
macron,
degree,
plusminus,
uni00B2,
uni00B3,
acute,
uni00B5,
paragraph,
periodcentered,
cedilla,
uni00B9,
ordmasculine,
guillemotright,
onequarter,
onehalf,
threequarters,
questiondown,
uni1780,
uni1781,
uni1782,
uni1783,
uni1784,
uni1785,
uni1786,
uni1787,
uni1788,
uni1789,
uni178A,
uni178B,
uni178C,
uni178D,
uni178E,
uni178F,
uni1790,
uni1791,
uni1792,
uni1793,
uni1794,
uni1795,
uni1796,
uni1797,
uni1798,
uni1799,
uni179A,
uni179B,
uni179C,
uni179D,
uni179E,
uni179F,
uni17A0,
uni17A1,
uni17A2,
uni17A3,
uni17A4,
uni17A5,
uni17A6,
uni17A7,
uni17A8,
uni17A9,
uni17AA,
uni17AB,
uni17AC,
uni17AD,
uni17AE,
uni17AF,
uni17B0,
uni17B1,
uni17B2,
uni17B3,
uni17B4,
uni17B5,
uni17B6,
uni17B7,
uni17B8,
uni17B9,
uni17BA,
uni17BB,
uni17BC,
uni17BD,
uni17BE,
uni17BF,
uni17C0,
uni17C1,
uni17C2,
uni17C3,
uni17C4,
uni17C5,
uni17C6,
uni17C7,
uni17C8,
uni17C9,
uni17CA,
uni17CB,
uni17CC,
uni17CD,
uni17CE,
uni17CF,

glyphs = (
{
glyphname = .notdef;
lastChange = "2020-08-17 13:41:11 +0000";
layers = (
{
layerId = "FFF31276-834F-49C0-8230-C5CBB7819B89";
paths = (
{
closed = 1;
nodes = (
"1034 0 LINE",
"1034 1462 LINE",
"192 1462 LINE",
"192 0 LINE",
"192 0 LINE"
);
},
{
closed = 1;
nodes = (
"296 1358 LINE",
"929 1358 LINE",
"929 104 LINE",
"296 104 LINE",
"296 104 LINE"
);
}
);
width = 1228;
},
{
layerId = "28531FA7-6DEB-4C71-966B-2D248D7FC379";
paths = (
{
closed = 1;
nodes = (
"1034 0 LINE",
"1034 1462 LINE",
"192 1462 LINE",
"192 0 LINE",
"192 0 LINE"
);
},
{
closed = 1;
nodes = (
"296 1358 LINE",
"929 1358 LINE",
"929 104 LINE",
"296 104 LINE",
"296 104 LINE"
);
}
);
width = 1228;
},
{
layerId = "82773DB8-11CF-4E3D-BC1E-69725B5EFD97";
paths = (
{
closed = 1;
nodes = (
"922 0 LINE",
"922 1462 LINE",
"102 1462 LINE",
"102 0 LINE",
"102 0 LINE"
);
},
{
closed = 1;
nodes = (
"201 1364 LINE",
"823 1364 LINE",
"823 98 LINE",
"201 98 LINE",
"201 98 LINE"
);
}
);
userData = {
assembly = "NPUSHB[ ]	/* 39 values pushed */\0120 0 0 3 2 0 3 103 0 2 1 1 2 87 0 2 2 1 95 4 1 1 2 1 79 0 0 7 6 5 4 0 3 0 3 17 5 6 23 \012CALL[ ]	/* CallFunction */";
};
width = 1024;
},
{
layerId = "05F2EFEE-D68A-47EA-B1CB-1F079D4BE6D1";
paths = (
{
closed = 1;
nodes = (
"1016 0 LINE",
"1016 1462 LINE",
"174 1462 LINE",
"174 0 LINE",
"174 0 LINE"
);
},
{
closed = 1;
nodes = (
"278 1358 LINE",
"911 1358 LINE",
"911 104 LINE",
"278 104 LINE",
"278 104 LINE"
);
}
);
width = 1191;
},
{
layerId = "482B5BA1-F14A-4795-881D-282E6E2A03D9";
paths = (
{
closed = 1;
nodes = (
"1016 0 LINE",
"1016 1462 LINE",
"174 1462 LINE",
"174 0 LINE",
"174 0 LINE"
);
},
{
closed = 1;
nodes = (
"278 1358 LINE",
"911 1358 LINE",
"911 104 LINE",
"278 104 LINE",
"278 104 LINE"
);
}
);
width = 1228;
}
);
note = .notdef;
},
{
glyphname = exclam;
lastChange = "2020-08-17 13:41:11 +0000";
layers = (
{
layerId = "FFF31276-834F-49C0-8230-C5CBB7819B89";
paths = (
{
closed = 1;
nodes = (
"278 -10 LINE",
"303 -10 OFFCURVE",
"338 25 OFFCURVE",
"338 72 QCURVE SMOOTH",
"338 119 OFFCURVE",
"303 150 OFFCURVE",
"278 150 QCURVE SMOOTH",
"256 150 OFFCURVE",
"219 119 OFFCURVE",
"219 72 QCURVE SMOOTH",
"219 25 OFFCURVE",
"256 -10 OFFCURVE",
"278 -10 QCURVE",
"278 -10 LINE"
);
},
{
closed = 1;
nodes = (
"303 342 LINE",
"305 1462 LINE",
"246 1462 LINE",
"252 342 LINE",
"252 342 LINE"
);
}
);
width = 557;
},
{
layerId = "28531FA7-6DEB-4C71-966B-2D248D7FC379";
paths = (
{
closed = 1;
nodes = (
"311 -12 LINE",
"352 -12 OFFCURVE",
"410 37 OFFCURVE",
"410 100 QCURVE SMOOTH",
"410 164 OFFCURVE",
"352 213 OFFCURVE",
"311 213 QCURVE SMOOTH",
"270 213 OFFCURVE",
"215 164 OFFCURVE",
"215 100 QCURVE SMOOTH",
"215 37 OFFCURVE",
"270 -12 OFFCURVE",
"311 -12 QCURVE",
"311 -12 LINE"
);
},
{
closed = 1;
nodes = (
"354 381 LINE",
"389 1462 LINE",
"231 1462 LINE",
"270 381 LINE",
"270 381 LINE"
);
}
);
width = 624;
},
{
layerId = "82773DB8-11CF-4E3D-BC1E-69725B5EFD97";
paths = (
{
closed = 1;
nodes = (
"211 125 LINE",
"211 125 LINE",
"211 125 LINE",
"211 125 LINE",
"211 86 OFFCURVE",
"231 32 OFFCURVE",
"266 0 OFFCURVE",
"313 -14 OFFCURVE",
"340 -14 QCURVE SMOOTH",
"366 -14 OFFCURVE",
"413 0 OFFCURVE",
"448 32 OFFCURVE",
"469 86 OFFCURVE",
"469 125 QCURVE SMOOTH",
"469 165 OFFCURVE",
"448 218 OFFCURVE",
"413 250 OFFCURVE",
"366 264 OFFCURVE",
"340 264 QCURVE SMOOTH",
"313 264 OFFCURVE",
"266 250 OFFCURVE",
"231 218 OFFCURVE",
"211 165 OFFCURVE",
"211 125 QCURVE",
"211 125 LINE"
);
},
{
closed = 1;
nodes = (
"293 412 LINE",
"387 412 LINE",
"459 1462 LINE",
"221 1462 LINE",
"221 1462 LINE"
);
}
);
userData = {
assembly = "NPUSHB[ ]	/* 28 values pushed */\0120 3 3 2 95 0 2 2 50 77 0 0 0 1 97 0 1 1 57 1 78 17 24 40 36 4 9 26 \012CALL[ ]	/* CallFunction */";
};
width = 682;
},
{
layerId = "05F2EFEE-D68A-47EA-B1CB-1F079D4BE6D1";
paths = (
{
closed = 1;
nodes = (
"392 -16 LINE",
"460 -16 OFFCURVE",
"560 55 OFFCURVE",
"560 147 QCURVE SMOOTH",
"560 242 OFFCURVE",
"460 311 OFFCURVE",
"392 311 QCURVE SMOOTH",
"323 311 OFFCURVE",
"224 242 OFFCURVE",
"224 147 QCURVE SMOOTH",
"224 55 OFFCURVE",
"323 -16 OFFCURVE",
"392 -16 QCURVE",
"392 -16 LINE"
);
},
{
closed = 1;
nodes = (
"462 467 LINE",
"568 1462 LINE",
"212 1462 LINE",
"321 467 LINE",
"321 467 LINE"
);
}
);
width = 782;
},
{
layerId = "482B5BA1-F14A-4795-881D-282E6E2A03D9";
paths = (
{
closed = 1;
nodes = (
"388 -18 LINE",
"466 -18 OFFCURVE",
"581 63 OFFCURVE",
"581 170 QCURVE SMOOTH",
"581 279 OFFCURVE",
"466 358 OFFCURVE",
"388 358 QCURVE SMOOTH",
"308 358 OFFCURVE",
"198 279 OFFCURVE",
"198 170 QCURVE SMOOTH",
"198 63 OFFCURVE",
"308 -18 OFFCURVE",
"388 -18 QCURVE",
"388 -18 LINE"
);
},
{
closed = 1;
nodes = (
"474 487 LINE",
"609 1462 LINE",
"165 1462 LINE",
"300 487 LINE",
"300 487 LINE"
);
}
);
width = 776;
}
);
note = exclam;
unicode = 0021;
},
{
glyphname = quotedbl;
lastChange = "2020-08-17 13:41:11 +0000";
layers = (
{
layerId = "FFF31276-834F-49C0-8230-C5CBB7819B89";
paths = (
{
closed = 1;
nodes = (
"162 1022 LINE",
"178 1462 LINE",
"96 1462 LINE",
"116 1022 LINE",
"116 1022 LINE"
);
},
{
closed = 1;
nodes = (
"465 1022 LINE",
"481 1462 LINE",
"399 1462 LINE",
"420 1022 LINE",
"420 1022 LINE"
);
}
);
width = 577;
},
{
layerId = "28531FA7-6DEB-4C71-966B-2D248D7FC379";
paths = (
{
closed = 1;
nodes = (
"221 999 LINE",
"262 1462 LINE",
"106 1462 LINE",
"149 999 LINE",
"149 999 LINE"
);
},
{
closed = 1;
nodes = (
"569 999 LINE",
"610 1462 LINE",
"454 1462 LINE",
"497 999 LINE",
"497 999 LINE"
);
}
);
width = 718;
},
{
layerId = "82773DB8-11CF-4E3D-BC1E-69725B5EFD97";
paths = (
{
closed = 1;
nodes = (
"178 981 LINE",
"272 981 LINE",
"334 1462 LINE",
"117 1462 LINE",
"117 1462 LINE"
);
},
{
closed = 1;
nodes = (
"563 981 LINE",
"657 981 LINE",
"719 1462 LINE",
"502 1462 LINE",
"502 1462 LINE"
);
}
);
userData = {
assembly = "NPUSHB[ ]	/* 20 values pushed */\0123 1 1 1 0 95 2 1 0 0 50 1 78 17 17 17 16 4 9 26 \012CALL[ ]	/* CallFunction */";
};
width = 836;
},
{
layerId = "05F2EFEE-D68A-47EA-B1CB-1F079D4BE6D1";
paths = (
{
closed = 1;
nodes = (
"364 899 LINE",
"456 1462 LINE",
"137 1462 LINE",
"229 899 LINE",
"229 899 LINE"
);
},
{
closed = 1;
nodes = (
"811 899 LINE",
"903 1462 LINE",
"583 1462 LINE",
"676 899 LINE",
"676 899 LINE"
);
}
);
width = 1040;
},
{
layerId = "482B5BA1-F14A-4795-881D-282E6E2A03D9";
paths = (
{
closed = 1;
nodes = (
"432 840 LINE",
"546 1462 LINE",
"151 1462 LINE",
"266 840 LINE",
"266 840 LINE"
);
},
{
closed = 1;
nodes = (
"925 840 LINE",
"1040 1462 LINE",
"645 1462 LINE",
"759 840 LINE",
"759 840 LINE"
);
}
);
width = 1191;
}
);
note = quotedbl;
unicode = 0022;
},
{
glyphname = numbersign;
lastChange = "2020-08-17 13:41:11 +0000";
layers = (
{
layerId = "FFF31276-834F-49C0-8230-C5CBB7819B89";
paths = (
{
closed = 1;
nodes = (
"248 0 LINE",
"332 449 LINE",
"696 449 LINE",
"612 0 LINE",
"669 0 LINE",
"753 449 LINE",
"1028 449 LINE",
"1028 500 LINE",
"764 500 LINE",
"852 975 LINE",
"1093 975 LINE",
"1093 1026 LINE",
"862 1026 LINE",
"944 1462 LINE",
"887 1462 LINE",
"805 1026 LINE",
"440 1026 LINE",
"522 1462 LINE",
"465 1462 LINE",
"383 1026 LINE",
"117 1026 LINE",
"117 975 LINE",
"373 975 LINE",
"284 500 LINE",
"51 500 LINE",
"51 449 LINE",
"274 449 LINE",
"190 0 LINE",
"190 0 LINE"
);
},
{
closed = 1;
nodes = (
"430 975 LINE",
"794 975 LINE",
"706 500 LINE",
"342 500 LINE",
"342 500 LINE"
);
}
);
width = 1144;
},
{
layerId = "28531FA7-6DEB-4C71-966B-2D248D7FC379";
paths = (
{
closed = 1;
nodes = (
"268 0 LINE",
"348 430 LINE",
"669 430 LINE",
"590 0 LINE",
"682 0 LINE",
"762 430 LINE",
"1028 430 LINE",
"1028 520 LINE",
"780 520 LINE",
"862 954 LINE",
"1093 954 LINE",
"1093 1044 LINE",
"878 1044 LINE",
"958 1462 LINE",
"864 1462 LINE",
"786 1044 LINE",
"465 1044 LINE",
"543 1462 LINE",
"448 1462 LINE",
"373 1044 LINE",
"117 1044 LINE",
"117 954 LINE",
"354 954 LINE",
"272 520 LINE",
"51 520 LINE",
"51 430 LINE",
"256 430 LINE",
"174 0 LINE",
"174 0 LINE"
);
},
{
closed = 1;
nodes = (
"448 954 LINE",
"768 954 LINE",
"688 520 LINE",
"366 520 LINE",
"366 520 LINE"
);
}
);
width = 1144;
},
{
layerId = "82773DB8-11CF-4E3D-BC1E-69725B5EFD97";
paths = (
{
closed = 1;
nodes = (
"795 537 LINE",
"870 938 LINE",
"1094 938 LINE",
"1094 1059 LINE",
"893 1059 LINE",
"969 1462 LINE",
"846 1462 LINE",
"770 1059 LINE",
"485 1059 LINE",
"561 1462 LINE",
"436 1462 LINE",
"362 1059 LINE",
"117 1059 LINE",
"117 938 LINE",
"340 938 LINE",
"262 537 LINE",
"51 537 LINE",
"51 416 LINE",
"240 416 LINE",
"162 0 LINE",
"285 0 LINE",
"362 416 LINE",
"647 416 LINE",
"569 0 LINE",
"692 0 LINE",
"770 416 LINE",
"1028 416 LINE",
"1028 537 LINE",
"1028 537 LINE"
);
},
{
closed = 1;
nodes = (
"463 938 LINE",
"748 938 LINE",
"672 537 LINE",
"387 537 LINE",
"387 537 LINE"
);
}
);
userData = {
assembly = "MPPEM[ ]	/* MeasurePixelPerEm */\012PUSHB[ ]	/* 1 value pushed */\01227 \012LT[ ]	/* LessThan */\012IF[ ]	/* If */\012NPUSHB[ ]	/* 40 values pushed */\01214 16 13 3 5 4 2 2 0 1 5 0 103 10 1 8 8 50 77 15 12 2 6 6 7 95 11 9 2 7 7 53 77 3 1 1 1 51 1 78 \012ELSE[ ]	/* Else */\012NPUSHB[ ]	/* 38 values pushed */\01211 9 2 7 15 12 2 6 5 7 6 104 14 16 13 3 5 4 2 2 0 1 5 0 103 10 1 8 8 50 77 3 1 1 1 51 1 78 \012EIF[ ]	/* EndIf */\012NPUSHB[ ]	/* 30 values pushed */\0120 0 31 30 29 28 0 27 0 27 26 25 24 23 22 21 20 19 17 17 17 17 17 17 17 17 17 17 9 31 \012CALL[ ]	/* CallFunction */";
};
width = 1145;
},
{
layerId = "05F2EFEE-D68A-47EA-B1CB-1F079D4BE6D1";
paths = (
{
closed = 1;
nodes = (
"329 0 LINE",
"407 410 LINE",
"620 410 LINE",
"544 0 LINE",
"690 0 LINE",
"766 410 LINE",
"1022 410 LINE",
"1022 551 LINE",
"794 551 LINE",
"864 922 LINE",
"1087 922 LINE",
"1087 1065 LINE",
"891 1065 LINE",
"966 1462 LINE",
"821 1462 LINE",
"745 1065 LINE",
"532 1065 LINE",
"606 1462 LINE",
"458 1462 LINE",
"387 1065 LINE",
"123 1065 LINE",
"123 922 LINE",
"360 922 LINE",
"288 551 LINE",
"57 551 LINE",
"57 410 LINE",
"262 410 LINE",
"184 0 LINE",
"184 0 LINE"
);
},
{
closed = 1;
nodes = (
"506 922 LINE",
"721 922 LINE",
"649 551 LINE",
"434 551 LINE",
"434 551 LINE"
);
}
);
width = 1144;
},
{
layerId = "482B5BA1-F14A-4795-881D-282E6E2A03D9";
paths = (
{
closed = 1;
nodes = (
"352 0 LINE",
"429 406 LINE",
"610 406 LINE",
"536 0 LINE",
"698 0 LINE",
"771 406 LINE",
"1027 406 LINE",
"1027 561 LINE",
"804 561 LINE",
"870 909 LINE",
"1093 909 LINE",
"1093 1069 LINE",
"898 1069 LINE",
"974 1462 LINE",
"812 1462 LINE",
"737 1069 LINE",
"556 1069 LINE",
"628 1462 LINE",
"464 1462 LINE",
"395 1069 LINE",
"137 1069 LINE",
"137 909 LINE",
"364 909 LINE",
"296 561 LINE",
"71 561 LINE",
"71 406 LINE",
"268 406 LINE",
"190 0 LINE",
"190 0 LINE"
);
},
{
closed = 1;
nodes = (
"528 909 LINE",
"710 909 LINE",
"642 561 LINE",
"458 561 LINE",
"458 561 LINE"
);
}
);
width = 1165;
}
);
note = numbersign;
unicode = 0023;
},
{
glyphname = dollar;
lastChange = "2020-08-17 13:41:11 +0000";
layers = (
{
layerId = "FFF31276-834F-49C0-8230-C5CBB7819B89";
paths = (
{
closed = 1;
nodes = (
"544 -162 LINE",
"601 -162 LINE",
"601 82 LINE",
"753 82 OFFCURVE",
"958 244 OFFCURVE",
"958 393 QCURVE SMOOTH",
"958 475 OFFCURVE",
"894 610 OFFCURVE",
"740 729 OFFCURVE",
"601 780 QCURVE",
"601 1356 LINE",
"716 1356 OFFCURVE",
"841 1282 OFFCURVE",
"890 1153 OFFCURVE",
"890 1067 QCURVE",
"933 1067 OFFCURVE",
"933 1161 QCURVE SMOOTH",
"933 1219 OFFCURVE",
"865 1331 OFFCURVE",
"720 1407 OFFCURVE",
"601 1407 QCURVE",
"601 1556 LINE",
"544 1556 LINE",
"544 1407 LINE",
"401 1397 OFFCURVE",
"233 1239 OFFCURVE",
"233 1110 QCURVE SMOOTH",
"233 975 OFFCURVE",
"392 815 OFFCURVE",
"544 748 QCURVE",
"544 133 LINE",
"401 133 OFFCURVE",
"257 221 OFFCURVE",
"208 362 OFFCURVE",
"208 440 QCURVE",
"165 440 OFFCURVE",
"165 346 QCURVE SMOOTH",
"165 311 OFFCURVE",
"198 221 OFFCURVE",
"280 137 OFFCURVE",
"427 82 OFFCURVE",
"544 82 QCURVE",
"544 -162 LINE",
"544 -162 LINE"
);
},
{
closed = 1;
nodes = (
"544 809 LINE",
"458 852 OFFCURVE",
"345 930 OFFCURVE",
"290 1036 OFFCURVE",
"290 1120 QCURVE SMOOTH",
"290 1212 OFFCURVE",
"421 1346 OFFCURVE",
"544 1356 QCURVE",
"544 809 LINE",
"544 809 LINE"
);
},
{
closed = 1;
nodes = (
"601 133 LINE",
"601 723 LINE",
"775 653 OFFCURVE",
"900 496 OFFCURVE",
"900 391 QCURVE SMOOTH",
"900 283 OFFCURVE",
"745 135 OFFCURVE",
"601 133 QCURVE",
"601 133 LINE"
);
}
);
width = 1144;
},
{
layerId = "28531FA7-6DEB-4C71-966B-2D248D7FC379";
paths = (
{
closed = 1;
nodes = (
"530 -162 LINE",
"612 -162 LINE",
"612 84 LINE",
"782 94 OFFCURVE",
"981 262 OFFCURVE",
"981 414 QCURVE SMOOTH",
"981 549 OFFCURVE",
"807 727 OFFCURVE",
"612 807 QCURVE",
"612 1329 LINE",
"704 1325 OFFCURVE",
"803 1245 OFFCURVE",
"839 1122 OFFCURVE",
"839 1051 QCURVE",
"891 1051 OFFCURVE",
"948 1110 OFFCURVE",
"948 1167 QCURVE SMOOTH",
"948 1229 OFFCURVE",
"880 1335 OFFCURVE",
"733 1401 OFFCURVE",
"612 1403 QCURVE",
"612 1556 LINE",
"530 1556 LINE",
"530 1401 LINE",
"379 1386 OFFCURVE",
"198 1223 OFFCURVE",
"198 1090 QCURVE SMOOTH",
"198 954 OFFCURVE",
"356 786 OFFCURVE",
"530 709 QCURVE",
"530 154 LINE",
"418 154 OFFCURVE",
"295 244 OFFCURVE",
"246 389 OFFCURVE",
"237 471 QCURVE",
"137 471 OFFCURVE",
"137 354 QCURVE SMOOTH",
"137 287 OFFCURVE",
"217 162 OFFCURVE",
"389 82 OFFCURVE",
"530 82 QCURVE",
"530 -162 LINE",
"530 -162 LINE"
);
},
{
closed = 1;
nodes = (
"530 844 LINE",
"428 893 OFFCURVE",
"325 999 OFFCURVE",
"325 1104 QCURVE SMOOTH",
"325 1188 OFFCURVE",
"430 1313 OFFCURVE",
"530 1327 QCURVE",
"530 844 LINE",
"530 844 LINE"
);
},
{
closed = 1;
nodes = (
"612 158 LINE",
"612 674 LINE",
"749 616 OFFCURVE",
"854 487 OFFCURVE",
"854 395 QCURVE SMOOTH",
"854 299 OFFCURVE",
"727 168 OFFCURVE",
"612 158 QCURVE",
"612 158 LINE"
);
}
);
width = 1144;
},
{
layerId = "82773DB8-11CF-4E3D-BC1E-69725B5EFD97";
paths = (
{
closed = 1;
nodes = (
"621 1401 LINE",
"621 1401 LINE",
"621 1401 LINE",
"621 1401 LINE",
"621 1556 LINE",
"518 1556 LINE",
"518 1397 LINE",
"438 1388 OFFCURVE",
"309 1337 OFFCURVE",
"219 1254 OFFCURVE",
"170 1142 OFFCURVE",
"170 1073 QCURVE SMOOTH",
"170 1006 OFFCURVE",
"207 898 OFFCURVE",
"289 805 OFFCURVE",
"422 721 OFFCURVE",
"518 678 QCURVE",
"518 172 LINE",
"452 177 OFFCURVE",
"343 232 OFFCURVE",
"264 317 OFFCURVE",
"221 424 OFFCURVE",
"221 481 QCURVE",
"135 481 LINE",
"135 166 LINE",
"173 144 OFFCURVE",
"264 112 OFFCURVE",
"363 91 OFFCURVE",
"467 82 OFFCURVE",
"518 82 QCURVE",
"518 -162 LINE",
"621 -162 LINE",
"621 86 LINE",
"803 105 OFFCURVE",
"1001 276 OFFCURVE",
"1001 430 QCURVE SMOOTH",
"1001 503 OFFCURVE",
"951 616 OFFCURVE",
"855 709 OFFCURVE",
"713 789 OFFCURVE",
"621 829 QCURVE",
"621 1307 LINE",
"675 1301 OFFCURVE",
"745 1249 OFFCURVE",
"784 1174 OFFCURVE",
"799 1083 OFFCURVE",
"799 1038 QCURVE",
"873 1038 OFFCURVE",
"961 1105 OFFCURVE",
"961 1171 QCURVE SMOOTH",
"961 1219 OFFCURVE",
"924 1301 OFFCURVE",
"842 1362 OFFCURVE",
"713 1399 OFFCURVE",
"621 1401 QCURVE",
"621 1401 LINE"
);
},
{
closed = 1;
nodes = (
"813 399 LINE",
"813 399 LINE",
"813 399 LINE",
"813 399 LINE",
"813 311 OFFCURVE",
"713 194 OFFCURVE",
"621 178 QCURVE",
"621 633 LINE",
"674 609 OFFCURVE",
"747 561 OFFCURVE",
"793 505 OFFCURVE",
"813 440 OFFCURVE",
"813 399 QCURVE",
"813 399 LINE"
);
},
{
closed = 1;
nodes = (
"354 1090 LINE",
"354 1090 LINE",
"354 1090 LINE",
"354 1090 LINE",
"354 1130 OFFCURVE",
"375 1200 OFFCURVE",
"416 1255 OFFCURVE",
"478 1294 OFFCURVE",
"518 1303 QCURVE",
"518 874 LINE",
"478 892 OFFCURVE",
"417 932 OFFCURVE",
"375 982 OFFCURVE",
"354 1047 OFFCURVE",
"354 1090 QCURVE",
"354 1090 LINE"
);
}
);
userData = {
assembly = "NPUSHB[ ]	/* 81 values pushed */\01274 48 13 3 1 0 73 60 38 14 4 4 1 61 37 30 22 4 3 4 3 76 6 1 0 5 1 5 0 1 128 0 1 4 5 1 4 126 0 4 3 5 4 3 126 0 3 2 5 3 2 126 0 2 2 132 0 5 5 52 5 78 1 0 50 49 32 31 26 25 24 23 8 7 0 54 1 51 7 9 22 \012CALL[ ]	/* CallFunction */";
};
width = 1145;
},
{
layerId = "05F2EFEE-D68A-47EA-B1CB-1F079D4BE6D1";
paths = (
{
closed = 1;
nodes = (
"524 -162 LINE",
"639 -162 LINE",
"639 92 LINE",
"829 115 OFFCURVE",
"1042 324 OFFCURVE",
"1042 481 QCURVE SMOOTH",
"1042 582 OFFCURVE",
"964 711 OFFCURVE",
"839 793 OFFCURVE",
"700 850 OFFCURVE",
"639 881 QCURVE",
"639 1280 LINE",
"706 1251 OFFCURVE",
"764 1108 OFFCURVE",
"764 1047 QCURVE",
"876 1047 OFFCURVE",
"989 1130 OFFCURVE",
"989 1196 QCURVE SMOOTH",
"989 1278 OFFCURVE",
"819 1395 OFFCURVE",
"639 1401 QCURVE",
"639 1556 LINE",
"524 1556 LINE",
"524 1399 LINE",
"356 1380 OFFCURVE",
"145 1190 OFFCURVE",
"145 1042 QCURVE SMOOTH",
"145 952 OFFCURVE",
"211 817 OFFCURVE",
"374 700 OFFCURVE",
"524 639 QCURVE",
"524 197 LINE",
"419 213 OFFCURVE",
"293 385 OFFCURVE",
"293 539 QCURVE",
"219 539 OFFCURVE",
"100 463 OFFCURVE",
"100 375 QCURVE SMOOTH",
"100 311 OFFCURVE",
"182 180 OFFCURVE",
"368 92 OFFCURVE",
"524 88 QCURVE",
"524 -162 LINE",
"524 -162 LINE"
);
},
{
closed = 1;
nodes = (
"524 936 LINE",
"442 983 OFFCURVE",
"385 1073 OFFCURVE",
"385 1128 QCURVE SMOOTH",
"385 1198 OFFCURVE",
"465 1280 OFFCURVE",
"524 1290 QCURVE",
"524 936 LINE",
"524 936 LINE"
);
},
{
closed = 1;
nodes = (
"639 201 LINE",
"639 588 LINE",
"718 547 OFFCURVE",
"798 455 OFFCURVE",
"798 389 QCURVE SMOOTH",
"798 319 OFFCURVE",
"716 217 OFFCURVE",
"639 201 QCURVE",
"639 201 LINE"
);
}
);
width = 1144;
},
{
layerId = "482B5BA1-F14A-4795-881D-282E6E2A03D9";
paths = (
{
closed = 1;
nodes = (
"538 -162 LINE",
"663 -162 LINE",
"663 90 LINE",
"858 115 OFFCURVE",
"1083 344 OFFCURVE",
"1083 502 QCURVE SMOOTH",
"1083 621 OFFCURVE",
"958 774 OFFCURVE",
"766 877 OFFCURVE",
"663 918 QCURVE",
"663 1278 LINE",
"710 1253 OFFCURVE",
"774 1139 OFFCURVE",
"774 1053 QCURVE",
"917 1053 OFFCURVE",
"1020 1151 OFFCURVE",
"1020 1214 QCURVE SMOOTH",
"1020 1286 OFFCURVE",
"841 1393 OFFCURVE",
"663 1401 QCURVE",
"663 1556 LINE",
"538 1556 LINE",
"538 1401 LINE",
"424 1389 OFFCURVE",
"241 1292 OFFCURVE",
"137 1137 OFFCURVE",
"137 1034 QCURVE SMOOTH",
"137 950 OFFCURVE",
"204 811 OFFCURVE",
"376 680 OFFCURVE",
"538 610 QCURVE",
"538 215 LINE",
"413 244 OFFCURVE",
"325 422 OFFCURVE",
"325 569 QCURVE",
"274 569 OFFCURVE",
"172 539 OFFCURVE",
"100 459 OFFCURVE",
"100 385 QCURVE SMOOTH",
"100 348 OFFCURVE",
"139 252 OFFCURVE",
"235 158 OFFCURVE",
"405 92 OFFCURVE",
"538 86 QCURVE",
"538 -162 LINE",
"538 -162 LINE"
);
},
{
closed = 1;
nodes = (
"538 981 LINE",
"473 1020 OFFCURVE",
"415 1102 OFFCURVE",
"415 1145 QCURVE SMOOTH",
"415 1206 OFFCURVE",
"493 1276 OFFCURVE",
"538 1282 QCURVE",
"538 981 LINE",
"538 981 LINE"
);
},
{
closed = 1;
nodes = (
"663 217 LINE",
"663 563 LINE",
"737 524 OFFCURVE",
"798 434 OFFCURVE",
"798 381 QCURVE SMOOTH",
"798 326 OFFCURVE",
"729 236 OFFCURVE",
"663 217 QCURVE",
"663 217 LINE"
);
}
);
width = 1165;
}
);
note = dollar;
unicode = 0024;
},
{
glyphname = percent;
lastChange = "2020-08-17 13:41:11 +0000";
layers = (
{
layerId = "FFF31276-834F-49C0-8230-C5CBB7819B89";
paths = (
{
closed = 1;
nodes = (
"415 573 LINE",
"523 573 OFFCURVE",
"652 688 OFFCURVE",
"710 895 OFFCURVE",
"710 1030 QCURVE SMOOTH",
"710 1239 OFFCURVE",
"566 1483 OFFCURVE",
"417 1483 QCURVE SMOOTH",
"261 1483 OFFCURVE",
"120 1237 OFFCURVE",
"120 1030 QCURVE SMOOTH",
"120 819 OFFCURVE",
"257 573 OFFCURVE",
"415 573 QCURVE",
"415 573 LINE"
);
},
{
closed = 1;
nodes = (
"411 625 LINE",
"290 625 OFFCURVE",
"177 836 OFFCURVE",
"177 1030 QCURVE SMOOTH",
"177 1143 OFFCURVE",
"222 1323 OFFCURVE",
"327 1432 OFFCURVE",
"413 1432 QCURVE SMOOTH",
"652 1432 OFFCURVE",
"652 1030 QCURVE SMOOTH",
"652 913 OFFCURVE",
"607 729 OFFCURVE",
"501 625 OFFCURVE",
"411 625 QCURVE",
"411 625 LINE"
);
},
{
closed = 1;
nodes = (
"1394 -20 LINE",
"1502 -20 OFFCURVE",
"1631 94 OFFCURVE",
"1689 301 OFFCURVE",
"1689 436 QCURVE SMOOTH",
"1689 645 OFFCURVE",
"1545 889 OFFCURVE",
"1396 889 QCURVE SMOOTH",
"1240 889 OFFCURVE",
"1099 643 OFFCURVE",
"1099 436 QCURVE SMOOTH",
"1099 225 OFFCURVE",
"1236 -20 OFFCURVE",
"1394 -20 QCURVE",
"1394 -20 LINE"
);
},
{
closed = 1;
nodes = (
"1390 31 LINE",
"1269 31 OFFCURVE",
"1156 242 OFFCURVE",
"1156 436 QCURVE SMOOTH",
"1156 549 OFFCURVE",
"1201 729 OFFCURVE",
"1306 838 OFFCURVE",
"1392 838 QCURVE SMOOTH",
"1631 838 OFFCURVE",
"1631 436 QCURVE SMOOTH",
"1631 319 OFFCURVE",
"1586 135 OFFCURVE",
"1480 31 OFFCURVE",
"1390 31 QCURVE",
"1390 31 LINE"
);
},
{
closed = 1;
nodes = (
"534 0 LINE",
"1332 1462 LINE",
"1267 1462 LINE",
"468 0 LINE",
"468 0 LINE"
);
}
);
width = 1810;
},
{
layerId = "28531FA7-6DEB-4C71-966B-2D248D7FC379";
paths = (
{
closed = 1;
nodes = (
"421 573 LINE",
"587 573 OFFCURVE",
"739 825 OFFCURVE",
"739 1030 QCURVE SMOOTH",
"739 1237 OFFCURVE",
"583 1483 OFFCURVE",
"423 1483 QCURVE SMOOTH",
"256 1483 OFFCURVE",
"104 1237 OFFCURVE",
"104 1030 QCURVE SMOOTH",
"104 821 OFFCURVE",
"254 573 OFFCURVE",
"421 573 QCURVE",
"421 573 LINE"
);
},
{
closed = 1;
nodes = (
"419 643 LINE",
"319 643 OFFCURVE",
"231 846 OFFCURVE",
"231 1030 QCURVE SMOOTH",
"231 1200 OFFCURVE",
"317 1413 OFFCURVE",
"421 1413 QCURVE SMOOTH",
"524 1413 OFFCURVE",
"612 1214 OFFCURVE",
"612 1030 QCURVE SMOOTH",
"612 854 OFFCURVE",
"528 643 OFFCURVE",
"419 643 QCURVE",
"419 643 LINE"
);
},
{
closed = 1;
nodes = (
"1400 -20 LINE",
"1566 -20 OFFCURVE",
"1718 231 OFFCURVE",
"1718 436 QCURVE SMOOTH",
"1718 643 OFFCURVE",
"1562 889 OFFCURVE",
"1402 889 QCURVE SMOOTH",
"1234 889 OFFCURVE",
"1083 643 OFFCURVE",
"1083 436 QCURVE SMOOTH",
"1083 227 OFFCURVE",
"1232 -20 OFFCURVE",
"1400 -20 QCURVE",
"1400 -20 LINE"
);
},
{
closed = 1;
nodes = (
"1398 49 LINE",
"1298 49 OFFCURVE",
"1210 252 OFFCURVE",
"1210 436 QCURVE SMOOTH",
"1210 606 OFFCURVE",
"1296 819 OFFCURVE",
"1400 819 QCURVE SMOOTH",
"1503 819 OFFCURVE",
"1591 621 OFFCURVE",
"1591 436 QCURVE SMOOTH",
"1591 260 OFFCURVE",
"1507 49 OFFCURVE",
"1398 49 QCURVE",
"1398 49 LINE"
);
},
{
closed = 1;
nodes = (
"579 0 LINE",
"1339 1462 LINE",
"1237 1462 LINE",
"475 0 LINE",
"475 0 LINE"
);
}
);
width = 1824;
},
{
layerId = "82773DB8-11CF-4E3D-BC1E-69725B5EFD97";
paths = (
{
closed = 1;
nodes = (
"764 1030 LINE",
"764 1030 LINE",
"764 1030 LINE",
"764 1030 LINE",
"764 1133 OFFCURVE",
"722 1300 OFFCURVE",
"639 1419 OFFCURVE",
"514 1483 OFFCURVE",
"430 1483 QCURVE SMOOTH",
"341 1483 OFFCURVE",
"213 1419 OFFCURVE",
"131 1300 OFFCURVE",
"92 1133 OFFCURVE",
"92 1030 QCURVE SMOOTH",
"92 927 OFFCURVE",
"131 759 OFFCURVE",
"213 639 OFFCURVE",
"340 573 OFFCURVE",
"428 573 QCURVE SMOOTH",
"512 573 OFFCURVE",
"638 639 OFFCURVE",
"722 759 OFFCURVE",
"764 927 OFFCURVE",
"764 1030 QCURVE",
"764 1030 LINE"
);
},
{
closed = 1;
nodes = (
"276 1030 LINE",
"276 1030 LINE",
"276 1030 LINE",
"276 1030 LINE",
"276 1117 OFFCURVE",
"292 1253 OFFCURVE",
"329 1348 OFFCURVE",
"388 1397 OFFCURVE",
"430 1397 QCURVE SMOOTH",
"472 1397 OFFCURVE",
"528 1348 OFFCURVE",
"563 1253 OFFCURVE",
"578 1117 OFFCURVE",
"578 1030 QCURVE SMOOTH",
"578 942 OFFCURVE",
"563 803 OFFCURVE",
"528 707 OFFCURVE",
"470 657 OFFCURVE",
"428 657 QCURVE SMOOTH",
"386 657 OFFCURVE",
"328 707 OFFCURVE",
"292 803 OFFCURVE",
"276 942 OFFCURVE",
"276 1030 QCURVE",
"276 1030 LINE"
);
},
{
closed = 1;
nodes = (
"1743 436 LINE",
"1743 436 LINE",
"1743 436 LINE",
"1743 436 LINE",
"1743 539 OFFCURVE",
"1701 706 OFFCURVE",
"1618 825 OFFCURVE",
"1493 889 OFFCURVE",
"1409 889 QCURVE SMOOTH",
"1320 889 OFFCURVE",
"1192 825 OFFCURVE",
"1110 706 OFFCURVE",
"1071 539 OFFCURVE",
"1071 436 QCURVE SMOOTH",
"1071 333 OFFCURVE",
"1110 165 OFFCURVE",
"1191 45 OFFCURVE",
"1319 -20 OFFCURVE",
"1407 -20 QCURVE SMOOTH",
"1491 -20 OFFCURVE",
"1617 45 OFFCURVE",
"1701 165 OFFCURVE",
"1743 333 OFFCURVE",
"1743 436 QCURVE",
"1743 436 LINE"
);
},
{
closed = 1;
nodes = (
"1255 436 LINE",
"1255 436 LINE",
"1255 436 LINE",
"1255 436 LINE",
"1255 523 OFFCURVE",
"1271 659 OFFCURVE",
"1308 754 OFFCURVE",
"1367 803 OFFCURVE",
"1409 803 QCURVE SMOOTH",
"1451 803 OFFCURVE",
"1507 754 OFFCURVE",
"1541 659 OFFCURVE",
"1556 523 OFFCURVE",
"1556 436 QCURVE SMOOTH",
"1556 348 OFFCURVE",
"1541 209 OFFCURVE",
"1507 113 OFFCURVE",
"1449 63 OFFCURVE",
"1407 63 QCURVE SMOOTH",
"1365 63 OFFCURVE",
"1307 113 OFFCURVE",
"1271 209 OFFCURVE",
"1255 348 OFFCURVE",
"1255 436 QCURVE",
"1255 436 LINE"
);
},
{
closed = 1;
nodes = (
"1346 1462 LINE",
"1212 1462 LINE",
"481 0 LINE",
"616 0 LINE",
"616 0 LINE"
);
}
);
userData = {
assembly = "MPPEM[ ]	/* MeasurePixelPerEm */\012PUSHB[ ]	/* 1 value pushed */\01210 \012LT[ ]	/* LessThan */\012IF[ ]	/* If */\012NPUSHB[ ]	/* 43 values pushed */\0120 5 0 7 2 5 7 105 0 2 0 0 6 2 0 105 0 9 9 50 77 0 3 3 1 97 0 1 1 56 77 0 6 6 4 97 8 1 4 4 57 4 78 \012ELSE[ ]	/* Else */\012MPPEM[ ]	/* MeasurePixelPerEm */\012PUSHB[ ]	/* 1 value pushed */\01214 \012LT[ ]	/* LessThan */\012IF[ ]	/* If */\012NPUSHB[ ]	/* 47 values pushed */\0120 5 0 7 2 5 7 105 0 2 0 0 6 2 0 105 0 9 9 50 77 0 3 3 1 97 0 1 1 56 77 0 8 8 51 77 0 6 6 4 97 0 4 4 57 4 78 \012ELSE[ ]	/* Else */\012MPPEM[ ]	/* MeasurePixelPerEm */\012PUSHB[ ]	/* 1 value pushed */\01216 \012LT[ ]	/* LessThan */\012IF[ ]	/* If */\012NPUSHB[ ]	/* 39 values pushed */\0120 5 0 7 2 5 7 105 0 2 0 0 6 2 0 105 0 3 3 1 97 9 1 1 1 56 77 0 6 6 4 97 8 1 4 4 57 4 78 \012ELSE[ ]	/* Else */\012MPPEM[ ]	/* MeasurePixelPerEm */\012PUSHB[ ]	/* 1 value pushed */\01221 \012LT[ ]	/* LessThan */\012IF[ ]	/* If */\012NPUSHB[ ]	/* 43 values pushed */\0120 5 0 7 2 5 7 105 0 2 0 0 6 2 0 105 0 9 9 50 77 0 3 3 1 97 0 1 1 56 77 0 6 6 4 97 8 1 4 4 57 4 78 \012ELSE[ ]	/* Else */\012MPPEM[ ]	/* MeasurePixelPerEm */\012PUSHB[ ]	/* 1 value pushed */\01223 \012LT[ ]	/* LessThan */\012IF[ ]	/* If */\012NPUSHB[ ]	/* 47 values pushed */\0120 5 0 7 2 5 7 105 0 2 0 0 6 2 0 105 0 9 9 50 77 0 3 3 1 97 0 1 1 56 77 0 8 8 51 77 0 6 6 4 97 0 4 4 57 4 78 \012ELSE[ ]	/* Else */\012MPPEM[ ]	/* MeasurePixelPerEm */\012PUSHB[ ]	/* 1 value pushed */\01225 \012LT[ ]	/* LessThan */\012IF[ ]	/* If */\012NPUSHB[ ]	/* 39 values pushed */\0120 5 0 7 2 5 7 105 0 2 0 0 6 2 0 105 0 3 3 1 97 9 1 1 1 56 77 0 6 6 4 97 8 1 4 4 57 4 78 \012ELSE[ ]	/* Else */\012NPUSHB[ ]	/* 47 values pushed */\0120 5 0 7 2 5 7 105 0 2 0 0 6 2 0 105 0 9 9 50 77 0 3 3 1 97 0 1 1 56 77 0 8 8 51 77 0 6 6 4 97 0 4 4 57 4 78 \012EIF[ ]	/* EndIf */\012EIF[ ]	/* EndIf */\012EIF[ ]	/* EndIf */\012EIF[ ]	/* EndIf */\012EIF[ ]	/* EndIf */\012EIF[ ]	/* EndIf */\012NPUSHB[ ]	/* 14 values pushed */\01299 98 24 40 44 40 44 40 44 40 36 10 9 31 \012CALL[ ]	/* CallFunction */";
};
width = 1835;
},
{
layerId = "05F2EFEE-D68A-47EA-B1CB-1F079D4BE6D1";
paths = (
{
closed = 1;
nodes = (
"438 573 LINE",
"624 573 OFFCURVE",
"806 823 OFFCURVE",
"806 1030 QCURVE SMOOTH",
"806 1237 OFFCURVE",
"624 1483 OFFCURVE",
"440 1483 QCURVE SMOOTH",
"243 1483 OFFCURVE",
"69 1237 OFFCURVE",
"69 1030 QCURVE SMOOTH",
"69 823 OFFCURVE",
"243 573 OFFCURVE",
"438 573 QCURVE",
"438 573 LINE"
);
},
{
closed = 1;
nodes = (
"438 676 LINE",
"362 676 OFFCURVE",
"300 862 OFFCURVE",
"300 1030 QCURVE SMOOTH",
"300 1194 OFFCURVE",
"364 1378 OFFCURVE",
"440 1378 QCURVE SMOOTH",
"515 1378 OFFCURVE",
"573 1194 OFFCURVE",
"573 1030 QCURVE SMOOTH",
"573 862 OFFCURVE",
"515 676 OFFCURVE",
"438 676 QCURVE",
"438 676 LINE"
);
},
{
closed = 1;
nodes = (
"1417 -20 LINE",
"1603 -20 OFFCURVE",
"1785 229 OFFCURVE",
"1785 436 QCURVE SMOOTH",
"1785 643 OFFCURVE",
"1603 889 OFFCURVE",
"1419 889 QCURVE SMOOTH",
"1222 889 OFFCURVE",
"1048 643 OFFCURVE",
"1048 436 QCURVE SMOOTH",
"1048 229 OFFCURVE",
"1222 -20 OFFCURVE",
"1417 -20 QCURVE",
"1417 -20 LINE"
);
},
{
closed = 1;
nodes = (
"1417 82 LINE",
"1341 82 OFFCURVE",
"1279 268 OFFCURVE",
"1279 436 QCURVE SMOOTH",
"1279 600 OFFCURVE",
"1343 784 OFFCURVE",
"1419 784 QCURVE SMOOTH",
"1494 784 OFFCURVE",
"1552 600 OFFCURVE",
"1552 436 QCURVE SMOOTH",
"1552 268 OFFCURVE",
"1494 82 OFFCURVE",
"1417 82 QCURVE",
"1417 82 LINE"
);
},
{
closed = 1;
nodes = (
"651 0 LINE",
"1355 1462 LINE",
"1197 1462 LINE",
"491 0 LINE",
"491 0 LINE"
);
}
);
width = 1855;
},
{
layerId = "482B5BA1-F14A-4795-881D-282E6E2A03D9";
paths = (
{
closed = 1;
nodes = (
"446 573 LINE",
"645 573 OFFCURVE",
"839 823 OFFCURVE",
"839 1030 QCURVE SMOOTH",
"839 1237 OFFCURVE",
"645 1483 OFFCURVE",
"448 1483 QCURVE SMOOTH",
"237 1483 OFFCURVE",
"53 1237 OFFCURVE",
"53 1030 QCURVE SMOOTH",
"53 823 OFFCURVE",
"237 573 OFFCURVE",
"446 573 QCURVE",
"446 573 LINE"
);
},
{
closed = 1;
nodes = (
"446 690 LINE",
"377 690 OFFCURVE",
"319 868 OFFCURVE",
"319 1030 QCURVE SMOOTH",
"319 1188 OFFCURVE",
"377 1364 OFFCURVE",
"448 1364 QCURVE SMOOTH",
"518 1364 OFFCURVE",
"571 1188 OFFCURVE",
"571 1030 QCURVE SMOOTH",
"571 868 OFFCURVE",
"516 690 OFFCURVE",
"446 690 QCURVE",
"446 690 LINE"
);
},
{
closed = 1;
nodes = (
"1425 -20 LINE",
"1624 -20 OFFCURVE",
"1818 229 OFFCURVE",
"1818 436 QCURVE SMOOTH",
"1818 643 OFFCURVE",
"1624 889 OFFCURVE",
"1427 889 QCURVE SMOOTH",
"1216 889 OFFCURVE",
"1032 643 OFFCURVE",
"1032 436 QCURVE SMOOTH",
"1032 229 OFFCURVE",
"1216 -20 OFFCURVE",
"1425 -20 QCURVE",
"1425 -20 LINE"
);
},
{
closed = 1;
nodes = (
"1425 96 LINE",
"1356 96 OFFCURVE",
"1298 274 OFFCURVE",
"1298 436 QCURVE SMOOTH",
"1298 594 OFFCURVE",
"1356 770 OFFCURVE",
"1427 770 QCURVE SMOOTH",
"1497 770 OFFCURVE",
"1550 594 OFFCURVE",
"1550 436 QCURVE SMOOTH",
"1550 274 OFFCURVE",
"1495 96 OFFCURVE",
"1425 96 QCURVE",
"1425 96 LINE"
);
},
{
closed = 1;
nodes = (
"678 0 LINE",
"1364 1462 LINE",
"1188 1462 LINE",
"499 0 LINE",
"499 0 LINE"
);
}
);
width = 1869;
}
);
note = percent;
unicode = 0025;
},
{
glyphname = ampersand;
lastChange = "2020-08-17 13:41:11 +0000";
layers = (
{
layerId = "FFF31276-834F-49C0-8230-C5CBB7819B89";
paths = (
{
closed = 1;
nodes = (
"469 -20 LINE",
"586 -20 OFFCURVE",
"756 49 OFFCURVE",
"876 164 OFFCURVE",
"922 229 QCURVE",
"1135 0 LINE",
"1358 0 LINE",
"1358 41 LINE",
"1327 41 LINE SMOOTH",
"1241 41 OFFCURVE",
"1157 59 OFFCURVE",
"1128 92 QCURVE SMOOTH",
"952 283 LINE",
"999 371 OFFCURVE",
"1053 590 OFFCURVE",
"1063 686 QCURVE SMOOTH",
"1069 745 OFFCURVE",
"1092 797 OFFCURVE",
"1155 809 OFFCURVE",
"1221 809 QCURVE SMOOTH",
"1284 809 LINE",
"1284 850 LINE",
"1014 850 LINE",
"1014 782 LINE SMOOTH",
"1014 682 OFFCURVE",
"969 428 OFFCURVE",
"915 319 QCURVE",
"471 801 LINE",
"680 860 OFFCURVE",
"866 1051 OFFCURVE",
"866 1192 QCURVE SMOOTH",
"866 1266 OFFCURVE",
"799 1399 OFFCURVE",
"655 1483 OFFCURVE",
"541 1483 QCURVE SMOOTH",
"414 1483 OFFCURVE",
"260 1395 OFFCURVE",
"195 1257 OFFCURVE",
"195 1188 QCURVE SMOOTH",
"195 1102 OFFCURVE",
"242 977 OFFCURVE",
"315 881 OFFCURVE",
"358 829 QCURVE",
"211 770 OFFCURVE",
"45 565 OFFCURVE",
"45 397 QCURVE SMOOTH",
"45 279 OFFCURVE",
"149 90 OFFCURVE",
"340 -20 OFFCURVE",
"469 -20 QCURVE",
"469 -20 LINE"
);
},
{
closed = 1;
nodes = (
"426 842 LINE",
"369 901 OFFCURVE",
"293 1001 OFFCURVE",
"252 1114 OFFCURVE",
"252 1188 QCURVE SMOOTH",
"252 1296 OFFCURVE",
"401 1432 OFFCURVE",
"545 1432 QCURVE SMOOTH",
"676 1432 OFFCURVE",
"809 1286 OFFCURVE",
"809 1190 QCURVE SMOOTH",
"809 1065 OFFCURVE",
"629 891 OFFCURVE",
"426 842 QCURVE",
"426 842 LINE"
);
},
{
closed = 1;
nodes = (
"469 31 LINE",
"307 31 OFFCURVE",
"102 236 OFFCURVE",
"102 412 QCURVE SMOOTH",
"102 532 OFFCURVE",
"195 682 OFFCURVE",
"334 768 OFFCURVE",
"403 791 QCURVE",
"889 266 LINE",
"827 168 OFFCURVE",
"623 31 OFFCURVE",
"469 31 QCURVE",
"469 31 LINE"
);
}
);
width = 1368;
},
{
layerId = "28531FA7-6DEB-4C71-966B-2D248D7FC379";
paths = (
{
closed = 1;
nodes = (
"520 -20 LINE",
"684 -20 OFFCURVE",
"897 113 OFFCURVE",
"966 203 QCURVE",
"1155 0 LINE",
"1435 0 LINE",
"1435 66 LINE",
"1411 66 LINE SMOOTH",
"1327 66 OFFCURVE",
"1247 86 OFFCURVE",
"1218 117 QCURVE SMOOTH",
"1034 313 LINE",
"1073 395 OFFCURVE",
"1122 580 OFFCURVE",
"1138 659 QCURVE SMOOTH",
"1157 750 OFFCURVE",
"1245 791 OFFCURVE",
"1327 791 QCURVE SMOOTH",
"1366 791 LINE",
"1366 856 LINE",
"1042 856 LINE",
"1042 782 LINE SMOOTH",
"1042 696 OFFCURVE",
"1011 477 OFFCURVE",
"972 377 QCURVE",
"567 811 LINE",
"763 881 OFFCURVE",
"935 1055 OFFCURVE",
"935 1192 QCURVE SMOOTH",
"935 1270 OFFCURVE",
"866 1401 OFFCURVE",
"712 1483 OFFCURVE",
"589 1483 QCURVE SMOOTH",
"458 1483 OFFCURVE",
"294 1401 OFFCURVE",
"221 1266 OFFCURVE",
"221 1184 QCURVE SMOOTH",
"221 1069 OFFCURVE",
"311 913 OFFCURVE",
"380 829 QCURVE",
"233 768 OFFCURVE",
"61 573 OFFCURVE",
"61 403 QCURVE SMOOTH",
"61 217 OFFCURVE",
"297 -20 OFFCURVE",
"520 -20 QCURVE",
"520 -20 LINE"
);
},
{
closed = 1;
nodes = (
"507 872 LINE",
"428 961 OFFCURVE",
"352 1094 OFFCURVE",
"352 1188 QCURVE SMOOTH",
"352 1284 OFFCURVE",
"473 1405 OFFCURVE",
"587 1405 QCURVE SMOOTH",
"702 1405 OFFCURVE",
"811 1278 OFFCURVE",
"811 1190 QCURVE SMOOTH",
"811 1075 OFFCURVE",
"665 924 OFFCURVE",
"507 872 QCURVE",
"507 872 LINE"
);
},
{
closed = 1;
nodes = (
"528 66 LINE",
"380 66 OFFCURVE",
"196 246 OFFCURVE",
"196 408 QCURVE SMOOTH",
"196 510 OFFCURVE",
"264 647 OFFCURVE",
"376 737 OFFCURVE",
"444 766 QCURVE",
"911 262 LINE",
"852 180 OFFCURVE",
"665 66 OFFCURVE",
"528 66 QCURVE",
"528 66 LINE"
);
}
);
width = 1449;
},
{
layerId = "82773DB8-11CF-4E3D-BC1E-69725B5EFD97";
paths = (
{
closed = 1;
nodes = (
"1174 0 LINE",
"1174 0 LINE",
"1174 0 LINE",
"1174 0 LINE",
"1501 0 LINE",
"1501 86 LINE",
"1483 86 LINE SMOOTH",
"1441 86 OFFCURVE",
"1382 90 OFFCURVE",
"1339 102 OFFCURVE",
"1307 122 OFFCURVE",
"1292 137 QCURVE SMOOTH",
"1102 340 LINE",
"1137 417 OFFCURVE",
"1184 571 OFFCURVE",
"1202 637 QCURVE SMOOTH",
"1215 684 OFFCURVE",
"1260 739 OFFCURVE",
"1317 768 OFFCURVE",
"1383 776 OFFCURVE",
"1417 776 QCURVE SMOOTH",
"1436 776 LINE",
"1436 862 LINE",
"1067 862 LINE",
"1067 782 LINE SMOOTH",
"1067 745 OFFCURVE",
"1063 658 OFFCURVE",
"1052 567 OFFCURVE",
"1034 472 OFFCURVE",
"1020 426 QCURVE",
"647 821 LINE",
"741 861 OFFCURVE",
"872 938 OFFCURVE",
"955 1024 OFFCURVE",
"993 1126 OFFCURVE",
"993 1192 QCURVE SMOOTH",
"993 1251 OFFCURVE",
"954 1357 OFFCURVE",
"867 1437 OFFCURVE",
"729 1483 OFFCURVE",
"631 1483 QCURVE SMOOTH",
"529 1483 OFFCURVE",
"382 1440 OFFCURVE",
"288 1360 OFFCURVE",
"244 1250 OFFCURVE",
"244 1182 QCURVE SMOOTH",
"244 1132 OFFCURVE",
"264 1044 OFFCURVE",
"303 960 OFFCURVE",
"362 875 OFFCURVE",
"401 829 QCURVE",
"327 798 OFFCURVE",
"206 724 OFFCURVE",
"121 626 OFFCURVE",
"74 497 OFFCURVE",
"74 410 QCURVE SMOOTH",
"74 313 OFFCURVE",
"134 155 OFFCURVE",
"255 42 OFFCURVE",
"438 -20 OFFCURVE",
"561 -20 QCURVE SMOOTH",
"639 -20 OFFCURVE",
"770 11 OFFCURVE",
"878 65 OFFCURVE",
"967 138 OFFCURVE",
"1004 180 QCURVE",
"1174 0 LINE",
"1174 0 LINE"
);
},
{
closed = 1;
nodes = (
"580 94 LINE",
"580 94 LINE",
"580 94 LINE",
"580 94 LINE",
"511 94 OFFCURVE",
"399 134 OFFCURVE",
"318 213 OFFCURVE",
"274 328 OFFCURVE",
"274 403 QCURVE SMOOTH",
"274 469 OFFCURVE",
"302 573 OFFCURVE",
"355 656 OFFCURVE",
"430 719 OFFCURVE",
"477 745 QCURVE",
"930 260 LINE",
"901 224 OFFCURVE",
"829 163 OFFCURVE",
"743 119 OFFCURVE",
"640 94 OFFCURVE",
"580 94 QCURVE",
"580 94 LINE"
);
},
{
closed = 1;
nodes = (
"813 1190 LINE",
"813 1190 LINE",
"813 1190 LINE",
"813 1190 LINE",
"813 1136 OFFCURVE",
"785 1052 OFFCURVE",
"727 983 OFFCURVE",
"638 925 OFFCURVE",
"578 899 QCURVE",
"539 942 OFFCURVE",
"485 1014 OFFCURVE",
"450 1081 OFFCURVE",
"434 1149 OFFCURVE",
"434 1188 QCURVE SMOOTH",
"434 1276 OFFCURVE",
"532 1382 OFFCURVE",
"623 1382 QCURVE SMOOTH",
"675 1382 OFFCURVE",
"748 1352 OFFCURVE",
"793 1301 OFFCURVE",
"813 1231 OFFCURVE",
"813 1190 QCURVE",
"813 1190 LINE"
);
}
);
userData = {
assembly = "NPUSHB[ ]	/* 19 values pushed */\012100 1 2 7 36 16 2 3 2 73 72 54 37 1 5 4 3 3 76 \012MPPEM[ ]	/* MeasurePixelPerEm */\012PUSHB[ ]	/* 1 value pushed */\01210 \012LT[ ]	/* LessThan */\012IF[ ]	/* If */\012NPUSHB[ ]	/* 32 values pushed */\0120 2 0 3 4 2 3 105 0 7 7 1 97 0 1 1 56 77 8 6 2 4 4 0 97 5 1 0 0 57 0 78 \012ELSE[ ]	/* Else */\012MPPEM[ ]	/* MeasurePixelPerEm */\012PUSHB[ ]	/* 1 value pushed */\01214 \012LT[ ]	/* LessThan */\012IF[ ]	/* If */\012NPUSHB[ ]	/* 43 values pushed */\0120 2 0 3 4 2 3 105 0 7 7 1 97 0 1 1 56 77 8 6 2 4 4 5 95 0 5 5 51 77 8 6 2 4 4 0 97 0 0 0 57 0 78 \012ELSE[ ]	/* Else */\012MPPEM[ ]	/* MeasurePixelPerEm */\012PUSHB[ ]	/* 1 value pushed */\01221 \012LT[ ]	/* LessThan */\012IF[ ]	/* If */\012NPUSHB[ ]	/* 32 values pushed */\0120 2 0 3 4 2 3 105 0 7 7 1 97 0 1 1 56 77 8 6 2 4 4 0 97 5 1 0 0 57 0 78 \012ELSE[ ]	/* Else */\012MPPEM[ ]	/* MeasurePixelPerEm */\012PUSHB[ ]	/* 1 value pushed */\01223 \012LT[ ]	/* LessThan */\012IF[ ]	/* If */\012NPUSHB[ ]	/* 43 values pushed */\0120 2 0 3 4 2 3 105 0 7 7 1 97 0 1 1 56 77 8 6 2 4 4 5 95 0 5 5 51 77 8 6 2 4 4 0 97 0 0 0 57 0 78 \012ELSE[ ]	/* Else */\012MPPEM[ ]	/* MeasurePixelPerEm */\012PUSHB[ ]	/* 1 value pushed */\01225 \012LT[ ]	/* LessThan */\012IF[ ]	/* If */\012NPUSHB[ ]	/* 32 values pushed */\0120 2 0 3 4 2 3 105 0 7 7 1 97 0 1 1 56 77 8 6 2 4 4 0 97 5 1 0 0 57 0 78 \012ELSE[ ]	/* Else */\012NPUSHB[ ]	/* 43 values pushed */\0120 2 0 3 4 2 3 105 0 7 7 1 97 0 1 1 56 77 8 6 2 4 4 5 95 0 5 5 51 77 8 6 2 4 4 0 97 0 0 0 57 0 78 \012EIF[ ]	/* EndIf */\012EIF[ ]	/* EndIf */\012EIF[ ]	/* EndIf */\012EIF[ ]	/* EndIf */\012EIF[ ]	/* EndIf */\012NPUSHB[ ]	/* 22 values pushed */\01268 67 93 91 67 86 68 82 63 62 60 58 47 45 44 43 27 25 37 9 9 23 \012CALL[ ]	/* CallFunction */";
};
width = 1520;
},
{
layerId = "05F2EFEE-D68A-47EA-B1CB-1F079D4BE6D1";
paths = (
{
closed = 1;
nodes = (
"616 -20 LINE",
"770 -20 OFFCURVE",
"991 74 OFFCURVE",
"1067 150 QCURVE",
"1208 0 LINE",
"1614 0 LINE",
"1614 109 LINE",
"1595 109 LINE SMOOTH",
"1540 109 OFFCURVE",
"1456 129 OFFCURVE",
"1427 160 QCURVE SMOOTH",
"1222 373 LINE",
"1253 438 OFFCURVE",
"1298 567 OFFCURVE",
"1313 625 QCURVE SMOOTH",
"1339 719 OFFCURVE",
"1454 764 OFFCURVE",
"1523 764 QCURVE SMOOTH",
"1556 764 LINE",
"1556 872 LINE",
"1108 872 LINE",
"1108 782 LINE SMOOTH",
"1108 725 OFFCURVE",
"1100 586 OFFCURVE",
"1087 514 QCURVE",
"782 834 LINE",
"942 907 OFFCURVE",
"1093 1067 OFFCURVE",
"1093 1192 QCURVE SMOOTH",
"1093 1311 OFFCURVE",
"899 1483 OFFCURVE",
"702 1483 QCURVE SMOOTH",
"497 1483 OFFCURVE",
"291 1317 OFFCURVE",
"291 1182 QCURVE SMOOTH",
"291 1079 OFFCURVE",
"364 915 OFFCURVE",
"446 819 QCURVE",
"352 782 OFFCURVE",
"192 686 OFFCURVE",
"96 537 OFFCURVE",
"96 416 QCURVE SMOOTH",
"96 209 OFFCURVE",
"364 -20 OFFCURVE",
"616 -20 QCURVE",
"616 -20 LINE"
);
},
{
closed = 1;
nodes = (
"696 926 LINE",
"631 997 OFFCURVE",
"569 1118 OFFCURVE",
"569 1188 QCURVE SMOOTH",
"569 1262 OFFCURVE",
"633 1360 OFFCURVE",
"702 1360 QCURVE SMOOTH",
"788 1360 OFFCURVE",
"846 1262 OFFCURVE",
"846 1190 QCURVE SMOOTH",
"846 1096 OFFCURVE",
"782 975 OFFCURVE",
"696 926 QCURVE",
"696 926 LINE"
);
},
{
closed = 1;
nodes = (
"667 117 LINE",
"545 117 OFFCURVE",
"397 285 OFFCURVE",
"397 406 QCURVE SMOOTH",
"397 500 OFFCURVE",
"452 653 OFFCURVE",
"538 715 QCURVE",
"977 248 LINE",
"927 188 OFFCURVE",
"776 117 OFFCURVE",
"667 117 QCURVE",
"667 117 LINE"
);
}
);
width = 1640;
},
{
layerId = "482B5BA1-F14A-4795-881D-282E6E2A03D9";
paths = (
{
closed = 1;
nodes = (
"645 -20 LINE",
"794 -20 OFFCURVE",
"1026 78 OFFCURVE",
"1091 143 QCURVE",
"1233 0 LINE",
"1695 0 LINE",
"1695 125 LINE",
"1677 125 LINE SMOOTH",
"1642 125 OFFCURVE",
"1552 147 OFFCURVE",
"1513 188 QCURVE SMOOTH",
"1300 412 LINE",
"1358 532 OFFCURVE",
"1384 631 QCURVE SMOOTH",
"1401 692 OFFCURVE",
"1468 745 OFFCURVE",
"1556 756 OFFCURVE",
"1601 756 QCURVE SMOOTH",
"1644 756 LINE",
"1644 881 LINE",
"1159 881 LINE",
"1159 782 LINE SMOOTH",
"1159 721 OFFCURVE",
"1149 602 OFFCURVE",
"1140 567 QCURVE",
"882 842 LINE",
"1020 911 OFFCURVE",
"1167 1073 OFFCURVE",
"1167 1192 QCURVE SMOOTH",
"1167 1270 OFFCURVE",
"1079 1403 OFFCURVE",
"897 1483 OFFCURVE",
"755 1483 QCURVE SMOOTH",
"545 1483 OFFCURVE",
"325 1311 OFFCURVE",
"325 1149 QCURVE SMOOTH",
"325 1061 OFFCURVE",
"393 907 OFFCURVE",
"479 811 QCURVE",
"389 778 OFFCURVE",
"213 686 OFFCURVE",
"96 532 OFFCURVE",
"96 410 QCURVE SMOOTH",
"96 195 OFFCURVE",
"389 -20 OFFCURVE",
"645 -20 QCURVE",
"645 -20 LINE"
);
},
{
closed = 1;
nodes = (
"784 946 LINE",
"729 1008 OFFCURVE",
"657 1122 OFFCURVE",
"657 1188 QCURVE SMOOTH",
"657 1343 OFFCURVE",
"778 1343 QCURVE SMOOTH",
"831 1343 OFFCURVE",
"895 1264 OFFCURVE",
"895 1190 QCURVE SMOOTH",
"895 1106 OFFCURVE",
"844 991 OFFCURVE",
"784 946 QCURVE",
"784 946 LINE"
);
},
{
closed = 1;
nodes = (
"735 141 LINE",
"622 141 OFFCURVE",
"487 289 OFFCURVE",
"487 420 QCURVE SMOOTH",
"487 504 OFFCURVE",
"520 649 OFFCURVE",
"577 700 QCURVE",
"989 260 LINE",
"950 213 OFFCURVE",
"817 141 OFFCURVE",
"735 141 QCURVE",
"735 141 LINE"
);
}
);
width = 1728;
}
);
note = ampersand;
unicode = 0026;
},
{
glyphname = quotesingle;
lastChange = "2020-08-17 13:41:11 +0000";
layers = (
{
layerId = "FFF31276-834F-49C0-8230-C5CBB7819B89";
paths = (
{
closed = 1;
nodes = (
"162 1022 LINE",
"178 1462 LINE",
"96 1462 LINE",
"116 1022 LINE",
"116 1022 LINE"
);
}
);
width = 274;
},
{
layerId = "28531FA7-6DEB-4C71-966B-2D248D7FC379";
paths = (
{
closed = 1;
nodes = (
"221 999 LINE",
"262 1462 LINE",
"106 1462 LINE",
"149 999 LINE",
"149 999 LINE"
);
}
);
width = 370;
},
{
layerId = "82773DB8-11CF-4E3D-BC1E-69725B5EFD97";
paths = (
{
closed = 1;
nodes = (
"178 981 LINE",
"272 981 LINE",
"334 1462 LINE",
"117 1462 LINE",
"117 1462 LINE"
);
}
);
userData = {
assembly = "NPUSHB[ ]	/* 16 values pushed */\0120 1 1 0 95 0 0 0 50 1 78 17 16 2 9 24 \012CALL[ ]	/* CallFunction */";
};
width = 451;
},
{
layerId = "05F2EFEE-D68A-47EA-B1CB-1F079D4BE6D1";
paths = (
{
closed = 1;
nodes = (
"364 899 LINE",
"456 1462 LINE",
"137 1462 LINE",
"229 899 LINE",
"229 899 LINE"
);
}
);
width = 593;
},
{
layerId = "482B5BA1-F14A-4795-881D-282E6E2A03D9";
paths = (
{
closed = 1;
nodes = (
"432 840 LINE",
"546 1462 LINE",
"151 1462 LINE",
"266 840 LINE",
"266 840 LINE"
);
}
);
width = 698;
}
);
note = quotesingle;
unicode = 0027;
},
{
glyphname = parenleft;
lastChange = "2020-08-17 13:41:11 +0000";
layers = (
{
layerId = "FFF31276-834F-49C0-8230-C5CBB7819B89";
paths = (
{
closed = 1;
nodes = (
"503 -233 LINE",
"503 -184 LINE",
"388 -131 OFFCURVE",
"255 49 OFFCURVE",
"192 274 OFFCURVE",
"173 522 OFFCURVE",
"173 645 QCURVE SMOOTH",
"173 768 OFFCURVE",
"190 1020 OFFCURVE",
"251 1249 OFFCURVE",
"386 1425 OFFCURVE",
"503 1473 QCURVE",
"503 1524 LINE",
"366 1470 OFFCURVE",
"196 1274 OFFCURVE",
"116 924 OFFCURVE",
"116 645 QCURVE SMOOTH",
"116 369 OFFCURVE",
"196 20 OFFCURVE",
"366 -180 OFFCURVE",
"503 -233 QCURVE",
"503 -233 LINE"
);
}
);
width = 569;
},
{
layerId = "28531FA7-6DEB-4C71-966B-2D248D7FC379";
paths = (
{
closed = 1;
nodes = (
"579 -250 LINE",
"579 -176 LINE",
"468 -117 OFFCURVE",
"339 61 OFFCURVE",
"276 283 OFFCURVE",
"257 524 OFFCURVE",
"257 647 QCURVE SMOOTH",
"257 770 OFFCURVE",
"276 1014 OFFCURVE",
"339 1235 OFFCURVE",
"468 1413 OFFCURVE",
"579 1468 QCURVE",
"579 1542 LINE",
"413 1479 OFFCURVE",
"210 1257 OFFCURVE",
"116 909 OFFCURVE",
"116 647 QCURVE SMOOTH",
"116 385 OFFCURVE",
"210 35 OFFCURVE",
"413 -184 OFFCURVE",
"579 -250 QCURVE",
"579 -250 LINE"
);
}
);
width = 645;
},
{
layerId = "82773DB8-11CF-4E3D-BC1E-69725B5EFD97";
paths = (
{
closed = 1;
nodes = (
"330 649 LINE",
"330 649 LINE",
"330 649 LINE",
"330 649 LINE",
"330 771 OFFCURVE",
"349 1009 OFFCURVE",
"413 1221 OFFCURVE",
"538 1400 OFFCURVE",
"643 1464 QCURVE",
"643 1556 LINE",
"502 1500 OFFCURVE",
"302 1341 OFFCURVE",
"175 1121 OFFCURVE",
"117 834 OFFCURVE",
"117 649 QCURVE SMOOTH",
"117 464 OFFCURVE",
"175 175 OFFCURVE",
"302 -46 OFFCURVE",
"502 -206 OFFCURVE",
"643 -262 QCURVE",
"643 -168 LINE",
"538 -104 OFFCURVE",
"413 76 OFFCURVE",
"349 289 OFFCURVE",
"330 527 OFFCURVE",
"330 649 QCURVE",
"330 649 LINE"
);
}
);
userData = {
assembly = "PUSHB[ ]	/* 4 values pushed */\01216 6 1 50 \012CALL[ ]	/* CallFunction */";
};
width = 709;
},
{
layerId = "05F2EFEE-D68A-47EA-B1CB-1F079D4BE6D1";
paths = (
{
closed = 1;
nodes = (
"753 -285 LINE",
"753 -154 LINE",
"626 -70 OFFCURVE",
"493 182 OFFCURVE",
"446 487 OFFCURVE",
"446 651 QCURVE SMOOTH",
"446 813 OFFCURVE",
"493 1116 OFFCURVE",
"626 1368 OFFCURVE",
"753 1452 QCURVE",
"753 1581 LINE",
"411 1444 OFFCURVE",
"116 981 OFFCURVE",
"116 651 QCURVE SMOOTH",
"116 319 OFFCURVE",
"411 -147 OFFCURVE",
"753 -285 QCURVE",
"753 -285 LINE"
);
}
);
width = 819;
},
{
layerId = "482B5BA1-F14A-4795-881D-282E6E2A03D9";
paths = (
{
closed = 1;
nodes = (
"835 -301 LINE",
"835 -143 LINE",
"716 -61 OFFCURVE",
"585 188 OFFCURVE",
"532 492 OFFCURVE",
"532 653 QCURVE SMOOTH",
"532 815 OFFCURVE",
"585 1112 OFFCURVE",
"716 1360 OFFCURVE",
"835 1444 QCURVE",
"835 1599 LINE",
"577 1495 OFFCURVE",
"261 1208 OFFCURVE",
"116 854 OFFCURVE",
"116 653 QCURVE SMOOTH",
"116 451 OFFCURVE",
"261 94 OFFCURVE",
"577 -197 OFFCURVE",
"835 -301 QCURVE",
"835 -301 LINE"
);
}
);
width = 901;
}
);
note = parenleft;
unicode = 0028;
},
{
glyphname = parenright;
lastChange = "2020-08-17 13:41:11 +0000";
layers = (
{
layerId = "FFF31276-834F-49C0-8230-C5CBB7819B89";
paths = (
{
closed = 1;
nodes = (
"116 -233 LINE",
"253 -180 OFFCURVE",
"423 20 OFFCURVE",
"503 369 OFFCURVE",
"503 645 QCURVE SMOOTH",
"503 924 OFFCURVE",
"423 1274 OFFCURVE",
"253 1470 OFFCURVE",
"116 1524 QCURVE",
"116 1473 LINE",
"233 1425 OFFCURVE",
"368 1249 OFFCURVE",
"429 1020 OFFCURVE",
"446 768 OFFCURVE",
"446 645 QCURVE SMOOTH",
"446 522 OFFCURVE",
"427 274 OFFCURVE",
"364 49 OFFCURVE",
"231 -131 OFFCURVE",
"116 -184 QCURVE",
"116 -233 LINE",
"116 -233 LINE"
);
}
);
width = 569;
},
{
layerId = "28531FA7-6DEB-4C71-966B-2D248D7FC379";
paths = (
{
closed = 1;
nodes = (
"88 -250 LINE",
"254 -184 OFFCURVE",
"459 35 OFFCURVE",
"551 385 OFFCURVE",
"551 647 QCURVE SMOOTH",
"551 909 OFFCURVE",
"459 1257 OFFCURVE",
"254 1479 OFFCURVE",
"88 1542 QCURVE",
"88 1468 LINE",
"199 1413 OFFCURVE",
"330 1235 OFFCURVE",
"391 1014 OFFCURVE",
"410 770 OFFCURVE",
"410 647 QCURVE SMOOTH",
"410 524 OFFCURVE",
"391 283 OFFCURVE",
"328 61 OFFCURVE",
"199 -117 OFFCURVE",
"88 -176 QCURVE",
"88 -250 LINE",
"88 -250 LINE"
);
}
);
width = 645;
},
{
layerId = "82773DB8-11CF-4E3D-BC1E-69725B5EFD97";
paths = (
{
closed = 1;
nodes = (
"379 649 LINE",
"379 649 LINE",
"379 649 LINE",
"379 649 LINE",
"379 527 OFFCURVE",
"360 289 OFFCURVE",
"295 76 OFFCURVE",
"171 -104 OFFCURVE",
"66 -168 QCURVE",
"66 -262 LINE",
"207 -206 OFFCURVE",
"407 -46 OFFCURVE",
"533 175 OFFCURVE",
"592 464 OFFCURVE",
"592 649 QCURVE SMOOTH",
"592 834 OFFCURVE",
"533 1121 OFFCURVE",
"407 1341 OFFCURVE",
"207 1500 OFFCURVE",
"66 1556 QCURVE",
"66 1464 LINE",
"171 1400 OFFCURVE",
"295 1221 OFFCURVE",
"360 1009 OFFCURVE",
"379 771 OFFCURVE",
"379 649 QCURVE",
"379 649 LINE"
);
}
);
userData = {
assembly = "PUSHB[ ]	/* 4 values pushed */\01216 6 1 50 \012CALL[ ]	/* CallFunction */";
};
width = 709;
},
{
layerId = "05F2EFEE-D68A-47EA-B1CB-1F079D4BE6D1";
paths = (
{
closed = 1;
nodes = (
"65 -285 LINE",
"407 -147 OFFCURVE",
"702 319 OFFCURVE",
"702 651 QCURVE SMOOTH",
"702 981 OFFCURVE",
"407 1444 OFFCURVE",
"65 1581 QCURVE",
"65 1452 LINE",
"192 1368 OFFCURVE",
"325 1116 OFFCURVE",
"372 813 OFFCURVE",
"372 651 QCURVE SMOOTH",
"372 487 OFFCURVE",
"325 182 OFFCURVE",
"192 -70 OFFCURVE",
"65 -154 QCURVE",
"65 -285 LINE",
"65 -285 LINE"
);
}
);
width = 819;
},
{
layerId = "482B5BA1-F14A-4795-881D-282E6E2A03D9";
paths = (
{
closed = 1;
nodes = (
"65 -301 LINE",
"323 -197 OFFCURVE",
"638 94 OFFCURVE",
"784 451 OFFCURVE",
"784 653 QCURVE SMOOTH",
"784 854 OFFCURVE",
"638 1208 OFFCURVE",
"323 1495 OFFCURVE",
"65 1599 QCURVE",
"65 1444 LINE",
"182 1360 OFFCURVE",
"315 1112 OFFCURVE",
"368 815 OFFCURVE",
"368 653 QCURVE SMOOTH",
"368 492 OFFCURVE",
"315 188 OFFCURVE",
"182 -61 OFFCURVE",
"65 -143 QCURVE",
"65 -301 LINE",
"65 -301 LINE"
);
}
);
width = 901;
}
);
note = parenright;
unicode = 0029;
},
{
glyphname = asterisk;
lastChange = "2020-08-17 13:41:11 +0000";
layers = (
{
layerId = "FFF31276-834F-49C0-8230-C5CBB7819B89";
paths = (
{
closed = 1;
nodes = (
"473 774 LINE",
"444 1135 LINE",
"721 961 LINE",
"755 1036 LINE",
"448 1165 LINE",
"755 1294 LINE",
"721 1376 LINE",
"444 1196 LINE",
"469 1556 LINE",
"381 1556 LINE",
"409 1198 LINE",
"135 1380 LINE",
"96 1296 LINE",
"403 1165 LINE",
"96 1034 LINE",
"135 956 LINE",
"407 1135 LINE",
"381 774 LINE",
"381 774 LINE"
);
}
);
width = 860;
},
{
layerId = "28531FA7-6DEB-4C71-966B-2D248D7FC379";
paths = (
{
closed = 1;
nodes = (
"541 774 LINE",
"496 1114 LINE",
"795 932 LINE",
"850 1053 LINE",
"520 1165 LINE",
"850 1278 LINE",
"795 1403 LINE",
"496 1217 LINE",
"539 1556 LINE",
"401 1556 LINE",
"442 1217 LINE",
"145 1407 LINE",
"90 1280 LINE",
"418 1165 LINE",
"90 1051 LINE",
"145 928 LINE",
"440 1114 LINE",
"401 774 LINE",
"401 774 LINE"
);
}
);
width = 950;
},
{
layerId = "82773DB8-11CF-4E3D-BC1E-69725B5EFD97";
paths = (
{
closed = 1;
nodes = (
"428 1165 LINE",
"84 1063 LINE",
"156 903 LINE",
"469 1098 LINE",
"418 774 LINE",
"596 774 LINE",
"539 1098 LINE",
"856 907 LINE",
"928 1065 LINE",
"582 1165 LINE",
"928 1266 LINE",
"856 1425 LINE",
"539 1233 LINE",
"596 1556 LINE",
"418 1556 LINE",
"471 1231 LINE",
"156 1430 LINE",
"84 1268 LINE",
"84 1268 LINE"
);
}
);
userData = {
assembly = "NPUSHB[ ]	/* 34 values pushed */\01217 16 15 14 11 10 9 8 7 6 5 2 1 13 1 0 1 76 0 1 1 0 95 0 0 0 52 1 78 24 19 2 9 24 \012CALL[ ]	/* CallFunction */";
};
width = 1024;
},
{
layerId = "05F2EFEE-D68A-47EA-B1CB-1F079D4BE6D1";
paths = (
{
closed = 1;
nodes = (
"630 752 LINE",
"556 1081 LINE",
"864 868 LINE",
"956 1073 LINE",
"636 1153 LINE",
"956 1235 LINE",
"864 1440 LINE",
"556 1225 LINE",
"630 1556 LINE",
"401 1556 LINE",
"466 1223 LINE",
"163 1440 LINE",
"71 1237 LINE",
"390 1153 LINE",
"71 1071 LINE",
"163 868 LINE",
"466 1083 LINE",
"401 752 LINE",
"401 752 LINE"
);
}
);
width = 1028;
},
{
layerId = "482B5BA1-F14A-4795-881D-282E6E2A03D9";
paths = (
{
closed = 1;
nodes = (
"653 717 LINE",
"571 1055 LINE",
"870 825 LINE",
"978 1061 LINE",
"657 1145 LINE",
"978 1214 LINE",
"870 1452 LINE",
"571 1225 LINE",
"657 1559 LINE",
"391 1559 LINE",
"469 1219 LINE",
"169 1456 LINE",
"63 1217 LINE",
"389 1145 LINE",
"63 1059 LINE",
"169 823 LINE",
"466 1059 LINE",
"391 717 LINE",
"391 717 LINE"
);
}
);
width = 1030;
}
);
note = asterisk;
unicode = 002A;
},
{
glyphname = plus;
lastChange = "2020-08-17 13:41:11 +0000";
layers = (
{
layerId = "FFF31276-834F-49C0-8230-C5CBB7819B89";
paths = (
{
closed = 1;
nodes = (
"600 293 LINE",
"600 702 LINE",
"1012 702 LINE",
"1012 760 LINE",
"600 760 LINE",
"600 1171 LINE",
"543 1171 LINE",
"543 760 LINE",
"133 760 LINE",
"133 702 LINE",
"543 702 LINE",
"543 293 LINE",
"543 293 LINE"
);
}
);
width = 1144;
},
{
layerId = "28531FA7-6DEB-4C71-966B-2D248D7FC379";
paths = (
{
closed = 1;
nodes = (
"618 293 LINE",
"618 686 LINE",
"1012 686 LINE",
"1012 778 LINE",
"618 778 LINE",
"618 1171 LINE",
"524 1171 LINE",
"524 778 LINE",
"133 778 LINE",
"133 686 LINE",
"524 686 LINE",
"524 293 LINE",
"524 293 LINE"
);
}
);
width = 1144;
},
{
layerId = "82773DB8-11CF-4E3D-BC1E-69725B5EFD97";
paths = (
{
closed = 1;
nodes = (
"1012 672 LINE",
"1012 793 LINE",
"633 793 LINE",
"633 1171 LINE",
"510 1171 LINE",
"510 793 LINE",
"133 793 LINE",
"133 672 LINE",
"510 672 LINE",
"510 293 LINE",
"633 293 LINE",
"633 672 LINE",
"633 672 LINE"
);
}
);
userData = {
assembly = "NPUSHB[ ]	/* 41 values pushed */\0120 3 2 0 3 87 4 1 2 6 5 2 1 0 2 1 103 0 3 3 0 95 0 0 3 0 79 0 0 0 11 0 11 17 17 17 17 17 7 9 27 \012CALL[ ]	/* CallFunction */";
};
width = 1145;
},
{
layerId = "05F2EFEE-D68A-47EA-B1CB-1F079D4BE6D1";
paths = (
{
closed = 1;
nodes = (
"645 293 LINE",
"645 659 LINE",
"1012 659 LINE",
"1012 805 LINE",
"645 805 LINE",
"645 1171 LINE",
"498 1171 LINE",
"498 805 LINE",
"133 805 LINE",
"133 659 LINE",
"498 659 LINE",
"498 293 LINE",
"498 293 LINE"
);
}
);
width = 1144;
},
{
layerId = "482B5BA1-F14A-4795-881D-282E6E2A03D9";
paths = (
{
closed = 1;
nodes = (
"663 276 LINE",
"663 651 LINE",
"1042 651 LINE",
"1042 813 LINE",
"663 813 LINE",
"663 1188 LINE",
"499 1188 LINE",
"499 813 LINE",
"122 813 LINE",
"122 651 LINE",
"499 651 LINE",
"499 276 LINE",
"499 276 LINE"
);
}
);
width = 1165;
}
);
note = plus;
unicode = 002B;
},
{
glyphname = comma;
lastChange = "2020-08-17 13:41:11 +0000";
layers = (
{
layerId = "FFF31276-834F-49C0-8230-C5CBB7819B89";
paths = (
{
closed = 1;
nodes = (
"61 -315 LINE",
"186 -274 OFFCURVE",
"290 -102 OFFCURVE",
"290 0 QCURVE SMOOTH",
"290 80 OFFCURVE",
"227 150 OFFCURVE",
"186 150 QCURVE SMOOTH",
"157 150 OFFCURVE",
"131 115 OFFCURVE",
"131 86 QCURVE SMOOTH",
"131 59 OFFCURVE",
"180 20 OFFCURVE",
"227 -27 OFFCURVE",
"227 -61 QCURVE SMOOTH",
"227 -94 OFFCURVE",
"194 -178 OFFCURVE",
"122 -254 OFFCURVE",
"61 -270 QCURVE",
"61 -315 LINE",
"61 -315 LINE"
);
}
);
width = 397;
},
{
layerId = "28531FA7-6DEB-4C71-966B-2D248D7FC379";
paths = (
{
closed = 1;
nodes = (
"61 -315 LINE",
"217 -268 OFFCURVE",
"348 -72 OFFCURVE",
"348 47 QCURVE SMOOTH",
"348 131 OFFCURVE",
"268 213 OFFCURVE",
"215 213 QCURVE SMOOTH",
"170 213 OFFCURVE",
"116 162 OFFCURVE",
"116 117 QCURVE SMOOTH",
"116 82 OFFCURVE",
"155 43 OFFCURVE",
"204 12 OFFCURVE",
"243 -25 OFFCURVE",
"243 -53 QCURVE SMOOTH",
"243 -106 OFFCURVE",
"155 -219 OFFCURVE",
"61 -248 QCURVE",
"61 -315 LINE",
"61 -315 LINE"
);
}
);
width = 460;
},
{
layerId = "82773DB8-11CF-4E3D-BC1E-69725B5EFD97";
paths = (
{
closed = 1;
nodes = (
"397 86 LINE",
"397 86 LINE",
"397 86 LINE",
"397 86 LINE",
"397 129 OFFCURVE",
"372 196 OFFCURVE",
"328 241 OFFCURVE",
"272 264 OFFCURVE",
"240 264 QCURVE SMOOTH",
"183 264 OFFCURVE",
"106 202 OFFCURVE",
"106 143 QCURVE SMOOTH",
"106 112 OFFCURVE",
"128 71 OFFCURVE",
"162 43 OFFCURVE",
"200 23 OFFCURVE",
"234 2 OFFCURVE",
"256 -25 OFFCURVE",
"256 -45 QCURVE SMOOTH",
"256 -105 OFFCURVE",
"162 -197 OFFCURVE",
"61 -229 QCURVE",
"61 -315 LINE",
"153 -288 OFFCURVE",
"280 -205 OFFCURVE",
"361 -101 OFFCURVE",
"397 21 OFFCURVE",
"397 86 QCURVE",
"397 86 LINE"
);
}
);
userData = {
assembly = "NPUSHB[ ]	/* 14 values pushed */\0126 5 2 0 73 0 0 0 118 20 18 1 9 22 \012CALL[ ]	/* CallFunction */";
};
width = 512;
},
{
layerId = "05F2EFEE-D68A-47EA-B1CB-1F079D4BE6D1";
paths = (
{
closed = 1;
nodes = (
"92 -315 LINE",
"291 -262 OFFCURVE",
"459 -45 OFFCURVE",
"459 86 QCURVE SMOOTH",
"459 190 OFFCURVE",
"356 311 OFFCURVE",
"270 311 QCURVE SMOOTH",
"207 311 OFFCURVE",
"123 240 OFFCURVE",
"123 170 QCURVE SMOOTH",
"123 109 OFFCURVE",
"168 45 OFFCURVE",
"227 10 OFFCURVE",
"272 -20 OFFCURVE",
"272 -49 QCURVE SMOOTH",
"272 -109 OFFCURVE",
"180 -176 OFFCURVE",
"92 -209 QCURVE",
"92 -315 LINE",
"92 -315 LINE"
);
}
);
width = 602;
},
{
layerId = "482B5BA1-F14A-4795-881D-282E6E2A03D9";
paths = (
{
closed = 1;
nodes = (
"114 -315 LINE",
"327 -262 OFFCURVE",
"503 -45 OFFCURVE",
"503 86 QCURVE SMOOTH",
"503 205 OFFCURVE",
"407 346 OFFCURVE",
"304 346 QCURVE SMOOTH",
"237 346 OFFCURVE",
"134 266 OFFCURVE",
"134 190 QCURVE SMOOTH",
"134 119 OFFCURVE",
"180 43 OFFCURVE",
"239 6 OFFCURVE",
"284 -25 OFFCURVE",
"284 -51 QCURVE SMOOTH",
"284 -106 OFFCURVE",
"196 -162 OFFCURVE",
"114 -195 QCURVE",
"114 -315 LINE",
"114 -315 LINE"
);
}
);
width = 667;
}
);
note = comma;
unicode = 002C;
},
{
glyphname = hyphen;
lastChange = "2020-08-17 13:41:11 +0000";
layers = (
{
layerId = "FFF31276-834F-49C0-8230-C5CBB7819B89";
paths = (
{
closed = 1;
nodes = (
"583 530 LINE",
"583 588 LINE",
"51 588 LINE",
"51 530 LINE",
"51 530 LINE"
);
}
);
width = 634;
},
{
layerId = "28531FA7-6DEB-4C71-966B-2D248D7FC379";
paths = (
{
closed = 1;
nodes = (
"583 504 LINE",
"583 614 LINE",
"51 614 LINE",
"51 504 LINE",
"51 504 LINE"
);
}
);
width = 634;
},
{
layerId = "82773DB8-11CF-4E3D-BC1E-69725B5EFD97";
paths = (
{
closed = 1;
nodes = (
"584 481 LINE",
"584 635 LINE",
"51 635 LINE",
"51 481 LINE",
"51 481 LINE"
);
}
);
userData = {
assembly = "NPUSHB[ ]	/* 27 values pushed */\0120 0 1 1 0 87 0 0 0 1 95 2 1 1 0 1 79 0 0 0 3 0 3 17 3 9 23 \012CALL[ ]	/* CallFunction */";
};
width = 635;
},
{
layerId = "05F2EFEE-D68A-47EA-B1CB-1F079D4BE6D1";
paths = (
{
closed = 1;
nodes = (
"583 451 LINE",
"583 666 LINE",
"51 666 LINE",
"51 451 LINE",
"51 451 LINE"
);
}
);
width = 634;
},
{
layerId = "482B5BA1-F14A-4795-881D-282E6E2A03D9";
paths = (
{
closed = 1;
nodes = (
"583 428 LINE",
"583 688 LINE",
"51 688 LINE",
"51 428 LINE",
"51 428 LINE"
);
}
);
width = 634;
}
);
note = hyphen;
unicode = 002D;
},
{
glyphname = period;
lastChange = "2020-08-17 13:41:11 +0000";
layers = (
{
layerId = "FFF31276-834F-49C0-8230-C5CBB7819B89";
paths = (
{
closed = 1;
nodes = (
"198 -10 LINE",
"223 -10 OFFCURVE",
"258 25 OFFCURVE",
"258 72 QCURVE SMOOTH",
"258 119 OFFCURVE",
"223 150 OFFCURVE",
"198 150 QCURVE SMOOTH",
"176 150 OFFCURVE",
"139 119 OFFCURVE",
"139 72 QCURVE SMOOTH",
"139 25 OFFCURVE",
"176 -10 OFFCURVE",
"198 -10 QCURVE",
"198 -10 LINE"
);
}
);
width = 397;
},
{
layerId = "28531FA7-6DEB-4C71-966B-2D248D7FC379";
paths = (
{
closed = 1;
nodes = (
"229 -12 LINE",
"270 -12 OFFCURVE",
"328 37 OFFCURVE",
"328 100 QCURVE SMOOTH",
"328 164 OFFCURVE",
"270 213 OFFCURVE",
"229 213 QCURVE SMOOTH",
"188 213 OFFCURVE",
"133 164 OFFCURVE",
"133 100 QCURVE SMOOTH",
"133 37 OFFCURVE",
"188 -12 OFFCURVE",
"229 -12 QCURVE",
"229 -12 LINE"
);
}
);
width = 460;
},
{
layerId = "82773DB8-11CF-4E3D-BC1E-69725B5EFD97";
paths = (
{
closed = 1;
nodes = (
"127 125 LINE",
"127 125 LINE",
"127 125 LINE",
"127 125 LINE",
"127 86 OFFCURVE",
"147 32 OFFCURVE",
"182 0 OFFCURVE",
"229 -14 OFFCURVE",
"256 -14 QCURVE SMOOTH",
"282 -14 OFFCURVE",
"329 0 OFFCURVE",
"364 32 OFFCURVE",
"385 86 OFFCURVE",
"385 125 QCURVE SMOOTH",
"385 165 OFFCURVE",
"364 218 OFFCURVE",
"329 250 OFFCURVE",
"282 264 OFFCURVE",
"256 264 QCURVE SMOOTH",
"229 264 OFFCURVE",
"182 250 OFFCURVE",
"147 218 OFFCURVE",
"127 165 OFFCURVE",
"127 125 QCURVE",
"127 125 LINE"
);
}
);
userData = {
assembly = "NPUSHB[ ]	/* 16 values pushed */\0120 0 0 1 97 0 1 1 57 1 78 40 36 2 9 24 \012CALL[ ]	/* CallFunction */";
};
width = 512;
},
{
layerId = "05F2EFEE-D68A-47EA-B1CB-1F079D4BE6D1";
paths = (
{
closed = 1;
nodes = (
"301 -16 LINE",
"369 -16 OFFCURVE",
"469 55 OFFCURVE",
"469 147 QCURVE SMOOTH",
"469 242 OFFCURVE",
"369 311 OFFCURVE",
"301 311 QCURVE SMOOTH",
"229 311 OFFCURVE",
"133 242 OFFCURVE",
"133 147 QCURVE SMOOTH",
"133 55 OFFCURVE",
"229 -16 OFFCURVE",
"301 -16 QCURVE",
"301 -16 LINE"
);
}
);
width = 602;
},
{
layerId = "482B5BA1-F14A-4795-881D-282E6E2A03D9";
paths = (
{
closed = 1;
nodes = (
"334 -18 LINE",
"411 -18 OFFCURVE",
"530 61 OFFCURVE",
"530 164 QCURVE SMOOTH",
"530 268 OFFCURVE",
"411 346 OFFCURVE",
"334 346 QCURVE SMOOTH",
"250 346 OFFCURVE",
"137 268 OFFCURVE",
"137 164 QCURVE SMOOTH",
"137 61 OFFCURVE",
"250 -18 OFFCURVE",
"334 -18 QCURVE",
"334 -18 LINE"
);
}
);
width = 667;
}
);
note = period;
unicode = 002E;
},
{
glyphname = slash;
lastChange = "2020-08-17 13:41:11 +0000";
layers = (
{
layerId = "FFF31276-834F-49C0-8230-C5CBB7819B89";
paths = (
{
closed = 1;
nodes = (
"59 -248 LINE",
"590 1556 LINE",
"530 1556 LINE",
"0 -248 LINE",
"0 -248 LINE"
);
}
);
width = 589;
},
{
layerId = "28531FA7-6DEB-4C71-966B-2D248D7FC379";
paths = (
{
closed = 1;
nodes = (
"92 -248 LINE",
"590 1556 LINE",
"498 1556 LINE",
"0 -248 LINE",
"0 -248 LINE"
);
}
);
width = 589;
},
{
layerId = "82773DB8-11CF-4E3D-BC1E-69725B5EFD97";
paths = (
{
closed = 1;
nodes = (
"590 1556 LINE",
"471 1556 LINE",
"0 -248 LINE",
"121 -248 LINE",
"121 -248 LINE"
);
}
);
userData = {
assembly = "NPUSHB[ ]	/* 16 values pushed */\0120 0 1 0 134 0 1 1 52 1 78 17 16 2 9 24 \012CALL[ ]	/* CallFunction */";
};
width = 590;
},
{
layerId = "05F2EFEE-D68A-47EA-B1CB-1F079D4BE6D1";
paths = (
{
closed = 1;
nodes = (
"147 -250 LINE",
"590 1556 LINE",
"446 1556 LINE",
"0 -248 LINE",
"0 -248 LINE"
);
}
);
width = 589;
},
{
layerId = "482B5BA1-F14A-4795-881D-282E6E2A03D9";
paths = (
{
closed = 1;
nodes = (
"168 -248 LINE",
"590 1556 LINE",
"428 1556 LINE",
"0 -248 LINE",
"0 -248 LINE"
);
}
);
width = 589;
}
);
note = slash;
unicode = 002F;
},
{
glyphname = zero;
lastChange = "2020-08-17 13:41:11 +0000";
layers = (
{
layerId = "FFF31276-834F-49C0-8230-C5CBB7819B89";
paths = (
{
closed = 1;
nodes = (
"573 -20 LINE",
"1023 -20 OFFCURVE",
"1023 733 QCURVE SMOOTH",
"1023 1118 OFFCURVE",
"798 1483 OFFCURVE",
"575 1483 QCURVE SMOOTH",
"339 1483 OFFCURVE",
"120 1112 OFFCURVE",
"120 735 QCURVE SMOOTH",
"120 344 OFFCURVE",
"341 -20 OFFCURVE",
"573 -20 QCURVE",
"573 -20 LINE"
);
},
{
closed = 1;
nodes = (
"571 31 LINE",
"364 31 OFFCURVE",
"177 369 OFFCURVE",
"177 733 QCURVE SMOOTH",
"177 1071 OFFCURVE",
"349 1432 OFFCURVE",
"573 1432 QCURVE SMOOTH",
"788 1432 OFFCURVE",
"966 1081 OFFCURVE",
"966 733 QCURVE SMOOTH",
"966 381 OFFCURVE",
"777 31 OFFCURVE",
"571 31 QCURVE",
"571 31 LINE"
);
}
);
width = 1144;
},
{
layerId = "28531FA7-6DEB-4C71-966B-2D248D7FC379";
paths = (
{
closed = 1;
nodes = (
"573 -20 LINE",
"806 -20 OFFCURVE",
"1040 377 OFFCURVE",
"1040 733 QCURVE SMOOTH",
"1040 1094 OFFCURVE",
"806 1483 OFFCURVE",
"575 1483 QCURVE SMOOTH",
"327 1483 OFFCURVE",
"104 1092 OFFCURVE",
"104 735 QCURVE SMOOTH",
"104 371 OFFCURVE",
"329 -20 OFFCURVE",
"573 -20 QCURVE",
"573 -20 LINE"
);
},
{
closed = 1;
nodes = (
"573 63 LINE",
"397 63 OFFCURVE",
"247 401 OFFCURVE",
"247 733 QCURVE SMOOTH",
"247 1053 OFFCURVE",
"391 1399 OFFCURVE",
"575 1399 QCURVE SMOOTH",
"753 1399 OFFCURVE",
"897 1057 OFFCURVE",
"897 733 QCURVE SMOOTH",
"897 408 OFFCURVE",
"749 63 OFFCURVE",
"573 63 QCURVE",
"573 63 LINE"
);
}
);
width = 1144;
},
{
layerId = "82773DB8-11CF-4E3D-BC1E-69725B5EFD97";
paths = (
{
closed = 1;
nodes = (
"1053 733 LINE",
"1053 733 LINE",
"1053 733 LINE",
"1053 733 LINE",
"1053 904 OFFCURVE",
"994 1181 OFFCURVE",
"874 1377 OFFCURVE",
"695 1483 OFFCURVE",
"575 1483 QCURVE SMOOTH",
"448 1483 OFFCURVE",
"265 1377 OFFCURVE",
"148 1181 OFFCURVE",
"92 905 OFFCURVE",
"92 735 QCURVE SMOOTH",
"92 565 OFFCURVE",
"148 286 OFFCURVE",
"265 88 OFFCURVE",
"447 -20 OFFCURVE",
"573 -20 QCURVE SMOOTH",
"694 -20 OFFCURVE",
"874 88 OFFCURVE",
"994 286 OFFCURVE",
"1053 564 OFFCURVE",
"1053 733 QCURVE",
"1053 733 LINE"
);
},
{
closed = 1;
nodes = (
"305 733 LINE",
"305 733 LINE",
"305 733 LINE",
"305 733 LINE",
"305 885 OFFCURVE",
"333 1123 OFFCURVE",
"397 1287 OFFCURVE",
"500 1372 OFFCURVE",
"575 1372 QCURVE SMOOTH",
"649 1372 OFFCURVE",
"750 1287 OFFCURVE",
"813 1123 OFFCURVE",
"840 885 OFFCURVE",
"840 733 QCURVE SMOOTH",
"840 581 OFFCURVE",
"813 342 OFFCURVE",
"750 177 OFFCURVE",
"648 90 OFFCURVE",
"573 90 QCURVE SMOOTH",
"499 90 OFFCURVE",
"396 177 OFFCURVE",
"333 342 OFFCURVE",
"305 581 OFFCURVE",
"305 733 QCURVE",
"305 733 LINE"
);
}
);
userData = {
assembly = "NPUSHB[ ]	/* 28 values pushed */\0120 3 3 1 97 0 1 1 56 77 0 2 2 0 97 0 0 0 57 0 78 40 44 40 36 4 9 26 \012CALL[ ]	/* CallFunction */";
};
width = 1145;
},
{
layerId = "05F2EFEE-D68A-47EA-B1CB-1F079D4BE6D1";
paths = (
{
closed = 1;
nodes = (
"573 -20 LINE",
"751 -20 OFFCURVE",
"972 168 OFFCURVE",
"1075 506 OFFCURVE",
"1075 733 QCURVE SMOOTH",
"1075 961 OFFCURVE",
"972 1298 OFFCURVE",
"753 1483 OFFCURVE",
"575 1483 QCURVE SMOOTH",
"386 1483 OFFCURVE",
"165 1298 OFFCURVE",
"69 963 OFFCURVE",
"69 735 QCURVE SMOOTH",
"69 508 OFFCURVE",
"165 168 OFFCURVE",
"384 -20 OFFCURVE",
"573 -20 QCURVE",
"573 -20 LINE"
);
},
{
closed = 1;
nodes = (
"573 113 LINE",
"458 113 OFFCURVE",
"386 440 OFFCURVE",
"386 733 QCURVE SMOOTH",
"386 1026 OFFCURVE",
"460 1350 OFFCURVE",
"575 1350 QCURVE SMOOTH",
"687 1350 OFFCURVE",
"757 1026 OFFCURVE",
"757 733 QCURVE SMOOTH",
"757 440 OFFCURVE",
"687 113 OFFCURVE",
"573 113 QCURVE",
"573 113 LINE"
);
}
);
width = 1144;
},
{
layerId = "482B5BA1-F14A-4795-881D-282E6E2A03D9";
paths = (
{
closed = 1;
nodes = (
"583 -20 LINE",
"774 -20 OFFCURVE",
"1001 168 OFFCURVE",
"1101 506 OFFCURVE",
"1101 733 QCURVE SMOOTH",
"1101 961 OFFCURVE",
"1003 1298 OFFCURVE",
"776 1483 OFFCURVE",
"585 1483 QCURVE SMOOTH",
"385 1483 OFFCURVE",
"155 1298 OFFCURVE",
"63 963 OFFCURVE",
"63 735 QCURVE SMOOTH",
"63 508 OFFCURVE",
"155 168 OFFCURVE",
"382 -20 OFFCURVE",
"583 -20 QCURVE",
"583 -20 LINE"
);
},
{
closed = 1;
nodes = (
"583 129 LINE",
"524 129 OFFCURVE",
"471 272 OFFCURVE",
"456 543 OFFCURVE",
"456 733 QCURVE SMOOTH",
"456 924 OFFCURVE",
"471 1192 OFFCURVE",
"524 1333 OFFCURVE",
"585 1333 QCURVE SMOOTH",
"643 1333 OFFCURVE",
"694 1192 OFFCURVE",
"706 924 OFFCURVE",
"706 733 QCURVE SMOOTH",
"706 543 OFFCURVE",
"694 272 OFFCURVE",
"643 129 OFFCURVE",
"583 129 QCURVE",
"583 129 LINE"
);
}
);
width = 1165;
}
);
note = zero;
unicode = 0030;
},
{
glyphname = one;
lastChange = "2020-08-17 13:41:11 +0000";
layers = (
{
layerId = "FFF31276-834F-49C0-8230-C5CBB7819B89";
paths = (
{
closed = 1;
nodes = (
"258 0 LINE",
"956 0 LINE",
"956 45 LINE",
"753 45 LINE SMOOTH",
"702 45 OFFCURVE",
"653 68 OFFCURVE",
"639 143 OFFCURVE",
"639 221 QCURVE SMOOTH",
"639 1470 LINE",
"598 1470 LINE",
"534 1397 LINE SMOOTH",
"450 1300 OFFCURVE",
"286 1192 OFFCURVE",
"180 1184 QCURVE",
"180 1167 OFFCURVE",
"209 1143 OFFCURVE",
"246 1143 QCURVE SMOOTH",
"317 1143 OFFCURVE",
"479 1249 OFFCURVE",
"581 1382 QCURVE",
"581 221 LINE SMOOTH",
"581 143 OFFCURVE",
"567 68 OFFCURVE",
"518 45 OFFCURVE",
"467 45 QCURVE SMOOTH",
"258 45 LINE",
"258 0 LINE",
"258 0 LINE"
);
}
);
width = 1144;
},
{
layerId = "28531FA7-6DEB-4C71-966B-2D248D7FC379";
paths = (
{
closed = 1;
nodes = (
"225 0 LINE",
"966 0 LINE",
"966 68 LINE",
"821 68 LINE SMOOTH",
"747 68 OFFCURVE",
"677 121 OFFCURVE",
"677 227 QCURVE SMOOTH",
"677 1470 LINE",
"587 1470 LINE",
"479 1378 LINE SMOOTH",
"386 1294 OFFCURVE",
"237 1208 OFFCURVE",
"155 1196 QCURVE",
"155 1163 OFFCURVE",
"200 1116 OFFCURVE",
"241 1116 QCURVE SMOOTH",
"307 1116 OFFCURVE",
"448 1229 OFFCURVE",
"538 1341 QCURVE",
"538 227 LINE SMOOTH",
"538 121 OFFCURVE",
"466 68 OFFCURVE",
"395 68 QCURVE SMOOTH",
"225 68 LINE",
"225 0 LINE",
"225 0 LINE"
);
}
);
width = 1144;
},
{
layerId = "82773DB8-11CF-4E3D-BC1E-69725B5EFD97";
paths = (
{
closed = 1;
nodes = (
"197 0 LINE",
"197 0 LINE",
"197 0 LINE",
"197 0 LINE",
"977 0 LINE",
"977 86 LINE",
"877 86 LINE SMOOTH",
"842 86 OFFCURVE",
"781 96 OFFCURVE",
"735 127 OFFCURVE",
"709 185 OFFCURVE",
"709 233 QCURVE SMOOTH",
"709 1470 LINE",
"578 1470 LINE",
"434 1364 LINE SMOOTH",
"383 1327 OFFCURVE",
"300 1274 OFFCURVE",
"229 1237 OFFCURVE",
"166 1214 OFFCURVE",
"135 1206 QCURVE",
"135 1157 OFFCURVE",
"193 1096 OFFCURVE",
"238 1096 QCURVE SMOOTH",
"268 1096 OFFCURVE",
"329 1127 OFFCURVE",
"393 1183 OFFCURVE",
"463 1261 OFFCURVE",
"502 1309 QCURVE",
"502 233 LINE SMOOTH",
"502 185 OFFCURVE",
"475 127 OFFCURVE",
"430 96 OFFCURVE",
"369 86 OFFCURVE",
"334 86 QCURVE SMOOTH",
"197 86 LINE",
"197 0 LINE",
"197 0 LINE"
);
}
);
userData = {
assembly = "NPUSHB[ ]	/* 40 values pushed */\01216 8 2 1 2 1 76 0 1 2 0 2 1 0 128 0 2 2 50 77 3 1 0 0 4 95 0 4 4 51 4 78 17 37 24 41 33 5 9 27 \012CALL[ ]	/* CallFunction */";
};
width = 1145;
},
{
layerId = "05F2EFEE-D68A-47EA-B1CB-1F079D4BE6D1";
paths = (
{
closed = 1;
nodes = (
"199 0 LINE",
"1044 0 LINE",
"1044 109 LINE",
"879 109 LINE SMOOTH",
"815 109 OFFCURVE",
"774 176 OFFCURVE",
"774 242 QCURVE SMOOTH",
"774 1470 LINE",
"545 1470 LINE",
"401 1364 LINE SMOOTH",
"299 1288 OFFCURVE",
"147 1221 OFFCURVE",
"86 1206 QCURVE",
"86 1137 OFFCURVE",
"156 1055 OFFCURVE",
"205 1055 QCURVE SMOOTH",
"266 1055 OFFCURVE",
"391 1171 OFFCURVE",
"469 1268 QCURVE",
"469 242 LINE SMOOTH",
"469 164 OFFCURVE",
"418 109 OFFCURVE",
"367 109 QCURVE SMOOTH",
"199 109 LINE",
"199 0 LINE",
"199 0 LINE"
);
}
);
width = 1144;
},
{
layerId = "482B5BA1-F14A-4795-881D-282E6E2A03D9";
paths = (
{
closed = 1;
nodes = (
"168 0 LINE",
"1083 0 LINE",
"1083 125 LINE",
"929 125 LINE SMOOTH",
"870 125 OFFCURVE",
"831 207 OFFCURVE",
"831 248 QCURVE SMOOTH",
"831 1470 LINE",
"530 1470 LINE",
"387 1364 LINE SMOOTH",
"286 1288 OFFCURVE",
"120 1221 OFFCURVE",
"59 1206 QCURVE",
"59 1122 OFFCURVE",
"139 1024 OFFCURVE",
"190 1024 QCURVE SMOOTH",
"252 1024 OFFCURVE",
"376 1143 OFFCURVE",
"454 1237 QCURVE",
"454 248 LINE SMOOTH",
"454 125 OFFCURVE",
"358 125 QCURVE SMOOTH",
"168 125 LINE",
"168 0 LINE",
"168 0 LINE"
);
}
);
width = 1165;
}
);
note = one;
unicode = 0031;
},
{
glyphname = two;
lastChange = "2020-08-17 13:41:11 +0000";
layers = (
{
layerId = "FFF31276-834F-49C0-8230-C5CBB7819B89";
paths = (
{
closed = 1;
nodes = (
"116 0 LINE",
"960 0 LINE",
"970 260 LINE",
"929 260 LINE",
"925 195 LINE SMOOTH",
"921 109 OFFCURVE",
"880 51 OFFCURVE",
"800 51 QCURVE SMOOTH",
"188 51 LINE",
"591 510 LINE SMOOTH",
"700 635 OFFCURVE",
"843 817 OFFCURVE",
"911 991 OFFCURVE",
"911 1108 QCURVE SMOOTH",
"911 1204 OFFCURVE",
"831 1374 OFFCURVE",
"659 1483 OFFCURVE",
"519 1483 QCURVE SMOOTH",
"395 1483 OFFCURVE",
"233 1399 OFFCURVE",
"155 1282 OFFCURVE",
"155 1233 QCURVE SMOOTH",
"155 1155 OFFCURVE",
"202 1155 QCURVE",
"202 1286 OFFCURVE",
"368 1432 OFFCURVE",
"519 1432 QCURVE SMOOTH",
"646 1432 OFFCURVE",
"792 1329 OFFCURVE",
"853 1180 OFFCURVE",
"853 1104 QCURVE SMOOTH",
"853 1001 OFFCURVE",
"788 836 OFFCURVE",
"646 651 OFFCURVE",
"530 518 QCURVE SMOOTH",
"116 45 LINE",
"116 0 LINE",
"116 0 LINE"
);
}
);
width = 1144;
},
{
layerId = "28531FA7-6DEB-4C71-966B-2D248D7FC379";
paths = (
{
closed = 1;
nodes = (
"120 0 LINE",
"984 0 LINE",
"994 311 LINE",
"929 311 LINE",
"923 262 LINE SMOOTH",
"913 190 OFFCURVE",
"859 113 OFFCURVE",
"771 113 QCURVE SMOOTH",
"235 113 LINE",
"607 530 LINE SMOOTH",
"716 651 OFFCURVE",
"863 844 OFFCURVE",
"939 1022 OFFCURVE",
"939 1126 QCURVE SMOOTH",
"939 1225 OFFCURVE",
"849 1386 OFFCURVE",
"669 1483 OFFCURVE",
"536 1483 QCURVE SMOOTH",
"407 1483 OFFCURVE",
"235 1405 OFFCURVE",
"151 1284 OFFCURVE",
"151 1219 QCURVE SMOOTH",
"151 1159 OFFCURVE",
"218 1112 OFFCURVE",
"267 1112 QCURVE",
"267 1237 OFFCURVE",
"390 1403 OFFCURVE",
"536 1403 QCURVE SMOOTH",
"632 1403 OFFCURVE",
"749 1321 OFFCURVE",
"800 1188 OFFCURVE",
"800 1112 QCURVE SMOOTH",
"800 1016 OFFCURVE",
"741 848 OFFCURVE",
"605 662 OFFCURVE",
"495 532 QCURVE SMOOTH",
"120 102 LINE",
"120 0 LINE",
"120 0 LINE"
);
}
);
width = 1144;
},
{
layerId = "82773DB8-11CF-4E3D-BC1E-69725B5EFD97";
paths = (
{
closed = 1;
nodes = (
"944 1141 LINE",
"944 1141 LINE",
"944 1141 LINE",
"944 1141 LINE",
"944 1219 OFFCURVE",
"887 1345 OFFCURVE",
"779 1434 OFFCURVE",
"625 1483 OFFCURVE",
"528 1483 QCURVE SMOOTH",
"429 1483 OFFCURVE",
"279 1442 OFFCURVE",
"178 1368 OFFCURVE",
"127 1267 OFFCURVE",
"127 1208 QCURVE SMOOTH",
"127 1169 OFFCURVE",
"154 1118 OFFCURVE",
"202 1087 OFFCURVE",
"266 1075 OFFCURVE",
"303 1075 QCURVE",
"303 1136 OFFCURVE",
"321 1246 OFFCURVE",
"371 1330 OFFCURVE",
"458 1380 OFFCURVE",
"528 1380 QCURVE SMOOTH",
"582 1380 OFFCURVE",
"661 1343 OFFCURVE",
"712 1274 OFFCURVE",
"737 1179 OFFCURVE",
"737 1120 QCURVE SMOOTH",
"737 1050 OFFCURVE",
"707 923 OFFCURVE",
"639 790 OFFCURVE",
"528 640 OFFCURVE",
"446 545 QCURVE SMOOTH",
"104 150 LINE",
"104 0 LINE",
"985 0 LINE",
"995 354 LINE",
"909 354 LINE",
"901 317 LINE SMOOTH",
"894 287 OFFCURVE",
"873 232 OFFCURVE",
"835 190 OFFCURVE",
"775 164 OFFCURVE",
"729 164 QCURVE SMOOTH",
"256 164 LINE",
"602 547 LINE SMOOTH",
"683 636 OFFCURVE",
"810 790 OFFCURVE",
"898 933 OFFCURVE",
"944 1069 OFFCURVE",
"944 1141 QCURVE",
"944 1141 LINE"
);
}
);
userData = {
assembly = "PUSHB[ ]	/* 6 values pushed */\01217 1 2 0 1 76 \012MPPEM[ ]	/* MeasurePixelPerEm */\012PUSHB[ ]	/* 1 value pushed */\01214 \012LT[ ]	/* LessThan */\012IF[ ]	/* If */\012NPUSHB[ ]	/* 35 values pushed */\0120 4 3 1 3 4 1 128 0 1 0 0 1 112 0 3 3 5 97 0 5 5 56 77 0 0 0 2 96 0 2 2 51 2 78 \012ELSE[ ]	/* Else */\012NPUSHB[ ]	/* 36 values pushed */\0120 4 3 1 3 4 1 128 0 1 0 3 1 0 126 0 3 3 5 97 0 5 5 56 77 0 0 0 2 96 0 2 2 51 2 78 \012EIF[ ]	/* EndIf */\012NPUSHB[ ]	/* 9 values pushed */\01240 20 43 17 21 38 6 9 28 \012CALL[ ]	/* CallFunction */";
};
width = 1145;
},
{
layerId = "05F2EFEE-D68A-47EA-B1CB-1F079D4BE6D1";
paths = (
{
closed = 1;
nodes = (
"71 0 LINE",
"1040 0 LINE",
"1050 430 LINE",
"929 430 LINE",
"913 367 LINE SMOOTH",
"874 225 OFFCURVE",
"743 225 QCURVE SMOOTH",
"266 225 LINE",
"470 420 LINE SMOOTH",
"624 565 OFFCURVE",
"829 776 OFFCURVE",
"948 936 OFFCURVE",
"999 1071 OFFCURVE",
"999 1143 QCURVE SMOOTH",
"999 1300 OFFCURVE",
"759 1483 OFFCURVE",
"530 1483 QCURVE SMOOTH",
"380 1483 OFFCURVE",
"180 1405 OFFCURVE",
"79 1280 OFFCURVE",
"79 1206 QCURVE SMOOTH",
"79 1096 OFFCURVE",
"225 1004 OFFCURVE",
"341 1004 QCURVE",
"341 1180 OFFCURVE",
"425 1358 OFFCURVE",
"530 1358 QCURVE SMOOTH",
"603 1358 OFFCURVE",
"689 1249 OFFCURVE",
"689 1133 QCURVE SMOOTH",
"689 1026 OFFCURVE",
"636 846 OFFCURVE",
"499 649 OFFCURVE",
"374 520 QCURVE SMOOTH",
"71 211 LINE",
"71 0 LINE",
"71 0 LINE"
);
}
);
width = 1144;
},
{
layerId = "482B5BA1-F14A-4795-881D-282E6E2A03D9";
paths = (
{
closed = 1;
nodes = (
"65 0 LINE",
"1091 0 LINE",
"1101 485 LINE",
"954 485 LINE",
"931 403 LINE SMOOTH",
"911 330 OFFCURVE",
"804 270 OFFCURVE",
"763 270 QCURVE SMOOTH",
"325 270 LINE",
"395 326 LINE SMOOTH",
"569 465 OFFCURVE",
"806 674 OFFCURVE",
"950 831 OFFCURVE",
"1026 956 OFFCURVE",
"1050 1067 OFFCURVE",
"1050 1124 QCURVE SMOOTH",
"1050 1284 OFFCURVE",
"798 1483 OFFCURVE",
"542 1483 QCURVE SMOOTH",
"380 1483 OFFCURVE",
"167 1391 OFFCURVE",
"65 1253 OFFCURVE",
"65 1182 QCURVE SMOOTH",
"65 1098 OFFCURVE",
"153 1004 OFFCURVE",
"294 969 OFFCURVE",
"374 969 QCURVE",
"374 1112 OFFCURVE",
"415 1274 OFFCURVE",
"491 1341 OFFCURVE",
"542 1341 QCURVE SMOOTH",
"589 1341 OFFCURVE",
"665 1253 OFFCURVE",
"665 1126 QCURVE SMOOTH",
"665 1020 OFFCURVE",
"610 838 OFFCURVE",
"466 637 OFFCURVE",
"331 502 QCURVE SMOOTH",
"65 236 LINE",
"65 0 LINE",
"65 0 LINE"
);
}
);
width = 1165;
}
);
note = two;
unicode = 0032;
},
{
glyphname = three;
lastChange = "2020-08-17 13:41:11 +0000";
layers = (
{
layerId = "FFF31276-834F-49C0-8230-C5CBB7819B89";
paths = (
{
closed = 1;
nodes = (
"520 -18 LINE",
"643 -18 OFFCURVE",
"840 72 OFFCURVE",
"956 252 OFFCURVE",
"956 385 QCURVE SMOOTH",
"956 522 OFFCURVE",
"846 684 OFFCURVE",
"680 762 OFFCURVE",
"596 770 QCURVE",
"667 788 OFFCURVE",
"811 868 OFFCURVE",
"905 1018 OFFCURVE",
"905 1139 QCURVE SMOOTH",
"905 1296 OFFCURVE",
"708 1483 OFFCURVE",
"538 1483 QCURVE SMOOTH",
"418 1483 OFFCURVE",
"258 1405 OFFCURVE",
"180 1290 OFFCURVE",
"180 1237 QCURVE SMOOTH",
"180 1204 OFFCURVE",
"201 1165 OFFCURVE",
"223 1165 QCURVE",
"225 1290 OFFCURVE",
"393 1432 OFFCURVE",
"536 1432 QCURVE SMOOTH",
"680 1432 OFFCURVE",
"848 1278 OFFCURVE",
"848 1141 QCURVE SMOOTH",
"848 973 OFFCURVE",
"624 793 OFFCURVE",
"448 793 QCURVE SMOOTH",
"405 793 LINE",
"405 741 LINE",
"452 741 LINE SMOOTH",
"682 741 OFFCURVE",
"899 557 OFFCURVE",
"899 387 QCURVE SMOOTH",
"899 213 OFFCURVE",
"684 33 OFFCURVE",
"516 33 QCURVE SMOOTH",
"338 33 OFFCURVE",
"182 170 OFFCURVE",
"182 279 QCURVE",
"166 279 OFFCURVE",
"135 250 OFFCURVE",
"135 209 QCURVE SMOOTH",
"135 154 OFFCURVE",
"217 49 OFFCURVE",
"387 -18 OFFCURVE",
"520 -18 QCURVE",
"520 -18 LINE"
);
}
);
width = 1144;
},
{
layerId = "28531FA7-6DEB-4C71-966B-2D248D7FC379";
paths = (
{
closed = 1;
nodes = (
"511 -20 LINE",
"630 -20 OFFCURVE",
"853 66 OFFCURVE",
"994 254 OFFCURVE",
"994 403 QCURVE SMOOTH",
"994 506 OFFCURVE",
"925 643 OFFCURVE",
"812 727 OFFCURVE",
"683 770 OFFCURVE",
"624 776 QCURVE",
"708 797 OFFCURVE",
"853 891 OFFCURVE",
"943 1042 OFFCURVE",
"943 1149 QCURVE SMOOTH",
"943 1307 OFFCURVE",
"724 1483 OFFCURVE",
"542 1483 QCURVE SMOOTH",
"413 1483 OFFCURVE",
"243 1407 OFFCURVE",
"159 1288 OFFCURVE",
"159 1221 QCURVE SMOOTH",
"159 1163 OFFCURVE",
"224 1116 OFFCURVE",
"276 1116 QCURVE",
"276 1239 OFFCURVE",
"398 1403 OFFCURVE",
"540 1403 QCURVE SMOOTH",
"669 1403 OFFCURVE",
"802 1262 OFFCURVE",
"802 1133 QCURVE SMOOTH",
"802 977 OFFCURVE",
"599 801 OFFCURVE",
"443 801 QCURVE SMOOTH",
"388 801 LINE",
"388 721 LINE",
"445 721 LINE SMOOTH",
"644 721 OFFCURVE",
"851 553 OFFCURVE",
"851 406 QCURVE SMOOTH",
"851 287 OFFCURVE",
"761 135 OFFCURVE",
"605 63 OFFCURVE",
"511 63 QCURVE SMOOTH",
"362 63 OFFCURVE",
"216 203 OFFCURVE",
"216 311 QCURVE",
"177 311 OFFCURVE",
"126 258 OFFCURVE",
"126 207 QCURVE SMOOTH",
"126 150 OFFCURVE",
"206 45 OFFCURVE",
"376 -20 OFFCURVE",
"511 -20 QCURVE",
"511 -20 LINE"
);
}
);
width = 1144;
},
{
layerId = "82773DB8-11CF-4E3D-BC1E-69725B5EFD97";
paths = (
{
closed = 1;
nodes = (
"508 90 LINE",
"508 90 LINE",
"508 90 LINE",
"508 90 LINE",
"446 90 OFFCURVE",
"349 127 OFFCURVE",
"283 193 OFFCURVE",
"248 284 OFFCURVE",
"248 338 QCURVE",
"189 338 OFFCURVE",
"119 269 OFFCURVE",
"119 207 QCURVE SMOOTH",
"119 162 OFFCURVE",
"164 79 OFFCURVE",
"259 17 OFFCURVE",
"405 -20 OFFCURVE",
"506 -20 QCURVE SMOOTH",
"565 -20 OFFCURVE",
"687 -1 OFFCURVE",
"803 41 OFFCURVE",
"905 109 OFFCURVE",
"982 206 OFFCURVE",
"1026 336 OFFCURVE",
"1026 418 QCURVE SMOOTH",
"1026 486 OFFCURVE",
"991 589 OFFCURVE",
"932 667 OFFCURVE",
"855 721 OFFCURVE",
"771 757 OFFCURVE",
"685 776 OFFCURVE",
"647 780 QCURVE",
"718 797 OFFCURVE",
"838 867 OFFCURVE",
"926 966 OFFCURVE",
"975 1088 OFFCURVE",
"975 1157 QCURVE SMOOTH",
"975 1235 OFFCURVE",
"913 1356 OFFCURVE",
"800 1439 OFFCURVE",
"642 1483 OFFCURVE",
"545 1483 QCURVE SMOOTH",
"446 1483 OFFCURVE",
"296 1442 OFFCURVE",
"194 1368 OFFCURVE",
"143 1267 OFFCURVE",
"143 1208 QCURVE SMOOTH",
"143 1169 OFFCURVE",
"170 1118 OFFCURVE",
"218 1087 OFFCURVE",
"282 1075 OFFCURVE",
"319 1075 QCURVE",
"319 1136 OFFCURVE",
"337 1246 OFFCURVE",
"387 1330 OFFCURVE",
"475 1380 OFFCURVE",
"545 1380 QCURVE SMOOTH",
"604 1380 OFFCURVE",
"687 1346 OFFCURVE",
"740 1280 OFFCURVE",
"764 1186 OFFCURVE",
"764 1126 QCURVE SMOOTH",
"764 1053 OFFCURVE",
"714 936 OFFCURVE",
"627 854 OFFCURVE",
"510 809 OFFCURVE",
"442 809 QCURVE SMOOTH",
"377 809 LINE",
"377 705 LINE",
"442 705 LINE SMOOTH",
"528 705 OFFCURVE",
"666 664 OFFCURVE",
"762 590 OFFCURVE",
"813 485 OFFCURVE",
"813 420 QCURVE SMOOTH",
"813 328 OFFCURVE",
"763 202 OFFCURVE",
"679 124 OFFCURVE",
"569 90 OFFCURVE",
"508 90 QCURVE",
"508 90 LINE"
);
}
);
userData = {
assembly = "NPUSHB[ ]	/* 75 values pushed */\01248 1 1 2 1 76 0 4 3 2 3 4 2 128 0 7 1 0 1 7 0 128 0 2 0 1 7 2 1 105 0 3 3 5 97 0 5 5 56 77 8 1 0 0 6 97 0 6 6 57 6 78 1 0 70 69 63 61 39 37 29 28 24 22 14 12 11 9 0 78 1 74 9 9 22 \012CALL[ ]	/* CallFunction */";
};
width = 1145;
},
{
layerId = "05F2EFEE-D68A-47EA-B1CB-1F079D4BE6D1";
paths = (
{
closed = 1;
nodes = (
"497 -20 LINE",
"604 -20 OFFCURVE",
"800 25 OFFCURVE",
"958 127 OFFCURVE",
"1050 297 OFFCURVE",
"1050 422 QCURVE SMOOTH",
"1050 541 OFFCURVE",
"936 686 OFFCURVE",
"768 766 OFFCURVE",
"686 780 QCURVE",
"819 825 OFFCURVE",
"999 1012 OFFCURVE",
"999 1149 QCURVE SMOOTH",
"999 1309 OFFCURVE",
"745 1483 OFFCURVE",
"526 1483 QCURVE SMOOTH",
"303 1483 OFFCURVE",
"73 1331 OFFCURVE",
"73 1223 QCURVE SMOOTH",
"73 1128 OFFCURVE",
"213 1040 OFFCURVE",
"340 1040 QCURVE",
"340 1120 OFFCURVE",
"366 1266 OFFCURVE",
"442 1358 OFFCURVE",
"516 1358 QCURVE SMOOTH",
"598 1358 OFFCURVE",
"686 1231 OFFCURVE",
"686 1120 QCURVE SMOOTH",
"686 985 OFFCURVE",
"557 819 OFFCURVE",
"426 819 QCURVE SMOOTH",
"290 819 LINE",
"290 692 LINE",
"417 692 LINE SMOOTH",
"571 692 OFFCURVE",
"735 541 OFFCURVE",
"735 424 QCURVE SMOOTH",
"735 307 OFFCURVE",
"665 176 OFFCURVE",
"549 123 OFFCURVE",
"483 123 QCURVE SMOOTH",
"370 123 OFFCURVE",
"231 254 OFFCURVE",
"231 385 QCURVE",
"159 385 OFFCURVE",
"57 303 OFFCURVE",
"57 225 QCURVE SMOOTH",
"57 160 OFFCURVE",
"149 49 OFFCURVE",
"344 -20 OFFCURVE",
"497 -20 QCURVE",
"497 -20 LINE"
);
}
);
width = 1144;
},
{
layerId = "482B5BA1-F14A-4795-881D-282E6E2A03D9";
paths = (
{
closed = 1;
nodes = (
"508 -20 LINE",
"668 -20 OFFCURVE",
"936 61 OFFCURVE",
"1100 256 OFFCURVE",
"1100 424 QCURVE SMOOTH",
"1100 528 OFFCURVE",
"995 674 OFFCURVE",
"831 760 OFFCURVE",
"745 780 QCURVE",
"872 831 OFFCURVE",
"1049 1004 OFFCURVE",
"1049 1143 QCURVE SMOOTH",
"1049 1307 OFFCURVE",
"778 1483 OFFCURVE",
"543 1483 QCURVE SMOOTH",
"381 1483 OFFCURVE",
"172 1401 OFFCURVE",
"70 1274 OFFCURVE",
"70 1204 QCURVE SMOOTH",
"70 1100 OFFCURVE",
"229 1014 OFFCURVE",
"362 1014 QCURVE",
"362 1094 OFFCURVE",
"395 1245 OFFCURVE",
"467 1341 OFFCURVE",
"526 1341 QCURVE SMOOTH",
"584 1341 OFFCURVE",
"659 1219 OFFCURVE",
"659 1116 QCURVE SMOOTH",
"659 1032 OFFCURVE",
"625 901 OFFCURVE",
"532 827 OFFCURVE",
"444 827 QCURVE SMOOTH",
"279 827 LINE",
"279 684 LINE",
"430 684 LINE SMOOTH",
"569 684 OFFCURVE",
"709 535 OFFCURVE",
"709 426 QCURVE SMOOTH",
"709 311 OFFCURVE",
"649 193 OFFCURVE",
"553 147 OFFCURVE",
"496 147 QCURVE SMOOTH",
"393 147 OFFCURVE",
"250 293 OFFCURVE",
"250 440 QCURVE",
"170 440 OFFCURVE",
"43 350 OFFCURVE",
"43 260 QCURVE SMOOTH",
"43 180 OFFCURVE",
"135 53 OFFCURVE",
"340 -20 OFFCURVE",
"508 -20 QCURVE",
"508 -20 LINE"
);
}
);
width = 1165;
}
);
note = three;
unicode = 0033;
},
{
glyphname = four;
lastChange = "2020-08-17 13:41:11 +0000";
layers = (
{
layerId = "FFF31276-834F-49C0-8230-C5CBB7819B89";
paths = (
{
closed = 1;
nodes = (
"543 0 LINE",
"1016 0 LINE",
"1016 41 LINE",
"936 41 LINE SMOOTH",
"885 41 OFFCURVE",
"836 66 OFFCURVE",
"821 143 OFFCURVE",
"821 221 QCURVE SMOOTH",
"821 426 LINE",
"1112 426 LINE",
"1112 477 LINE",
"821 477 LINE",
"821 1462 LINE",
"764 1462 LINE",
"43 461 LINE",
"43 426 LINE",
"766 426 LINE",
"766 221 LINE SMOOTH",
"766 143 OFFCURVE",
"752 66 OFFCURVE",
"702 41 OFFCURVE",
"651 41 QCURVE SMOOTH",
"543 41 LINE",
"543 0 LINE",
"543 0 LINE"
);
},
{
closed = 1;
nodes = (
"115 477 LINE",
"526 1049 LINE SMOOTH",
"553 1087 OFFCURVE",
"629 1192 OFFCURVE",
"702 1300 OFFCURVE",
"760 1384 OFFCURVE",
"770 1403 QCURVE",
"770 1339 OFFCURVE",
"768 1157 OFFCURVE",
"766 979 OFFCURVE",
"766 920 QCURVE SMOOTH",
"766 477 LINE",
"115 477 LINE",
"115 477 LINE"
);
}
);
width = 1144;
},
{
layerId = "28531FA7-6DEB-4C71-966B-2D248D7FC379";
paths = (
{
closed = 1;
nodes = (
"487 0 LINE",
"1037 0 LINE",
"1037 66 LINE",
"986 66 LINE SMOOTH",
"915 66 OFFCURVE",
"843 121 OFFCURVE",
"843 227 QCURVE SMOOTH",
"843 412 LINE",
"1113 412 LINE",
"1113 498 LINE",
"843 498 LINE",
"843 1462 LINE",
"710 1462 LINE",
"38 475 LINE",
"38 412 LINE",
"710 412 LINE",
"710 227 LINE SMOOTH",
"710 121 OFFCURVE",
"638 66 OFFCURVE",
"566 66 QCURVE SMOOTH",
"487 66 LINE",
"487 0 LINE",
"487 0 LINE"
);
},
{
closed = 1;
nodes = (
"151 498 LINE",
"509 1024 LINE SMOOTH",
"532 1057 OFFCURVE",
"595 1153 OFFCURVE",
"659 1253 OFFCURVE",
"710 1337 OFFCURVE",
"720 1358 QCURVE",
"716 1294 OFFCURVE",
"712 1128 OFFCURVE",
"710 965 OFFCURVE",
"710 905 QCURVE SMOOTH",
"710 498 LINE",
"151 498 LINE",
"151 498 LINE"
);
}
);
width = 1144;
},
{
layerId = "82773DB8-11CF-4E3D-BC1E-69725B5EFD97";
paths = (
{
closed = 1;
nodes = (
"862 401 LINE",
"862 401 LINE",
"862 401 LINE",
"862 401 LINE",
"1116 401 LINE",
"1116 516 LINE",
"862 516 LINE",
"862 1462 LINE",
"668 1462 LINE",
"35 485 LINE",
"35 401 LINE",
"666 401 LINE",
"666 233 LINE SMOOTH",
"666 185 OFFCURVE",
"639 127 OFFCURVE",
"594 96 OFFCURVE",
"533 86 OFFCURVE",
"498 86 QCURVE SMOOTH",
"440 86 LINE",
"440 0 LINE",
"1057 0 LINE",
"1057 86 LINE",
"1030 86 LINE SMOOTH",
"996 86 OFFCURVE",
"934 96 OFFCURVE",
"889 127 OFFCURVE",
"862 185 OFFCURVE",
"862 233 QCURVE SMOOTH",
"862 401 LINE",
"862 401 LINE"
);
},
{
closed = 1;
nodes = (
"666 895 LINE",
"666 895 LINE",
"666 895 LINE",
"666 895 LINE",
"666 516 LINE",
"182 516 LINE",
"496 1004 LINE SMOOTH",
"508 1022 OFFCURVE",
"540 1075 OFFCURVE",
"577 1136 OFFCURVE",
"614 1200 OFFCURVE",
"647 1258 OFFCURVE",
"673 1305 OFFCURVE",
"680 1319 QCURVE",
"676 1271 OFFCURVE",
"671 1160 OFFCURVE",
"668 1048 OFFCURVE",
"666 940 OFFCURVE",
"666 895 QCURVE",
"666 895 LINE"
);
}
);
userData = {
assembly = "NPUSHB[ ]	/* 49 values pushed */\01234 1 5 4 19 1 3 5 2 76 7 1 5 6 1 3 0 5 3 103 0 4 4 50 77 2 1 0 0 1 95 0 1 1 51 1 78 43 42 17 17 18 21 33 17 37 8 9 29 \012CALL[ ]	/* CallFunction */";
};
width = 1145;
},
{
layerId = "05F2EFEE-D68A-47EA-B1CB-1F079D4BE6D1";
paths = (
{
closed = 1;
nodes = (
"368 0 LINE",
"1087 0 LINE",
"1087 109 LINE",
"1060 109 LINE SMOOTH",
"991 109 OFFCURVE",
"892 160 OFFCURVE",
"892 256 QCURVE SMOOTH",
"892 381 LINE",
"1105 381 LINE",
"1105 516 LINE",
"892 516 LINE",
"892 1462 LINE",
"608 1462 LINE",
"26 506 LINE",
"26 381 LINE",
"593 381 LINE",
"593 256 LINE SMOOTH",
"593 160 OFFCURVE",
"495 109 OFFCURVE",
"425 109 QCURVE SMOOTH",
"368 109 LINE",
"368 0 LINE",
"368 0 LINE"
);
},
{
closed = 1;
nodes = (
"169 516 LINE",
"446 973 LINE SMOOTH",
"458 991 OFFCURVE",
"503 1069 OFFCURVE",
"554 1161 OFFCURVE",
"597 1243 OFFCURVE",
"608 1268 QCURVE",
"599 1171 OFFCURVE",
"593 963 OFFCURVE",
"593 874 QCURVE SMOOTH",
"593 516 LINE",
"169 516 LINE",
"169 516 LINE"
);
}
);
width = 1144;
},
{
layerId = "482B5BA1-F14A-4795-881D-282E6E2A03D9";
paths = (
{
closed = 1;
nodes = (
"325 0 LINE",
"1120 0 LINE",
"1120 125 LINE",
"1093 125 LINE SMOOTH",
"1023 125 OFFCURVE",
"925 176 OFFCURVE",
"925 272 QCURVE SMOOTH",
"925 367 LINE",
"1107 367 LINE",
"1107 516 LINE",
"925 516 LINE",
"925 1462 LINE",
"575 1462 LINE",
"30 520 LINE",
"30 367 LINE",
"550 367 LINE",
"550 272 LINE SMOOTH",
"550 176 OFFCURVE",
"452 125 OFFCURVE",
"382 125 QCURVE SMOOTH",
"325 125 LINE",
"325 0 LINE",
"325 0 LINE"
);
},
{
closed = 1;
nodes = (
"200 516 LINE",
"429 942 LINE SMOOTH",
"436 954 OFFCURVE",
"472 1028 OFFCURVE",
"517 1118 OFFCURVE",
"556 1204 OFFCURVE",
"567 1231 QCURVE",
"558 1135 OFFCURVE",
"552 950 OFFCURVE",
"552 860 QCURVE SMOOTH",
"552 516 LINE",
"200 516 LINE",
"200 516 LINE"
);
}
);
width = 1165;
}
);
note = four;
unicode = 0034;
},
{
glyphname = five;
lastChange = "2020-08-17 13:41:11 +0000";
layers = (
{
layerId = "FFF31276-834F-49C0-8230-C5CBB7819B89";
paths = (
{
closed = 1;
nodes = (
"507 -20 LINE",
"655 -20 OFFCURVE",
"858 98 OFFCURVE",
"962 307 OFFCURVE",
"962 444 QCURVE SMOOTH",
"962 586 OFFCURVE",
"843 772 OFFCURVE",
"651 866 OFFCURVE",
"536 866 QCURVE SMOOTH",
"448 866 OFFCURVE",
"329 840 OFFCURVE",
"278 821 QCURVE",
"329 1405 LINE",
"731 1405 LINE SMOOTH",
"786 1405 OFFCURVE",
"843 1395 OFFCURVE",
"862 1348 OFFCURVE",
"864 1292 QCURVE SMOOTH",
"866 1235 LINE",
"907 1235 LINE",
"901 1462 LINE",
"282 1462 LINE",
"221 764 LINE",
"251 756 LINE",
"307 782 OFFCURVE",
"448 815 OFFCURVE",
"532 815 QCURVE SMOOTH",
"694 815 OFFCURVE",
"905 629 OFFCURVE",
"905 442 QCURVE SMOOTH",
"905 254 OFFCURVE",
"700 31 OFFCURVE",
"505 31 QCURVE SMOOTH",
"430 31 OFFCURVE",
"288 76 OFFCURVE",
"198 176 OFFCURVE",
"198 258 QCURVE",
"182 258 OFFCURVE",
"151 229 OFFCURVE",
"151 190 QCURVE SMOOTH",
"151 106 OFFCURVE",
"344 -20 OFFCURVE",
"507 -20 QCURVE",
"507 -20 LINE"
);
}
);
width = 1144;
},
{
layerId = "28531FA7-6DEB-4C71-966B-2D248D7FC379";
paths = (
{
closed = 1;
nodes = (
"504 -20 LINE",
"655 -20 OFFCURVE",
"870 98 OFFCURVE",
"981 307 OFFCURVE",
"981 446 QCURVE SMOOTH",
"981 590 OFFCURVE",
"860 778 OFFCURVE",
"655 872 OFFCURVE",
"532 872 QCURVE SMOOTH",
"442 872 OFFCURVE",
"324 850 OFFCURVE",
"285 836 QCURVE",
"328 1348 LINE",
"727 1348 LINE SMOOTH",
"801 1348 OFFCURVE",
"844 1311 OFFCURVE",
"848 1249 QCURVE SMOOTH",
"854 1190 LINE",
"919 1190 LINE",
"911 1462 LINE",
"256 1462 LINE",
"192 748 LINE",
"233 737 LINE",
"278 758 OFFCURVE",
"403 788 OFFCURVE",
"500 788 QCURVE SMOOTH",
"651 788 OFFCURVE",
"838 616 OFFCURVE",
"838 444 QCURVE SMOOTH",
"838 252 OFFCURVE",
"655 70 OFFCURVE",
"498 70 QCURVE SMOOTH",
"377 70 OFFCURVE",
"221 180 OFFCURVE",
"221 285 QCURVE",
"131 285 OFFCURVE",
"131 188 QCURVE SMOOTH",
"131 139 OFFCURVE",
"207 43 OFFCURVE",
"371 -20 OFFCURVE",
"504 -20 QCURVE",
"504 -20 LINE"
);
}
);
width = 1144;
},
{
layerId = "82773DB8-11CF-4E3D-BC1E-69725B5EFD97";
paths = (
{
closed = 1;
nodes = (
"489 100 LINE",
"489 100 LINE",
"489 100 LINE",
"489 100 LINE",
"427 100 OFFCURVE",
"334 132 OFFCURVE",
"273 187 OFFCURVE",
"242 263 OFFCURVE",
"242 307 QCURVE",
"176 307 OFFCURVE",
"113 243 OFFCURVE",
"113 186 QCURVE SMOOTH",
"113 152 OFFCURVE",
"149 79 OFFCURVE",
"237 19 OFFCURVE",
"386 -20 OFFCURVE",
"500 -20 QCURVE SMOOTH",
"617 -20 OFFCURVE",
"801 47 OFFCURVE",
"928 170 OFFCURVE",
"995 342 OFFCURVE",
"995 446 QCURVE SMOOTH",
"995 554 OFFCURVE",
"924 717 OFFCURVE",
"798 825 OFFCURVE",
"627 879 OFFCURVE",
"528 879 QCURVE SMOOTH",
"437 879 OFFCURVE",
"320 857 OFFCURVE",
"289 846 QCURVE",
"328 1296 LINE",
"725 1296 LINE SMOOTH",
"757 1296 OFFCURVE",
"798 1286 OFFCURVE",
"822 1265 OFFCURVE",
"833 1234 OFFCURVE",
"836 1212 QCURVE SMOOTH",
"844 1151 LINE",
"930 1151 LINE",
"920 1460 LINE",
"236 1460 LINE",
"170 735 LINE",
"219 721 LINE",
"238 729 OFFCURVE",
"282 745 OFFCURVE",
"341 758 OFFCURVE",
"418 766 OFFCURVE",
"471 766 QCURVE SMOOTH",
"542 766 OFFCURVE",
"656 727 OFFCURVE",
"738 647 OFFCURVE",
"782 527 OFFCURVE",
"782 446 QCURVE SMOOTH",
"782 349 OFFCURVE",
"738 216 OFFCURVE",
"659 135 OFFCURVE",
"552 100 OFFCURVE",
"489 100 QCURVE",
"489 100 LINE"
);
}
);
userData = {
assembly = "NPUSHB[ ]	/* 11 values pushed */\01228 1 1 5 16 15 2 7 1 2 76 \012MPPEM[ ]	/* MeasurePixelPerEm */\012PUSHB[ ]	/* 1 value pushed */\01218 \012LT[ ]	/* LessThan */\012IF[ ]	/* If */\012NPUSHB[ ]	/* 45 values pushed */\0120 3 4 5 4 3 114 0 7 1 0 1 7 0 128 0 5 0 1 7 5 1 105 0 4 4 2 95 0 2 2 50 77 8 1 0 0 6 97 0 6 6 57 6 78 \012ELSE[ ]	/* Else */\012NPUSHB[ ]	/* 46 values pushed */\0120 3 4 5 4 3 5 128 0 7 1 0 1 7 0 128 0 5 0 1 7 5 1 105 0 4 4 2 95 0 2 2 50 77 8 1 0 0 6 97 0 6 6 57 6 78 \012EIF[ ]	/* EndIf */\012NPUSHB[ ]	/* 23 values pushed */\0121 0 49 48 42 40 32 30 27 25 20 19 18 17 11 9 0 57 1 53 9 9 22 \012CALL[ ]	/* CallFunction */";
};
width = 1145;
},
{
layerId = "05F2EFEE-D68A-47EA-B1CB-1F079D4BE6D1";
paths = (
{
closed = 1;
nodes = (
"501 -20 LINE",
"593 -20 OFFCURVE",
"781 29 OFFCURVE",
"939 137 OFFCURVE",
"1035 317 OFFCURVE",
"1035 451 QCURVE SMOOTH",
"1035 670 OFFCURVE",
"749 889 OFFCURVE",
"511 889 QCURVE SMOOTH",
"448 889 OFFCURVE",
"319 870 OFFCURVE",
"286 858 QCURVE",
"319 1237 LINE",
"745 1237 LINE SMOOTH",
"794 1237 OFFCURVE",
"831 1196 OFFCURVE",
"839 1159 QCURVE SMOOTH",
"855 1090 LINE",
"972 1090 LINE",
"962 1462 LINE",
"187 1462 LINE",
"122 754 LINE",
"216 717 LINE",
"261 731 OFFCURVE",
"366 754 OFFCURVE",
"443 754 QCURVE SMOOTH",
"577 754 OFFCURVE",
"722 604 OFFCURVE",
"722 451 QCURVE SMOOTH",
"722 324 OFFCURVE",
"652 182 OFFCURVE",
"538 123 OFFCURVE",
"470 123 QCURVE SMOOTH",
"386 123 OFFCURVE",
"288 197 OFFCURVE",
"245 311 OFFCURVE",
"245 369 QCURVE",
"171 369 OFFCURVE",
"81 299 OFFCURVE",
"81 227 QCURVE SMOOTH",
"81 164 OFFCURVE",
"163 51 OFFCURVE",
"347 -20 OFFCURVE",
"501 -20 QCURVE",
"501 -20 LINE"
);
}
);
width = 1144;
},
{
layerId = "482B5BA1-F14A-4795-881D-282E6E2A03D9";
paths = (
{
closed = 1;
nodes = (
"513 -20 LINE",
"573 -20 OFFCURVE",
"722 0 OFFCURVE",
"872 57 OFFCURVE",
"999 162 OFFCURVE",
"1077 330 OFFCURVE",
"1077 453 QCURVE SMOOTH",
"1077 676 OFFCURVE",
"778 897 OFFCURVE",
"509 897 QCURVE SMOOTH",
"481 897 OFFCURVE",
"397 889 OFFCURVE",
"317 877 OFFCURVE",
"294 866 QCURVE",
"323 1192 LINE",
"769 1192 LINE SMOOTH",
"808 1192 OFFCURVE",
"843 1151 OFFCURVE",
"853 1118 QCURVE SMOOTH",
"874 1042 LINE",
"1015 1042 LINE",
"1005 1462 LINE",
"196 1462 LINE",
"130 768 LINE",
"225 715 LINE",
"278 725 OFFCURVE",
"376 745 OFFCURVE",
"434 745 QCURVE SMOOTH",
"690 745 OFFCURVE",
"690 453 QCURVE SMOOTH",
"690 330 OFFCURVE",
"624 193 OFFCURVE",
"524 139 OFFCURVE",
"466 139 QCURVE SMOOTH",
"382 139 OFFCURVE",
"292 227 OFFCURVE",
"259 356 OFFCURVE",
"259 414 QCURVE",
"180 414 OFFCURVE",
"69 338 OFFCURVE",
"69 258 QCURVE SMOOTH",
"69 143 OFFCURVE",
"280 -20 OFFCURVE",
"513 -20 QCURVE",
"513 -20 LINE"
);
}
);
width = 1165;
}
);
note = five;
unicode = 0035;
},
{
glyphname = six;
lastChange = "2020-08-17 13:41:11 +0000";
layers = (
{
layerId = "FFF31276-834F-49C0-8230-C5CBB7819B89";
paths = (
{
closed = 1;
nodes = (
"599 -20 LINE",
"802 -20 OFFCURVE",
"999 240 OFFCURVE",
"999 451 QCURVE SMOOTH",
"999 657 OFFCURVE",
"779 874 OFFCURVE",
"605 874 QCURVE SMOOTH",
"484 874 OFFCURVE",
"292 784 OFFCURVE",
"222 731 QCURVE",
"222 975 OFFCURVE",
"335 1286 OFFCURVE",
"532 1432 OFFCURVE",
"657 1432 QCURVE SMOOTH",
"777 1432 OFFCURVE",
"900 1325 OFFCURVE",
"900 1206 QCURVE",
"921 1206 OFFCURVE",
"945 1245 OFFCURVE",
"945 1278 QCURVE SMOOTH",
"945 1327 OFFCURVE",
"888 1421 OFFCURVE",
"761 1483 OFFCURVE",
"659 1483 QCURVE SMOOTH",
"519 1483 OFFCURVE",
"296 1331 OFFCURVE",
"165 985 OFFCURVE",
"165 692 QCURVE SMOOTH",
"165 330 OFFCURVE",
"396 -20 OFFCURVE",
"599 -20 QCURVE",
"599 -20 LINE"
);
},
{
closed = 1;
nodes = (
"605 31 LINE",
"413 31 OFFCURVE",
"228 358 OFFCURVE",
"222 666 QCURVE",
"257 694 OFFCURVE",
"364 768 OFFCURVE",
"513 823 OFFCURVE",
"605 823 QCURVE SMOOTH",
"775 823 OFFCURVE",
"941 610 OFFCURVE",
"941 453 QCURVE SMOOTH",
"941 266 OFFCURVE",
"777 31 OFFCURVE",
"605 31 QCURVE",
"605 31 LINE"
);
}
);
width = 1144;
},
{
layerId = "28531FA7-6DEB-4C71-966B-2D248D7FC379";
paths = (
{
closed = 1;
nodes = (
"600 -20 LINE",
"807 -20 OFFCURVE",
"1022 248 OFFCURVE",
"1022 461 QCURVE SMOOTH",
"1022 662 OFFCURVE",
"798 883 OFFCURVE",
"618 883 QCURVE SMOOTH",
"510 883 OFFCURVE",
"344 807 OFFCURVE",
"284 760 QCURVE",
"290 1090 OFFCURVE",
"489 1405 OFFCURVE",
"659 1405 QCURVE SMOOTH",
"766 1405 OFFCURVE",
"868 1282 OFFCURVE",
"868 1174 QCURVE",
"974 1174 OFFCURVE",
"974 1272 QCURVE SMOOTH",
"974 1352 OFFCURVE",
"823 1483 OFFCURVE",
"659 1483 QCURVE SMOOTH",
"497 1483 OFFCURVE",
"266 1298 OFFCURVE",
"143 956 OFFCURVE",
"143 717 QCURVE SMOOTH",
"143 459 OFFCURVE",
"258 133 OFFCURVE",
"462 -20 OFFCURVE",
"600 -20 QCURVE",
"600 -20 LINE"
);
},
{
closed = 1;
nodes = (
"606 63 LINE",
"452 63 OFFCURVE",
"286 358 OFFCURVE",
"282 666 QCURVE",
"327 709 OFFCURVE",
"487 803 OFFCURVE",
"596 803 QCURVE SMOOTH",
"739 803 OFFCURVE",
"882 618 OFFCURVE",
"882 451 QCURVE SMOOTH",
"882 262 OFFCURVE",
"745 63 OFFCURVE",
"606 63 QCURVE",
"606 63 LINE"
);
}
);
width = 1144;
},
{
layerId = "82773DB8-11CF-4E3D-BC1E-69725B5EFD97";
paths = (
{
closed = 1;
nodes = (
"659 1384 LINE",
"659 1384 LINE",
"659 1384 LINE",
"659 1384 LINE",
"709 1384 OFFCURVE",
"777 1347 OFFCURVE",
"821 1282 OFFCURVE",
"840 1195 OFFCURVE",
"840 1145 QCURVE",
"917 1145 OFFCURVE",
"997 1209 OFFCURVE",
"997 1268 QCURVE SMOOTH",
"997 1309 OFFCURVE",
"956 1387 OFFCURVE",
"872 1447 OFFCURVE",
"745 1483 OFFCURVE",
"659 1483 QCURVE SMOOTH",
"569 1483 OFFCURVE",
"419 1427 OFFCURVE",
"300 1326 OFFCURVE",
"212 1186 OFFCURVE",
"154 1020 OFFCURVE",
"125 834 OFFCURVE",
"125 737 QCURVE SMOOTH",
"125 535 OFFCURVE",
"197 248 OFFCURVE",
"324 65 OFFCURVE",
"498 -20 OFFCURVE",
"600 -20 QCURVE SMOOTH",
"705 -20 OFFCURVE",
"868 52 OFFCURVE",
"981 181 OFFCURVE",
"1040 361 OFFCURVE",
"1040 469 QCURVE SMOOTH",
"1040 567 OFFCURVE",
"982 723 OFFCURVE",
"875 831 OFFCURVE",
"723 889 OFFCURVE",
"629 889 QCURVE SMOOTH",
"579 889 OFFCURVE",
"494 871 OFFCURVE",
"422 842 OFFCURVE",
"361 803 OFFCURVE",
"336 782 QCURVE",
"347 1081 OFFCURVE",
"505 1384 OFFCURVE",
"659 1384 QCURVE",
"659 1384 LINE"
);
},
{
closed = 1;
nodes = (
"588 784 LINE",
"588 784 LINE",
"588 784 LINE",
"588 784 LINE",
"706 784 OFFCURVE",
"831 624 OFFCURVE",
"831 449 QCURVE SMOOTH",
"831 263 OFFCURVE",
"716 92 OFFCURVE",
"606 92 QCURVE SMOOTH",
"545 92 OFFCURVE",
"445 156 OFFCURVE",
"375 294 OFFCURVE",
"336 512 OFFCURVE",
"334 666 QCURVE",
"355 687 OFFCURVE",
"409 730 OFFCURVE",
"474 763 OFFCURVE",
"548 784 OFFCURVE",
"588 784 QCURVE",
"588 784 LINE"
);
}
);
userData = {
assembly = "NPUSHB[ ]	/* 71 values pushed */\01252 3 2 6 5 1 76 0 4 0 1 0 4 1 128 0 1 8 1 5 6 1 5 105 7 1 0 0 3 97 0 3 3 56 77 0 6 6 2 97 0 2 2 57 2 78 48 47 1 0 58 56 47 66 48 62 38 37 31 29 19 17 9 7 0 46 1 42 9 9 22 \012CALL[ ]	/* CallFunction */";
};
width = 1145;
},
{
layerId = "05F2EFEE-D68A-47EA-B1CB-1F079D4BE6D1";
paths = (
{
closed = 1;
nodes = (
"600 -20 LINE",
"833 -20 OFFCURVE",
"1073 254 OFFCURVE",
"1073 473 QCURVE SMOOTH",
"1073 672 OFFCURVE",
"850 897 OFFCURVE",
"663 897 QCURVE SMOOTH",
"559 897 OFFCURVE",
"422 848 OFFCURVE",
"381 821 QCURVE",
"393 1081 OFFCURVE",
"536 1362 OFFCURVE",
"657 1362 QCURVE SMOOTH",
"713 1362 OFFCURVE",
"770 1282 OFFCURVE",
"792 1159 OFFCURVE",
"792 1098 QCURVE",
"928 1098 OFFCURVE",
"1038 1194 OFFCURVE",
"1038 1257 QCURVE SMOOTH",
"1038 1315 OFFCURVE",
"966 1419 OFFCURVE",
"807 1483 OFFCURVE",
"676 1483 QCURVE SMOOTH",
"528 1483 OFFCURVE",
"307 1358 OFFCURVE",
"164 1139 OFFCURVE",
"92 844 OFFCURVE",
"92 676 QCURVE SMOOTH",
"92 438 OFFCURVE",
"219 129 OFFCURVE",
"448 -20 OFFCURVE",
"600 -20 QCURVE",
"600 -20 LINE"
);
},
{
closed = 1;
nodes = (
"606 115 LINE",
"512 115 OFFCURVE",
"383 379 OFFCURVE",
"381 674 QCURVE",
"407 709 OFFCURVE",
"532 772 OFFCURVE",
"588 772 QCURVE SMOOTH",
"676 772 OFFCURVE",
"776 618 OFFCURVE",
"776 453 QCURVE SMOOTH",
"776 276 OFFCURVE",
"684 115 OFFCURVE",
"606 115 QCURVE",
"606 115 LINE"
);
}
);
width = 1144;
},
{
layerId = "482B5BA1-F14A-4795-881D-282E6E2A03D9";
paths = (
{
closed = 1;
nodes = (
"607 -20 LINE",
"859 -20 OFFCURVE",
"1105 254 OFFCURVE",
"1105 475 QCURVE SMOOTH",
"1105 678 OFFCURVE",
"880 903 OFFCURVE",
"691 903 QCURVE SMOOTH",
"614 903 OFFCURVE",
"487 868 OFFCURVE",
"427 836 QCURVE",
"442 1067 OFFCURVE",
"544 1346 OFFCURVE",
"646 1346 QCURVE SMOOTH",
"696 1346 OFFCURVE",
"761 1266 OFFCURVE",
"792 1139 OFFCURVE",
"792 1063 QCURVE",
"943 1063 OFFCURVE",
"1064 1174 OFFCURVE",
"1064 1249 QCURVE SMOOTH",
"1064 1311 OFFCURVE",
"982 1417 OFFCURVE",
"804 1483 OFFCURVE",
"659 1483 QCURVE SMOOTH",
"466 1483 OFFCURVE",
"206 1286 OFFCURVE",
"75 922 OFFCURVE",
"75 674 QCURVE SMOOTH",
"75 317 OFFCURVE",
"364 -20 OFFCURVE",
"607 -20 QCURVE",
"607 -20 LINE"
);
},
{
closed = 1;
nodes = (
"618 131 LINE",
"532 131 OFFCURVE",
"429 391 OFFCURVE",
"429 688 QCURVE",
"466 715 OFFCURVE",
"562 754 OFFCURVE",
"599 754 QCURVE SMOOTH",
"667 754 OFFCURVE",
"757 623 OFFCURVE",
"757 455 QCURVE SMOOTH",
"757 330 OFFCURVE",
"720 188 OFFCURVE",
"657 131 OFFCURVE",
"618 131 QCURVE",
"618 131 LINE"
);
}
);
width = 1165;
}
);
note = six;
unicode = 0036;
},
{
glyphname = seven;
lastChange = "2020-08-17 13:41:11 +0000";
layers = (
{
layerId = "FFF31276-834F-49C0-8230-C5CBB7819B89";
paths = (
{
closed = 1;
nodes = (
"374 0 LINE",
"435 0 LINE",
"1009 1417 LINE",
"1009 1462 LINE",
"132 1462 LINE",
"120 1167 LINE",
"161 1167 LINE",
"169 1296 LINE SMOOTH",
"173 1372 OFFCURVE",
"216 1405 OFFCURVE",
"272 1405 QCURVE SMOOTH",
"947 1405 LINE",
"374 0 LINE",
"374 0 LINE"
);
}
);
width = 1144;
},
{
layerId = "28531FA7-6DEB-4C71-966B-2D248D7FC379";
paths = (
{
closed = 1;
nodes = (
"382 0 LINE",
"493 0 LINE",
"1029 1409 LINE",
"1029 1462 LINE",
"130 1462 LINE",
"120 1126 LINE",
"186 1126 LINE",
"194 1241 LINE SMOOTH",
"198 1303 OFFCURVE",
"249 1348 OFFCURVE",
"304 1348 QCURVE SMOOTH",
"906 1348 LINE",
"382 0 LINE",
"382 0 LINE"
);
}
);
width = 1144;
},
{
layerId = "82773DB8-11CF-4E3D-BC1E-69725B5EFD97";
paths = (
{
closed = 1;
nodes = (
"389 0 LINE",
"389 0 LINE",
"389 0 LINE",
"389 0 LINE",
"543 0 LINE",
"1047 1401 LINE",
"1047 1460 LINE",
"131 1460 LINE",
"121 1090 LINE",
"207 1090 LINE",
"215 1192 LINE SMOOTH",
"224 1296 OFFCURVE",
"334 1296 QCURVE SMOOTH",
"872 1296 LINE",
"389 0 LINE",
"389 0 LINE"
);
}
);
userData = {
assembly = "PUSHB[ ]	/* 6 values pushed */\0129 1 0 2 1 76 \012MPPEM[ ]	/* MeasurePixelPerEm */\012PUSHB[ ]	/* 1 value pushed */\01212 \012LT[ ]	/* LessThan */\012IF[ ]	/* If */\012NPUSHB[ ]	/* 23 values pushed */\0120 1 0 3 0 1 114 0 0 0 2 95 0 2 2 50 77 0 3 3 51 3 78 \012ELSE[ ]	/* Else */\012NPUSHB[ ]	/* 24 values pushed */\0120 1 0 3 0 1 3 128 0 0 0 2 95 0 2 2 50 77 0 3 3 51 3 78 \012EIF[ ]	/* EndIf */\012PUSHB[ ]	/* 7 values pushed */\01218 17 18 33 4 9 26 \012CALL[ ]	/* CallFunction */";
};
width = 1145;
},
{
layerId = "05F2EFEE-D68A-47EA-B1CB-1F079D4BE6D1";
paths = (
{
closed = 1;
nodes = (
"338 0 LINE",
"512 0 LINE",
"1077 1362 LINE",
"1077 1462 LINE",
"100 1462 LINE",
"90 1032 LINE",
"213 1032 LINE",
"225 1135 LINE SMOOTH",
"237 1239 OFFCURVE",
"344 1239 QCURVE SMOOTH",
"883 1239 LINE",
"338 0 LINE",
"338 0 LINE"
);
}
);
width = 1144;
},
{
layerId = "482B5BA1-F14A-4795-881D-282E6E2A03D9";
paths = (
{
closed = 1;
nodes = (
"299 0 LINE",
"528 0 LINE",
"1077 1331 LINE",
"1077 1462 LINE",
"104 1462 LINE",
"94 987 LINE",
"244 987 LINE",
"260 1090 LINE SMOOTH",
"268 1141 OFFCURVE",
"323 1194 OFFCURVE",
"379 1194 QCURVE SMOOTH",
"868 1194 LINE",
"299 0 LINE",
"299 0 LINE"
);
}
);
width = 1165;
}
);
note = seven;
unicode = 0037;
},
{
glyphname = eight;
lastChange = "2020-08-17 13:41:11 +0000";
layers = (
{
layerId = "FFF31276-834F-49C0-8230-C5CBB7819B89";
paths = (
{
closed = 1;
nodes = (
"565 -20 LINE",
"764 -20 OFFCURVE",
"1001 160 OFFCURVE",
"1001 336 QCURVE SMOOTH",
"1001 442 OFFCURVE",
"931 590 OFFCURVE",
"778 709 OFFCURVE",
"653 766 QCURVE",
"807 831 OFFCURVE",
"958 1010 OFFCURVE",
"958 1151 QCURVE SMOOTH",
"958 1290 OFFCURVE",
"768 1483 OFFCURVE",
"575 1483 QCURVE SMOOTH",
"465 1483 OFFCURVE",
"293 1401 OFFCURVE",
"194 1249 OFFCURVE",
"194 1147 QCURVE SMOOTH",
"194 1047 OFFCURVE",
"272 911 OFFCURVE",
"413 815 OFFCURVE",
"510 770 QCURVE",
"338 705 OFFCURVE",
"143 504 OFFCURVE",
"143 346 QCURVE SMOOTH",
"143 174 OFFCURVE",
"352 -20 OFFCURVE",
"565 -20 QCURVE",
"565 -20 LINE"
);
},
{
closed = 1;
nodes = (
"583 793 LINE",
"475 840 OFFCURVE",
"327 932 OFFCURVE",
"252 1053 OFFCURVE",
"252 1147 QCURVE SMOOTH",
"252 1278 OFFCURVE",
"428 1432 OFFCURVE",
"577 1432 QCURVE SMOOTH",
"696 1432 OFFCURVE",
"837 1350 OFFCURVE",
"901 1221 OFFCURVE",
"901 1151 QCURVE SMOOTH",
"901 1022 OFFCURVE",
"753 854 OFFCURVE",
"583 793 QCURVE",
"583 793 LINE"
);
},
{
closed = 1;
nodes = (
"567 31 LINE",
"385 31 OFFCURVE",
"200 197 OFFCURVE",
"200 346 QCURVE SMOOTH",
"200 477 OFFCURVE",
"389 684 OFFCURVE",
"581 741 QCURVE",
"731 680 OFFCURVE",
"886 555 OFFCURVE",
"944 418 OFFCURVE",
"944 336 QCURVE SMOOTH",
"944 180 OFFCURVE",
"737 31 OFFCURVE",
"567 31 QCURVE",
"567 31 LINE"
);
}
);
width = 1144;
},
{
layerId = "28531FA7-6DEB-4C71-966B-2D248D7FC379";
paths = (
{
closed = 1;
nodes = (
"560 -20 LINE",
"773 -20 OFFCURVE",
"1027 180 OFFCURVE",
"1027 367 QCURVE SMOOTH",
"1027 512 OFFCURVE",
"851 696 OFFCURVE",
"683 776 QCURVE",
"823 840 OFFCURVE",
"974 1004 OFFCURVE",
"974 1141 QCURVE SMOOTH",
"974 1286 OFFCURVE",
"771 1483 OFFCURVE",
"579 1483 QCURVE SMOOTH",
"442 1483 OFFCURVE",
"259 1389 OFFCURVE",
"165 1229 OFFCURVE",
"165 1130 QCURVE SMOOTH",
"165 991 OFFCURVE",
"323 819 OFFCURVE",
"452 754 QCURVE",
"302 688 OFFCURVE",
"116 508 OFFCURVE",
"116 356 QCURVE SMOOTH",
"116 190 OFFCURVE",
"339 -20 OFFCURVE",
"560 -20 QCURVE",
"560 -20 LINE"
);
},
{
closed = 1;
nodes = (
"597 813 LINE",
"448 881 OFFCURVE",
"296 1020 OFFCURVE",
"296 1143 QCURVE SMOOTH",
"296 1262 OFFCURVE",
"442 1407 OFFCURVE",
"573 1407 QCURVE SMOOTH",
"673 1407 OFFCURVE",
"794 1329 OFFCURVE",
"847 1208 OFFCURVE",
"847 1143 QCURVE SMOOTH",
"847 1024 OFFCURVE",
"737 872 OFFCURVE",
"597 813 QCURVE",
"597 813 LINE"
);
},
{
closed = 1;
nodes = (
"569 53 LINE",
"411 53 OFFCURVE",
"251 213 OFFCURVE",
"251 352 QCURVE SMOOTH",
"251 475 OFFCURVE",
"399 662 OFFCURVE",
"538 715 QCURVE",
"679 655 OFFCURVE",
"837 543 OFFCURVE",
"900 418 OFFCURVE",
"900 342 QCURVE SMOOTH",
"900 205 OFFCURVE",
"718 53 OFFCURVE",
"569 53 QCURVE",
"569 53 LINE"
);
}
);
width = 1144;
},
{
layerId = "82773DB8-11CF-4E3D-BC1E-69725B5EFD97";
paths = (
{
closed = 1;
nodes = (
"94 367 LINE",
"94 367 LINE",
"94 367 LINE",
"94 367 LINE",
"94 286 OFFCURVE",
"153 145 OFFCURVE",
"270 40 OFFCURVE",
"444 -20 OFFCURVE",
"559 -20 QCURVE SMOOTH",
"671 -20 OFFCURVE",
"853 35 OFFCURVE",
"981 141 OFFCURVE",
"1051 294 OFFCURVE",
"1051 391 QCURVE SMOOTH",
"1051 458 OFFCURVE",
"1002 570 OFFCURVE",
"912 666 OFFCURVE",
"787 748 OFFCURVE",
"711 784 QCURVE",
"773 815 OFFCURVE",
"875 880 OFFCURVE",
"947 961 OFFCURVE",
"987 1063 OFFCURVE",
"987 1130 QCURVE SMOOTH",
"987 1207 OFFCURVE",
"933 1336 OFFCURVE",
"830 1430 OFFCURVE",
"680 1483 OFFCURVE",
"584 1483 QCURVE SMOOTH",
"466 1483 OFFCURVE",
"297 1421 OFFCURVE",
"191 1319 OFFCURVE",
"141 1187 OFFCURVE",
"141 1116 QCURVE SMOOTH",
"141 1052 OFFCURVE",
"180 943 OFFCURVE",
"250 851 OFFCURVE",
"348 774 OFFCURVE",
"406 741 QCURVE",
"339 709 OFFCURVE",
"225 639 OFFCURVE",
"141 552 OFFCURVE",
"94 441 OFFCURVE",
"94 367 QCURVE",
"94 367 LINE"
);
},
{
closed = 1;
nodes = (
"569 74 LINE",
"569 74 LINE",
"569 74 LINE",
"569 74 LINE",
"501 74 OFFCURVE",
"397 115 OFFCURVE",
"328 190 OFFCURVE",
"293 294 OFFCURVE",
"293 358 QCURVE SMOOTH",
"293 474 OFFCURVE",
"407 640 OFFCURVE",
"504 692 QCURVE",
"603 649 OFFCURVE",
"740 570 OFFCURVE",
"826 487 OFFCURVE",
"864 398 OFFCURVE",
"864 346 QCURVE SMOOTH",
"864 287 OFFCURVE",
"822 187 OFFCURVE",
"745 115 OFFCURVE",
"636 74 OFFCURVE",
"569 74 QCURVE",
"569 74 LINE"
);
},
{
closed = 1;
nodes = (
"805 1135 LINE",
"805 1135 LINE",
"805 1135 LINE",
"805 1135 LINE",
"805 1081 OFFCURVE",
"787 994 OFFCURVE",
"743 921 OFFCURVE",
"668 860 OFFCURVE",
"610 831 QCURVE",
"542 863 OFFCURVE",
"438 926 OFFCURVE",
"369 998 OFFCURVE",
"334 1086 OFFCURVE",
"334 1141 QCURVE SMOOTH",
"334 1194 OFFCURVE",
"365 1284 OFFCURVE",
"425 1349 OFFCURVE",
"514 1386 OFFCURVE",
"571 1386 QCURVE SMOOTH",
"636 1386 OFFCURVE",
"725 1343 OFFCURVE",
"780 1272 OFFCURVE",
"805 1182 OFFCURVE",
"805 1135 QCURVE",
"805 1135 LINE"
);
}
);
userData = {
assembly = "NPUSHB[ ]	/* 45 values pushed */\01281 54 25 5 4 2 3 1 76 0 3 3 0 97 0 0 0 56 77 4 1 2 2 1 97 0 1 1 57 1 78 45 44 72 70 44 65 45 61 36 34 46 5 9 23 \012CALL[ ]	/* CallFunction */";
};
width = 1145;
},
{
layerId = "05F2EFEE-D68A-47EA-B1CB-1F079D4BE6D1";
paths = (
{
closed = 1;
nodes = (
"559 -20 LINE",
"806 -20 OFFCURVE",
"1083 193 OFFCURVE",
"1083 387 QCURVE SMOOTH",
"1083 512 OFFCURVE",
"927 705 OFFCURVE",
"743 793 QCURVE",
"870 858 OFFCURVE",
"1019 1001 OFFCURVE",
"1019 1124 QCURVE SMOOTH",
"1019 1280 OFFCURVE",
"800 1483 OFFCURVE",
"583 1483 QCURVE SMOOTH",
"407 1483 OFFCURVE",
"198 1376 OFFCURVE",
"108 1204 OFFCURVE",
"108 1110 QCURVE SMOOTH",
"108 991 OFFCURVE",
"239 811 OFFCURVE",
"362 739 QCURVE",
"227 672 OFFCURVE",
"61 504 OFFCURVE",
"61 373 QCURVE SMOOTH",
"61 264 OFFCURVE",
"167 86 OFFCURVE",
"389 -20 OFFCURVE",
"559 -20 QCURVE",
"559 -20 LINE"
);
},
{
closed = 1;
nodes = (
"618 862 LINE",
"512 911 OFFCURVE",
"397 1028 OFFCURVE",
"397 1135 QCURVE SMOOTH",
"397 1233 OFFCURVE",
"487 1364 OFFCURVE",
"571 1364 QCURVE SMOOTH",
"634 1364 OFFCURVE",
"718 1294 OFFCURVE",
"761 1188 OFFCURVE",
"761 1128 QCURVE SMOOTH",
"761 1028 OFFCURVE",
"694 905 OFFCURVE",
"618 862 QCURVE",
"618 862 LINE"
);
},
{
closed = 1;
nodes = (
"569 96 LINE",
"464 96 OFFCURVE",
"337 246 OFFCURVE",
"337 365 QCURVE SMOOTH",
"337 471 OFFCURVE",
"430 612 OFFCURVE",
"499 657 QCURVE",
"657 586 OFFCURVE",
"798 453 OFFCURVE",
"798 352 QCURVE SMOOTH",
"798 240 OFFCURVE",
"673 96 OFFCURVE",
"569 96 QCURVE",
"569 96 LINE"
);
}
);
width = 1144;
},
{
layerId = "482B5BA1-F14A-4795-881D-282E6E2A03D9";
paths = (
{
closed = 1;
nodes = (
"569 -20 LINE",
"833 -20 OFFCURVE",
"1118 207 OFFCURVE",
"1118 385 QCURVE SMOOTH",
"1118 483 OFFCURVE",
"1055 627 OFFCURVE",
"913 745 OFFCURVE",
"795 807 QCURVE",
"924 862 OFFCURVE",
"1067 1016 OFFCURVE",
"1067 1149 QCURVE SMOOTH",
"1067 1239 OFFCURVE",
"962 1391 OFFCURVE",
"754 1483 OFFCURVE",
"598 1483 QCURVE SMOOTH",
"418 1483 OFFCURVE",
"194 1380 OFFCURVE",
"94 1208 OFFCURVE",
"94 1106 QCURVE SMOOTH",
"94 967 OFFCURVE",
"240 799 OFFCURVE",
"360 735 QCURVE",
"270 705 OFFCURVE",
"129 610 OFFCURVE",
"47 463 OFFCURVE",
"47 356 QCURVE SMOOTH",
"47 256 OFFCURVE",
"156 86 OFFCURVE",
"385 -20 OFFCURVE",
"569 -20 QCURVE",
"569 -20 LINE"
);
},
{
closed = 1;
nodes = (
"645 881 LINE",
"559 920 OFFCURVE",
"455 1049 OFFCURVE",
"455 1151 QCURVE SMOOTH",
"455 1243 OFFCURVE",
"522 1348 OFFCURVE",
"592 1348 QCURVE SMOOTH",
"661 1348 OFFCURVE",
"741 1229 OFFCURVE",
"741 1139 QCURVE SMOOTH",
"741 1032 OFFCURVE",
"684 911 OFFCURVE",
"645 881 QCURVE",
"645 881 LINE"
);
},
{
closed = 1;
nodes = (
"579 117 LINE",
"498 117 OFFCURVE",
"381 242 OFFCURVE",
"381 379 QCURVE SMOOTH",
"381 475 OFFCURVE",
"438 606 OFFCURVE",
"491 651 QCURVE",
"610 590 OFFCURVE",
"747 436 OFFCURVE",
"747 340 QCURVE SMOOTH",
"747 233 OFFCURVE",
"653 117 OFFCURVE",
"579 117 QCURVE",
"579 117 LINE"
);
}
);
width = 1165;
}
);
note = eight;
unicode = 0038;
},
{
glyphname = nine;
lastChange = "2020-08-17 13:41:11 +0000";
layers = (
{
layerId = "FFF31276-834F-49C0-8230-C5CBB7819B89";
paths = (
{
closed = 1;
nodes = (
"464 -23 LINE",
"741 -23 OFFCURVE",
"979 389 OFFCURVE",
"979 795 QCURVE SMOOTH",
"979 1137 OFFCURVE",
"747 1483 OFFCURVE",
"534 1483 QCURVE SMOOTH",
"405 1483 OFFCURVE",
"231 1360 OFFCURVE",
"145 1147 OFFCURVE",
"145 1012 QCURVE SMOOTH",
"145 889 OFFCURVE",
"231 696 OFFCURVE",
"413 588 OFFCURVE",
"553 588 QCURVE SMOOTH",
"690 588 OFFCURVE",
"862 680 OFFCURVE",
"921 733 QCURVE",
"921 393 OFFCURVE",
"698 29 OFFCURVE",
"481 29 QCURVE SMOOTH",
"385 29 OFFCURVE",
"264 92 OFFCURVE",
"229 164 QCURVE",
"211 156 OFFCURVE",
"211 123 QCURVE SMOOTH",
"211 76 OFFCURVE",
"331 -23 OFFCURVE",
"464 -23 QCURVE",
"464 -23 LINE"
);
},
{
closed = 1;
nodes = (
"544 639 LINE",
"376 639 OFFCURVE",
"202 844 OFFCURVE",
"202 1012 QCURVE SMOOTH",
"202 1126 OFFCURVE",
"268 1317 OFFCURVE",
"413 1432 OFFCURVE",
"534 1432 QCURVE SMOOTH",
"725 1432 OFFCURVE",
"921 1104 OFFCURVE",
"921 797 QCURVE",
"847 731 OFFCURVE",
"677 639 OFFCURVE",
"544 639 QCURVE",
"544 639 LINE"
);
}
);
width = 1144;
},
{
layerId = "28531FA7-6DEB-4C71-966B-2D248D7FC379";
paths = (
{
closed = 1;
nodes = (
"464 -23 LINE",
"657 -23 OFFCURVE",
"892 186 OFFCURVE",
"1001 553 OFFCURVE",
"1001 795 QCURVE SMOOTH",
"1001 1147 OFFCURVE",
"749 1483 OFFCURVE",
"538 1483 QCURVE SMOOTH",
"405 1483 OFFCURVE",
"218 1356 OFFCURVE",
"122 1135 OFFCURVE",
"122 993 QCURVE SMOOTH",
"122 797 OFFCURVE",
"335 573 OFFCURVE",
"528 573 QCURVE SMOOTH",
"648 573 OFFCURVE",
"806 664 OFFCURVE",
"859 717 QCURVE",
"853 393 OFFCURVE",
"665 61 OFFCURVE",
"472 61 QCURVE SMOOTH",
"376 61 OFFCURVE",
"259 143 OFFCURVE",
"228 211 QCURVE",
"212 205 OFFCURVE",
"188 168 OFFCURVE",
"188 139 QCURVE SMOOTH",
"188 102 OFFCURVE",
"239 27 OFFCURVE",
"360 -23 OFFCURVE",
"464 -23 QCURVE",
"464 -23 LINE"
);
},
{
closed = 1;
nodes = (
"548 664 LINE",
"263 664 OFFCURVE",
"263 1006 QCURVE SMOOTH",
"263 1180 OFFCURVE",
"398 1399 OFFCURVE",
"538 1399 QCURVE SMOOTH",
"689 1399 OFFCURVE",
"859 1114 OFFCURVE",
"861 825 QCURVE",
"812 760 OFFCURVE",
"663 664 OFFCURVE",
"548 664 QCURVE",
"548 664 LINE"
);
}
);
width = 1144;
},
{
layerId = "82773DB8-11CF-4E3D-BC1E-69725B5EFD97";
paths = (
{
closed = 1;
nodes = (
"467 90 LINE",
"467 90 LINE",
"467 90 LINE",
"467 90 LINE",
"419 90 OFFCURVE",
"343 116 OFFCURVE",
"284 161 OFFCURVE",
"243 220 OFFCURVE",
"229 252 QCURVE",
"206 244 OFFCURVE",
"168 192 OFFCURVE",
"168 154 QCURVE SMOOTH",
"168 122 OFFCURVE",
"196 58 OFFCURVE",
"263 8 OFFCURVE",
"378 -23 OFFCURVE",
"465 -23 QCURVE SMOOTH",
"564 -23 OFFCURVE",
"724 38 OFFCURVE",
"847 149 OFFCURVE",
"936 301 OFFCURVE",
"993 483 OFFCURVE",
"1020 688 OFFCURVE",
"1020 795 QCURVE SMOOTH",
"1020 975 OFFCURVE",
"949 1235 OFFCURVE",
"821 1403 OFFCURVE",
"647 1483 OFFCURVE",
"543 1483 QCURVE SMOOTH",
"440 1483 OFFCURVE",
"277 1408 OFFCURVE",
"164 1275 OFFCURVE",
"104 1090 OFFCURVE",
"104 979 QCURVE SMOOTH",
"104 875 OFFCURVE",
"163 719 OFFCURVE",
"270 615 OFFCURVE",
"419 563 OFFCURVE",
"508 563 QCURVE SMOOTH",
"562 563 OFFCURVE",
"653 586 OFFCURVE",
"728 625 OFFCURVE",
"787 675 OFFCURVE",
"809 702 QCURVE",
"799 394 OFFCURVE",
"637 90 OFFCURVE",
"467 90 QCURVE",
"467 90 LINE"
);
},
{
closed = 1;
nodes = (
"553 684 LINE",
"553 684 LINE",
"553 684 LINE",
"553 684 LINE",
"494 684 OFFCURVE",
"405 719 OFFCURVE",
"345 795 OFFCURVE",
"315 915 OFFCURVE",
"315 999 QCURVE SMOOTH",
"315 1180 OFFCURVE",
"434 1370 OFFCURVE",
"543 1370 QCURVE SMOOTH",
"602 1370 OFFCURVE",
"699 1310 OFFCURVE",
"769 1184 OFFCURVE",
"809 989 OFFCURVE",
"811 854 QCURVE SMOOTH",
"811 850 LINE",
"797 817 OFFCURVE",
"750 757 OFFCURVE",
"686 712 OFFCURVE",
"603 685 OFFCURVE",
"553 684 QCURVE",
"553 684 LINE"
);
}
);
userData = {
assembly = "NPUSHB[ ]	/* 65 values pushed */\01252 3 2 4 5 38 1 0 1 2 76 7 1 4 0 1 0 4 1 105 0 5 5 2 97 0 2 2 56 77 6 1 0 0 3 97 0 3 3 57 3 78 48 47 1 0 59 57 47 69 48 65 31 29 19 17 9 7 0 46 1 42 8 9 22 \012CALL[ ]	/* CallFunction */";
};
width = 1145;
},
{
layerId = "05F2EFEE-D68A-47EA-B1CB-1F079D4BE6D1";
paths = (
{
closed = 1;
nodes = (
"464 -20 LINE",
"622 -20 OFFCURVE",
"845 106 OFFCURVE",
"986 330 OFFCURVE",
"1052 627 OFFCURVE",
"1052 795 QCURVE SMOOTH",
"1052 1036 OFFCURVE",
"919 1339 OFFCURVE",
"687 1483 OFFCURVE",
"540 1483 QCURVE SMOOTH",
"393 1483 OFFCURVE",
"184 1358 OFFCURVE",
"71 1135 OFFCURVE",
"71 987 QCURVE SMOOTH",
"71 780 OFFCURVE",
"296 563 OFFCURVE",
"472 563 QCURVE SMOOTH",
"575 563 OFFCURVE",
"716 643 OFFCURVE",
"763 702 QCURVE",
"741 109 OFFCURVE",
"474 109 QCURVE SMOOTH",
"372 109 OFFCURVE",
"257 236 OFFCURVE",
"229 328 QCURVE",
"175 317 OFFCURVE",
"128 256 OFFCURVE",
"128 211 QCURVE SMOOTH",
"128 152 OFFCURVE",
"194 47 OFFCURVE",
"339 -20 OFFCURVE",
"464 -20 QCURVE",
"464 -20 LINE"
);
},
{
closed = 1;
nodes = (
"560 711 LINE",
"368 711 OFFCURVE",
"368 999 QCURVE SMOOTH",
"368 1171 OFFCURVE",
"464 1346 OFFCURVE",
"552 1346 QCURVE SMOOTH",
"646 1346 OFFCURVE",
"761 1110 OFFCURVE",
"763 848 QCURVE",
"735 786 OFFCURVE",
"630 711 OFFCURVE",
"560 711 QCURVE",
"560 711 LINE"
);
}
);
width = 1144;
},
{
layerId = "482B5BA1-F14A-4795-881D-282E6E2A03D9";
paths = (
{
closed = 1;
nodes = (
"477 -18 LINE",
"696 -18 OFFCURVE",
"964 186 OFFCURVE",
"1089 547 OFFCURVE",
"1089 782 QCURVE SMOOTH",
"1089 1028 OFFCURVE",
"950 1337 OFFCURVE",
"706 1483 OFFCURVE",
"551 1483 QCURVE SMOOTH",
"397 1483 OFFCURVE",
"176 1360 OFFCURVE",
"59 1141 OFFCURVE",
"59 993 QCURVE SMOOTH",
"59 786 OFFCURVE",
"286 563 OFFCURVE",
"462 563 QCURVE SMOOTH",
"565 563 OFFCURVE",
"692 627 OFFCURVE",
"737 678 QCURVE",
"727 385 OFFCURVE",
"612 123 OFFCURVE",
"497 123 QCURVE SMOOTH",
"389 123 OFFCURVE",
"292 270 OFFCURVE",
"258 395 QCURVE",
"178 383 OFFCURVE",
"112 285 OFFCURVE",
"112 236 QCURVE SMOOTH",
"112 131 OFFCURVE",
"282 -18 OFFCURVE",
"477 -18 QCURVE",
"477 -18 LINE"
);
},
{
closed = 1;
nodes = (
"577 731 LINE",
"495 731 OFFCURVE",
"409 879 OFFCURVE",
"409 999 QCURVE SMOOTH",
"409 1176 OFFCURVE",
"493 1327 OFFCURVE",
"571 1327 QCURVE SMOOTH",
"626 1327 OFFCURVE",
"700 1233 OFFCURVE",
"733 1016 OFFCURVE",
"735 834 QCURVE",
"700 774 OFFCURVE",
"624 731 OFFCURVE",
"577 731 QCURVE",
"577 731 LINE"
);
}
);
width = 1165;
}
);
note = nine;
unicode = 0039;
},
{
glyphname = colon;
lastChange = "2020-08-17 13:41:11 +0000";
layers = (
{
layerId = "FFF31276-834F-49C0-8230-C5CBB7819B89";
paths = (
{
closed = 1;
nodes = (
"224 887 LINE",
"249 887 OFFCURVE",
"284 922 OFFCURVE",
"284 969 QCURVE SMOOTH",
"284 1016 OFFCURVE",
"249 1047 OFFCURVE",
"224 1047 QCURVE SMOOTH",
"202 1047 OFFCURVE",
"165 1016 OFFCURVE",
"165 969 QCURVE SMOOTH",
"165 922 OFFCURVE",
"202 887 OFFCURVE",
"224 887 QCURVE",
"224 887 LINE"
);
},
{
closed = 1;
nodes = (
"224 -10 LINE",
"249 -10 OFFCURVE",
"284 25 OFFCURVE",
"284 72 QCURVE SMOOTH",
"284 119 OFFCURVE",
"249 150 OFFCURVE",
"224 150 QCURVE SMOOTH",
"202 150 OFFCURVE",
"165 119 OFFCURVE",
"165 72 QCURVE SMOOTH",
"165 25 OFFCURVE",
"202 -10 OFFCURVE",
"224 -10 QCURVE",
"224 -10 LINE"
);
}
);
width = 458;
},
{
layerId = "28531FA7-6DEB-4C71-966B-2D248D7FC379";
paths = (
{
closed = 1;
nodes = (
"263 856 LINE",
"302 856 OFFCURVE",
"360 905 OFFCURVE",
"360 969 QCURVE SMOOTH",
"360 1032 OFFCURVE",
"302 1079 OFFCURVE",
"263 1079 QCURVE SMOOTH",
"224 1079 OFFCURVE",
"165 1032 OFFCURVE",
"165 969 QCURVE SMOOTH",
"165 905 OFFCURVE",
"224 856 OFFCURVE",
"263 856 QCURVE",
"263 856 LINE"
);
},
{
closed = 1;
nodes = (
"263 -12 LINE",
"302 -12 OFFCURVE",
"360 37 OFFCURVE",
"360 100 QCURVE SMOOTH",
"360 164 OFFCURVE",
"302 213 OFFCURVE",
"263 213 QCURVE SMOOTH",
"224 213 OFFCURVE",
"165 164 OFFCURVE",
"165 100 QCURVE SMOOTH",
"165 37 OFFCURVE",
"224 -12 OFFCURVE",
"263 -12 QCURVE",
"263 -12 LINE"
);
}
);
width = 528;
},
{
layerId = "82773DB8-11CF-4E3D-BC1E-69725B5EFD97";
paths = (
{
closed = 1;
nodes = (
"166 125 LINE",
"166 125 LINE",
"166 125 LINE",
"166 125 LINE",
"166 86 OFFCURVE",
"186 32 OFFCURVE",
"221 0 OFFCURVE",
"268 -14 OFFCURVE",
"295 -14 QCURVE SMOOTH",
"321 -14 OFFCURVE",
"368 0 OFFCURVE",
"403 32 OFFCURVE",
"424 86 OFFCURVE",
"424 125 QCURVE SMOOTH",
"424 165 OFFCURVE",
"403 218 OFFCURVE",
"368 250 OFFCURVE",
"321 264 OFFCURVE",
"295 264 QCURVE SMOOTH",
"268 264 OFFCURVE",
"221 250 OFFCURVE",
"186 218 OFFCURVE",
"166 165 OFFCURVE",
"166 125 QCURVE",
"166 125 LINE"
);
},
{
closed = 1;
nodes = (
"166 969 LINE",
"166 969 LINE",
"166 969 LINE",
"166 969 LINE",
"166 930 OFFCURVE",
"186 876 OFFCURVE",
"221 843 OFFCURVE",
"268 829 OFFCURVE",
"295 829 QCURVE SMOOTH",
"321 829 OFFCURVE",
"368 843 OFFCURVE",
"403 876 OFFCURVE",
"424 930 OFFCURVE",
"424 969 QCURVE SMOOTH",
"424 1009 OFFCURVE",
"403 1062 OFFCURVE",
"368 1094 OFFCURVE",
"321 1108 OFFCURVE",
"295 1108 QCURVE SMOOTH",
"268 1108 OFFCURVE",
"221 1094 OFFCURVE",
"186 1062 OFFCURVE",
"166 1009 OFFCURVE",
"166 969 QCURVE",
"166 969 LINE"
);
}
);
userData = {
assembly = "NPUSHB[ ]	/* 28 values pushed */\0120 3 3 2 97 0 2 2 53 77 0 0 0 1 97 0 1 1 57 1 78 40 44 40 36 4 9 26 \012CALL[ ]	/* CallFunction */";
};
width = 586;
},
{
layerId = "05F2EFEE-D68A-47EA-B1CB-1F079D4BE6D1";
paths = (
{
closed = 1;
nodes = (
"311 788 LINE",
"379 788 OFFCURVE",
"479 860 OFFCURVE",
"479 952 QCURVE SMOOTH",
"479 1047 OFFCURVE",
"379 1116 OFFCURVE",
"311 1116 QCURVE SMOOTH",
"241 1116 OFFCURVE",
"143 1047 OFFCURVE",
"143 952 QCURVE SMOOTH",
"143 860 OFFCURVE",
"241 788 OFFCURVE",
"311 788 QCURVE",
"311 788 LINE"
);
},
{
closed = 1;
nodes = (
"311 -16 LINE",
"379 -16 OFFCURVE",
"479 55 OFFCURVE",
"479 147 QCURVE SMOOTH",
"479 242 OFFCURVE",
"379 311 OFFCURVE",
"311 311 QCURVE SMOOTH",
"241 311 OFFCURVE",
"143 242 OFFCURVE",
"143 147 QCURVE SMOOTH",
"143 55 OFFCURVE",
"241 -16 OFFCURVE",
"311 -16 QCURVE",
"311 -16 LINE"
);
}
);
width = 622;
},
{
layerId = "482B5BA1-F14A-4795-881D-282E6E2A03D9";
paths = (
{
closed = 1;
nodes = (
"323 758 LINE",
"400 758 OFFCURVE",
"519 838 OFFCURVE",
"519 940 QCURVE SMOOTH",
"519 1044 OFFCURVE",
"400 1122 OFFCURVE",
"323 1122 QCURVE SMOOTH",
"241 1122 OFFCURVE",
"126 1044 OFFCURVE",
"126 940 QCURVE SMOOTH",
"126 838 OFFCURVE",
"241 758 OFFCURVE",
"323 758 QCURVE",
"323 758 LINE"
);
},
{
closed = 1;
nodes = (
"323 -18 LINE",
"400 -18 OFFCURVE",
"519 61 OFFCURVE",
"519 164 QCURVE SMOOTH",
"519 268 OFFCURVE",
"400 346 OFFCURVE",
"323 346 QCURVE SMOOTH",
"241 346 OFFCURVE",
"126 268 OFFCURVE",
"126 164 QCURVE SMOOTH",
"126 61 OFFCURVE",
"241 -18 OFFCURVE",
"323 -18 QCURVE",
"323 -18 LINE"
);
}
);
width = 649;
}
);
note = colon;
unicode = 003A;
},
{
glyphname = semicolon;
lastChange = "2020-08-17 13:41:11 +0000";
layers = (
{
layerId = "FFF31276-834F-49C0-8230-C5CBB7819B89";
paths = (
{
closed = 1;
nodes = (
"225 887 LINE",
"250 887 OFFCURVE",
"285 922 OFFCURVE",
"285 969 QCURVE SMOOTH",
"285 1016 OFFCURVE",
"250 1047 OFFCURVE",
"225 1047 QCURVE SMOOTH",
"203 1047 OFFCURVE",
"166 1016 OFFCURVE",
"166 969 QCURVE SMOOTH",
"166 922 OFFCURVE",
"203 887 OFFCURVE",
"225 887 QCURVE",
"225 887 LINE"
);
},
{
closed = 1;
nodes = (
"86 -315 LINE",
"211 -274 OFFCURVE",
"315 -102 OFFCURVE",
"315 0 QCURVE SMOOTH",
"315 80 OFFCURVE",
"252 150 OFFCURVE",
"211 150 QCURVE SMOOTH",
"182 150 OFFCURVE",
"156 115 OFFCURVE",
"156 86 QCURVE SMOOTH",
"156 59 OFFCURVE",
"205 20 OFFCURVE",
"252 -27 OFFCURVE",
"252 -61 QCURVE SMOOTH",
"252 -94 OFFCURVE",
"219 -178 OFFCURVE",
"147 -254 OFFCURVE",
"86 -270 QCURVE",
"86 -315 LINE",
"86 -315 LINE"
);
}
);
width = 458;
},
{
layerId = "28531FA7-6DEB-4C71-966B-2D248D7FC379";
paths = (
{
closed = 1;
nodes = (
"264 856 LINE",
"303 856 OFFCURVE",
"360 905 OFFCURVE",
"360 969 QCURVE SMOOTH",
"360 1032 OFFCURVE",
"303 1079 OFFCURVE",
"264 1079 QCURVE SMOOTH",
"225 1079 OFFCURVE",
"166 1032 OFFCURVE",
"166 969 QCURVE SMOOTH",
"166 905 OFFCURVE",
"225 856 OFFCURVE",
"264 856 QCURVE",
"264 856 LINE"
);
},
{
closed = 1;
nodes = (
"92 -315 LINE",
"250 -268 OFFCURVE",
"381 -72 OFFCURVE",
"381 47 QCURVE SMOOTH",
"381 131 OFFCURVE",
"299 213 OFFCURVE",
"246 213 QCURVE SMOOTH",
"203 213 OFFCURVE",
"149 162 OFFCURVE",
"149 117 QCURVE SMOOTH",
"149 82 OFFCURVE",
"186 43 OFFCURVE",
"237 12 OFFCURVE",
"274 -25 OFFCURVE",
"274 -53 QCURVE SMOOTH",
"274 -106 OFFCURVE",
"188 -219 OFFCURVE",
"92 -248 QCURVE",
"92 -315 LINE",
"92 -315 LINE"
);
}
);
width = 528;
},
{
layerId = "82773DB8-11CF-4E3D-BC1E-69725B5EFD97";
paths = (
{
closed = 1;
nodes = (
"434 86 LINE",
"434 86 LINE",
"434 86 LINE",
"434 86 LINE",
"434 129 OFFCURVE",
"409 196 OFFCURVE",
"365 241 OFFCURVE",
"309 264 OFFCURVE",
"277 264 QCURVE SMOOTH",
"220 264 OFFCURVE",
"143 202 OFFCURVE",
"143 143 QCURVE SMOOTH",
"143 112 OFFCURVE",
"165 71 OFFCURVE",
"199 43 OFFCURVE",
"237 23 OFFCURVE",
"271 2 OFFCURVE",
"293 -25 OFFCURVE",
"293 -45 QCURVE SMOOTH",
"293 -105 OFFCURVE",
"199 -197 OFFCURVE",
"98 -229 QCURVE",
"98 -315 LINE",
"190 -288 OFFCURVE",
"317 -205 OFFCURVE",
"398 -101 OFFCURVE",
"434 21 OFFCURVE",
"434 86 QCURVE",
"434 86 LINE"
);
},
{
closed = 1;
nodes = (
"166 969 LINE",
"166 969 LINE",
"166 969 LINE",
"166 969 LINE",
"166 930 OFFCURVE",
"186 876 OFFCURVE",
"221 843 OFFCURVE",
"268 829 OFFCURVE",
"295 829 QCURVE SMOOTH",
"321 829 OFFCURVE",
"368 843 OFFCURVE",
"403 876 OFFCURVE",
"424 930 OFFCURVE",
"424 969 QCURVE SMOOTH",
"424 1009 OFFCURVE",
"403 1062 OFFCURVE",
"368 1094 OFFCURVE",
"321 1108 OFFCURVE",
"295 1108 QCURVE SMOOTH",
"268 1108 OFFCURVE",
"221 1094 OFFCURVE",
"186 1062 OFFCURVE",
"166 1009 OFFCURVE",
"166 969 QCURVE",
"166 969 LINE"
);
}
);
userData = {
assembly = "NPUSHB[ ]	/* 30 values pushed */\0126 5 2 0 73 0 0 2 0 134 0 2 2 1 97 0 1 1 53 2 78 44 42 34 32 20 18 3 9 22 \012CALL[ ]	/* CallFunction */";
};
width = 586;
},
{
layerId = "05F2EFEE-D68A-47EA-B1CB-1F079D4BE6D1";
paths = (
{
closed = 1;
nodes = (
"311 788 LINE",
"378 788 OFFCURVE",
"479 860 OFFCURVE",
"479 952 QCURVE SMOOTH",
"479 1047 OFFCURVE",
"378 1116 OFFCURVE",
"311 1116 QCURVE SMOOTH",
"241 1116 OFFCURVE",
"143 1047 OFFCURVE",
"143 952 QCURVE SMOOTH",
"143 860 OFFCURVE",
"241 788 OFFCURVE",
"311 788 QCURVE",
"311 788 LINE"
);
},
{
closed = 1;
nodes = (
"112 -315 LINE",
"311 -262 OFFCURVE",
"479 -45 OFFCURVE",
"479 86 QCURVE SMOOTH",
"479 190 OFFCURVE",
"376 311 OFFCURVE",
"290 311 QCURVE SMOOTH",
"227 311 OFFCURVE",
"143 240 OFFCURVE",
"143 170 QCURVE SMOOTH",
"143 109 OFFCURVE",
"188 45 OFFCURVE",
"247 10 OFFCURVE",
"292 -20 OFFCURVE",
"292 -49 QCURVE SMOOTH",
"292 -109 OFFCURVE",
"200 -176 OFFCURVE",
"112 -209 QCURVE",
"112 -315 LINE",
"112 -315 LINE"
);
}
);
width = 622;
},
{
layerId = "482B5BA1-F14A-4795-881D-282E6E2A03D9";
paths = (
{
closed = 1;
nodes = (
"323 758 LINE",
"401 758 OFFCURVE",
"519 838 OFFCURVE",
"519 940 QCURVE SMOOTH",
"519 1044 OFFCURVE",
"401 1122 OFFCURVE",
"323 1122 QCURVE SMOOTH",
"241 1122 OFFCURVE",
"126 1044 OFFCURVE",
"126 940 QCURVE SMOOTH",
"126 838 OFFCURVE",
"241 758 OFFCURVE",
"323 758 QCURVE",
"323 758 LINE"
);
},
{
closed = 1;
nodes = (
"118 -315 LINE",
"331 -262 OFFCURVE",
"507 -45 OFFCURVE",
"507 86 QCURVE SMOOTH",
"507 205 OFFCURVE",
"411 346 OFFCURVE",
"308 346 QCURVE SMOOTH",
"241 346 OFFCURVE",
"138 266 OFFCURVE",
"138 190 QCURVE SMOOTH",
"138 119 OFFCURVE",
"184 43 OFFCURVE",
"243 6 OFFCURVE",
"288 -25 OFFCURVE",
"288 -51 QCURVE SMOOTH",
"288 -111 OFFCURVE",
"200 -162 OFFCURVE",
"118 -195 QCURVE",
"118 -315 LINE",
"118 -315 LINE"
);
}
);
width = 649;
}
);
note = semicolon;
unicode = 003B;
},
{
glyphname = less;
lastChange = "2020-08-17 13:41:11 +0000";
layers = (
{
layerId = "FFF31276-834F-49C0-8230-C5CBB7819B89";
paths = (
{
closed = 1;
nodes = (
"1012 305 LINE",
"194 731 LINE",
"1012 1161 LINE",
"1012 1225 LINE",
"133 760 LINE",
"133 705 LINE",
"1012 242 LINE",
"1012 242 LINE"
);
}
);
width = 1144;
},
{
layerId = "28531FA7-6DEB-4C71-966B-2D248D7FC379";
paths = (
{
closed = 1;
nodes = (
"1012 336 LINE",
"264 731 LINE",
"1012 1130 LINE",
"1012 1233 LINE",
"133 764 LINE",
"133 700 LINE",
"1012 233 LINE",
"1012 233 LINE"
);
}
);
width = 1144;
},
{
layerId = "82773DB8-11CF-4E3D-BC1E-69725B5EFD97";
paths = (
{
closed = 1;
nodes = (
"1012 225 LINE",
"1012 362 LINE",
"324 731 LINE",
"1012 1104 LINE",
"1012 1241 LINE",
"133 768 LINE",
"133 696 LINE",
"133 696 LINE"
);
}
);
userData = {
assembly = "PUSHB[ ]	/* 4 values pushed */\0126 2 1 50 \012CALL[ ]	/* CallFunction */";
};
width = 1145;
},
{
layerId = "05F2EFEE-D68A-47EA-B1CB-1F079D4BE6D1";
paths = (
{
closed = 1;
nodes = (
"1012 375 LINE",
"352 731 LINE",
"1012 1092 LINE",
"1012 1253 LINE",
"133 774 LINE",
"133 690 LINE",
"1012 213 LINE",
"1012 213 LINE"
);
}
);
width = 1144;
},
{
layerId = "482B5BA1-F14A-4795-881D-282E6E2A03D9";
paths = (
{
closed = 1;
nodes = (
"1042 362 LINE",
"362 731 LINE",
"1042 1104 LINE",
"1042 1282 LINE",
"122 778 LINE",
"122 686 LINE",
"1042 184 LINE",
"1042 184 LINE"
);
}
);
width = 1165;
}
);
note = less;
unicode = 003C;
},
{
glyphname = equal;
lastChange = "2020-08-17 13:41:11 +0000";
layers = (
{
layerId = "FFF31276-834F-49C0-8230-C5CBB7819B89";
paths = (
{
closed = 1;
nodes = (
"1003 924 LINE",
"1003 981 LINE",
"137 981 LINE",
"137 924 LINE",
"137 924 LINE"
);
},
{
closed = 1;
nodes = (
"1003 481 LINE",
"1003 539 LINE",
"137 539 LINE",
"137 481 LINE",
"137 481 LINE"
);
}
);
width = 1144;
},
{
layerId = "28531FA7-6DEB-4C71-966B-2D248D7FC379";
paths = (
{
closed = 1;
nodes = (
"1007 895 LINE",
"1007 987 LINE",
"135 987 LINE",
"135 895 LINE",
"135 895 LINE"
);
},
{
closed = 1;
nodes = (
"1007 475 LINE",
"1007 567 LINE",
"135 567 LINE",
"135 475 LINE",
"135 475 LINE"
);
}
);
width = 1144;
},
{
layerId = "82773DB8-11CF-4E3D-BC1E-69725B5EFD97";
paths = (
{
closed = 1;
nodes = (
"133 993 LINE",
"133 872 LINE",
"1012 872 LINE",
"1012 993 LINE",
"1012 993 LINE"
);
},
{
closed = 1;
nodes = (
"133 590 LINE",
"133 469 LINE",
"1012 469 LINE",
"1012 590 LINE",
"1012 590 LINE"
);
}
);
userData = {
assembly = "NPUSHB[ ]	/* 45 values pushed */\0124 1 1 0 0 3 1 0 103 5 1 3 2 2 3 87 5 1 3 3 2 95 0 2 3 2 79 4 4 0 0 4 7 4 7 6 5 0 3 0 3 17 6 9 23 \012CALL[ ]	/* CallFunction */";
};
width = 1145;
},
{
layerId = "05F2EFEE-D68A-47EA-B1CB-1F079D4BE6D1";
paths = (
{
closed = 1;
nodes = (
"1016 858 LINE",
"1016 1001 LINE",
"129 1001 LINE",
"129 858 LINE",
"129 858 LINE"
);
},
{
closed = 1;
nodes = (
"1016 461 LINE",
"1016 604 LINE",
"129 604 LINE",
"129 461 LINE",
"129 461 LINE"
);
}
);
width = 1144;
},
{
layerId = "482B5BA1-F14A-4795-881D-282E6E2A03D9";
paths = (
{
closed = 1;
nodes = (
"1050 868 LINE",
"1050 1028 LINE",
"116 1028 LINE",
"116 868 LINE",
"116 868 LINE"
);
},
{
closed = 1;
nodes = (
"1050 434 LINE",
"1050 594 LINE",
"116 594 LINE",
"116 434 LINE",
"116 434 LINE"
);
}
);
width = 1165;
}
);
note = equal;
unicode = 003D;
},
{
glyphname = greater;
lastChange = "2020-08-17 13:41:11 +0000";
layers = (
{
layerId = "FFF31276-834F-49C0-8230-C5CBB7819B89";
paths = (
{
closed = 1;
nodes = (
"1012 705 LINE",
"1012 760 LINE",
"133 1225 LINE",
"133 1161 LINE",
"942 731 LINE",
"133 305 LINE",
"133 242 LINE",
"133 242 LINE"
);
}
);
width = 1144;
},
{
layerId = "28531FA7-6DEB-4C71-966B-2D248D7FC379";
paths = (
{
closed = 1;
nodes = (
"1012 700 LINE",
"1012 764 LINE",
"133 1233 LINE",
"133 1130 LINE",
"876 731 LINE",
"133 336 LINE",
"133 233 LINE",
"133 233 LINE"
);
}
);
width = 1144;
},
{
layerId = "82773DB8-11CF-4E3D-BC1E-69725B5EFD97";
paths = (
{
closed = 1;
nodes = (
"1012 696 LINE",
"1012 768 LINE",
"133 1241 LINE",
"133 1104 LINE",
"821 731 LINE",
"133 362 LINE",
"133 225 LINE",
"133 225 LINE"
);
}
);
userData = {
assembly = "PUSHB[ ]	/* 4 values pushed */\0124 0 1 50 \012CALL[ ]	/* CallFunction */";
};
width = 1145;
},
{
layerId = "05F2EFEE-D68A-47EA-B1CB-1F079D4BE6D1";
paths = (
{
closed = 1;
nodes = (
"1012 690 LINE",
"1012 774 LINE",
"133 1253 LINE",
"133 1092 LINE",
"792 731 LINE",
"133 375 LINE",
"133 213 LINE",
"133 213 LINE"
);
}
);
width = 1144;
},
{
layerId = "482B5BA1-F14A-4795-881D-282E6E2A03D9";
paths = (
{
closed = 1;
nodes = (
"1042 686 LINE",
"1042 778 LINE",
"122 1282 LINE",
"122 1104 LINE",
"802 731 LINE",
"122 362 LINE",
"122 184 LINE",
"122 184 LINE"
);
}
);
width = 1165;
}
);
note = greater;
unicode = 003E;
},
{
glyphname = question;
lastChange = "2020-08-17 13:41:11 +0000";
layers = (
{
layerId = "FFF31276-834F-49C0-8230-C5CBB7819B89";
paths = (
{
closed = 1;
nodes = (
"374 342 LINE",
"419 342 LINE",
"425 662 LINE",
"593 741 OFFCURVE",
"763 958 OFFCURVE",
"763 1128 QCURVE SMOOTH",
"763 1229 OFFCURVE",
"677 1391 OFFCURVE",
"517 1483 OFFCURVE",
"407 1483 QCURVE SMOOTH",
"309 1483 OFFCURVE",
"180 1432 OFFCURVE",
"104 1356 OFFCURVE",
"71 1278 OFFCURVE",
"71 1251 QCURVE SMOOTH",
"71 1165 OFFCURVE",
"116 1165 QCURVE",
"116 1227 OFFCURVE",
"169 1350 OFFCURVE",
"298 1432 OFFCURVE",
"411 1432 QCURVE SMOOTH",
"548 1432 OFFCURVE",
"706 1262 OFFCURVE",
"706 1128 QCURVE SMOOTH",
"706 971 OFFCURVE",
"540 770 OFFCURVE",
"368 690 QCURVE",
"374 342 LINE",
"374 342 LINE"
);
},
{
closed = 1;
nodes = (
"395 -10 LINE",
"419 -10 OFFCURVE",
"454 25 OFFCURVE",
"454 72 QCURVE SMOOTH",
"454 119 OFFCURVE",
"419 150 OFFCURVE",
"395 150 QCURVE SMOOTH",
"372 150 OFFCURVE",
"335 119 OFFCURVE",
"335 72 QCURVE SMOOTH",
"335 25 OFFCURVE",
"372 -10 OFFCURVE",
"395 -10 QCURVE",
"395 -10 LINE"
);
}
);
width = 849;
},
{
layerId = "28531FA7-6DEB-4C71-966B-2D248D7FC379";
paths = (
{
closed = 1;
nodes = (
"380 381 LINE",
"460 381 LINE",
"466 651 LINE",
"642 731 OFFCURVE",
"833 950 OFFCURVE",
"833 1120 QCURVE SMOOTH",
"833 1284 OFFCURVE",
"610 1483 OFFCURVE",
"429 1483 QCURVE SMOOTH",
"298 1483 OFFCURVE",
"141 1409 OFFCURVE",
"69 1303 OFFCURVE",
"69 1249 QCURVE SMOOTH",
"69 1196 OFFCURVE",
"132 1139 OFFCURVE",
"182 1139 QCURVE",
"182 1204 OFFCURVE",
"229 1327 OFFCURVE",
"343 1405 OFFCURVE",
"442 1405 QCURVE SMOOTH",
"569 1405 OFFCURVE",
"700 1257 OFFCURVE",
"700 1139 QCURVE SMOOTH",
"700 999 OFFCURVE",
"550 786 OFFCURVE",
"372 709 QCURVE",
"380 381 LINE",
"380 381 LINE"
);
},
{
closed = 1;
nodes = (
"417 -12 LINE",
"458 -12 OFFCURVE",
"513 37 OFFCURVE",
"513 100 QCURVE SMOOTH",
"513 164 OFFCURVE",
"458 213 OFFCURVE",
"417 213 QCURVE SMOOTH",
"376 213 OFFCURVE",
"319 164 OFFCURVE",
"319 100 QCURVE SMOOTH",
"319 37 OFFCURVE",
"376 -12 OFFCURVE",
"417 -12 QCURVE",
"417 -12 LINE"
);
}
);
width = 915;
},
{
layerId = "82773DB8-11CF-4E3D-BC1E-69725B5EFD97";
paths = (
{
closed = 1;
nodes = (
"522 412 LINE",
"522 412 LINE",
"522 412 LINE",
"522 412 LINE",
"522 643 LINE",
"617 682 OFFCURVE",
"765 776 OFFCURVE",
"867 890 OFFCURVE",
"920 1028 OFFCURVE",
"920 1112 QCURVE SMOOTH",
"920 1200 OFFCURVE",
"852 1338 OFFCURVE",
"732 1433 OFFCURVE",
"568 1483 OFFCURVE",
"471 1483 QCURVE SMOOTH",
"372 1483 OFFCURVE",
"228 1448 OFFCURVE",
"133 1386 OFFCURVE",
"88 1302 OFFCURVE",
"88 1253 QCURVE SMOOTH",
"88 1220 OFFCURVE",
"114 1170 OFFCURVE",
"159 1137 OFFCURVE",
"221 1120 OFFCURVE",
"258 1120 QCURVE",
"258 1173 OFFCURVE",
"282 1268 OFFCURVE",
"336 1340 OFFCURVE",
"423 1382 OFFCURVE",
"487 1382 QCURVE SMOOTH",
"546 1382 OFFCURVE",
"631 1348 OFFCURVE",
"685 1287 OFFCURVE",
"711 1200 OFFCURVE",
"711 1147 QCURVE SMOOTH",
"711 1086 OFFCURVE",
"680 965 OFFCURVE",
"607 854 OFFCURVE",
"486 759 OFFCURVE",
"397 723 QCURVE",
"397 412 LINE",
"522 412 LINE",
"522 412 LINE"
);
},
{
closed = 1;
nodes = (
"328 125 LINE",
"328 125 LINE",
"328 125 LINE",
"328 125 LINE",
"328 86 OFFCURVE",
"348 32 OFFCURVE",
"383 0 OFFCURVE",
"430 -14 OFFCURVE",
"457 -14 QCURVE SMOOTH",
"483 -14 OFFCURVE",
"530 0 OFFCURVE",
"565 32 OFFCURVE",
"586 86 OFFCURVE",
"586 125 QCURVE SMOOTH",
"586 165 OFFCURVE",
"565 218 OFFCURVE",
"530 250 OFFCURVE",
"483 264 OFFCURVE",
"457 264 QCURVE SMOOTH",
"430 264 OFFCURVE",
"383 250 OFFCURVE",
"348 218 OFFCURVE",
"328 165 OFFCURVE",
"328 125 QCURVE",
"328 125 LINE"
);
}
);
userData = {
assembly = "NPUSHB[ ]	/* 63 values pushed */\01237 2 2 0 2 1 76 0 2 1 0 1 2 0 128 6 1 0 4 1 0 4 126 0 1 1 3 97 0 3 3 56 77 0 4 4 5 97 0 5 5 57 5 78 1 0 58 56 48 46 28 26 18 17 13 11 0 41 1 38 7 9 22 \012CALL[ ]	/* CallFunction */";
};
width = 1024;
},
{
layerId = "05F2EFEE-D68A-47EA-B1CB-1F079D4BE6D1";
paths = (
{
closed = 1;
nodes = (
"425 467 LINE",
"579 467 LINE",
"605 653 LINE",
"810 737 OFFCURVE",
"1013 942 OFFCURVE",
"1013 1106 QCURVE SMOOTH",
"1013 1225 OFFCURVE",
"882 1393 OFFCURVE",
"655 1483 OFFCURVE",
"511 1483 QCURVE SMOOTH",
"286 1483 OFFCURVE",
"75 1346 OFFCURVE",
"75 1245 QCURVE SMOOTH",
"75 1174 OFFCURVE",
"237 1102 OFFCURVE",
"364 1102 QCURVE",
"364 1206 OFFCURVE",
"435 1360 OFFCURVE",
"528 1360 QCURVE SMOOTH",
"612 1360 OFFCURVE",
"687 1237 OFFCURVE",
"687 1139 QCURVE SMOOTH",
"687 1057 OFFCURVE",
"640 901 OFFCURVE",
"515 766 OFFCURVE",
"399 719 QCURVE",
"425 467 LINE",
"425 467 LINE"
);
},
{
closed = 1;
nodes = (
"499 -16 LINE",
"567 -16 OFFCURVE",
"667 55 OFFCURVE",
"667 147 QCURVE SMOOTH",
"667 242 OFFCURVE",
"567 311 OFFCURVE",
"499 311 QCURVE SMOOTH",
"429 311 OFFCURVE",
"331 242 OFFCURVE",
"331 147 QCURVE SMOOTH",
"331 55 OFFCURVE",
"429 -16 OFFCURVE",
"499 -16 QCURVE",
"499 -16 LINE"
);
}
);
width = 1126;
},
{
layerId = "482B5BA1-F14A-4795-881D-282E6E2A03D9";
paths = (
{
closed = 1;
nodes = (
"440 487 LINE",
"614 487 LINE",
"661 662 LINE",
"802 721 OFFCURVE",
"983 842 OFFCURVE",
"1069 995 OFFCURVE",
"1069 1102 QCURVE SMOOTH",
"1069 1282 OFFCURVE",
"780 1483 OFFCURVE",
"534 1483 QCURVE SMOOTH",
"370 1483 OFFCURVE",
"159 1403 OFFCURVE",
"59 1278 OFFCURVE",
"59 1208 QCURVE SMOOTH",
"59 1106 OFFCURVE",
"233 1036 OFFCURVE",
"397 1036 QCURVE",
"397 1200 OFFCURVE",
"469 1343 OFFCURVE",
"536 1343 QCURVE SMOOTH",
"598 1343 OFFCURVE",
"667 1233 OFFCURVE",
"667 1133 QCURVE SMOOTH",
"667 1044 OFFCURVE",
"624 899 OFFCURVE",
"508 772 OFFCURVE",
"393 717 QCURVE",
"440 487 LINE",
"440 487 LINE"
);
},
{
closed = 1;
nodes = (
"522 -18 LINE",
"598 -18 OFFCURVE",
"714 63 OFFCURVE",
"714 170 QCURVE SMOOTH",
"714 279 OFFCURVE",
"598 358 OFFCURVE",
"522 358 QCURVE SMOOTH",
"442 358 OFFCURVE",
"331 279 OFFCURVE",
"331 170 QCURVE SMOOTH",
"331 63 OFFCURVE",
"442 -18 OFFCURVE",
"522 -18 QCURVE",
"522 -18 LINE"
);
}
);
width = 1140;
}
);
note = question;
unicode = 003F;
},
{
glyphname = at;
lastChange = "2020-08-17 13:41:11 +0000";
layers = (
{
layerId = "FFF31276-834F-49C0-8230-C5CBB7819B89";
paths = (
{
closed = 1;
nodes = (
"798 -291 LINE",
"917 -291 OFFCURVE",
"1115 -231 OFFCURVE",
"1275 -139 OFFCURVE",
"1336 -92 QCURVE",
"1304 -53 LINE",
"1248 -98 OFFCURVE",
"1103 -182 OFFCURVE",
"921 -240 OFFCURVE",
"806 -240 QCURVE SMOOTH",
"525 -240 OFFCURVE",
"226 61 OFFCURVE",
"226 393 QCURVE SMOOTH",
"226 602 OFFCURVE",
"347 971 OFFCURVE",
"575 1251 OFFCURVE",
"894 1411 OFFCURVE",
"1093 1411 QCURVE SMOOTH",
"1265 1411 OFFCURVE",
"1531 1257 OFFCURVE",
"1682 983 OFFCURVE",
"1682 807 QCURVE SMOOTH",
"1682 680 OFFCURVE",
"1617 463 OFFCURVE",
"1512 301 OFFCURVE",
"1390 209 OFFCURVE",
"1330 209 QCURVE SMOOTH",
"1246 209 OFFCURVE",
"1177 301 OFFCURVE",
"1177 377 QCURVE SMOOTH",
"1177 418 OFFCURVE",
"1187 512 OFFCURVE",
"1207 596 QCURVE SMOOTH",
"1324 1065 LINE",
"1306 1065 LINE",
"1256 1018 LINE",
"1222 1044 OFFCURVE",
"1105 1083 OFFCURVE",
"1050 1083 QCURVE SMOOTH",
"912 1083 OFFCURVE",
"691 926 OFFCURVE",
"560 655 OFFCURVE",
"560 485 QCURVE SMOOTH",
"560 311 OFFCURVE",
"710 158 OFFCURVE",
"818 158 QCURVE SMOOTH",
"900 158 OFFCURVE",
"1019 231 OFFCURVE",
"1097 332 OFFCURVE",
"1117 373 QCURVE",
"1121 373 LINE",
"1119 281 OFFCURVE",
"1228 158 OFFCURVE",
"1330 158 QCURVE SMOOTH",
"1402 158 OFFCURVE",
"1547 254 OFFCURVE",
"1668 426 OFFCURVE",
"1740 662 OFFCURVE",
"1740 803 QCURVE SMOOTH",
"1740 995 OFFCURVE",
"1580 1292 OFFCURVE",
"1285 1462 OFFCURVE",
"1084 1462 QCURVE SMOOTH",
"896 1462 OFFCURVE",
"564 1313 OFFCURVE",
"312 1030 OFFCURVE",
"169 631 OFFCURVE",
"169 381 QCURVE SMOOTH",
"169 41 OFFCURVE",
"497 -291 OFFCURVE",
"798 -291 QCURVE",
"798 -291 LINE"
);
},
{
closed = 1;
nodes = (
"828 209 LINE",
"734 209 OFFCURVE",
"618 342 OFFCURVE",
"618 481 QCURVE SMOOTH",
"618 584 OFFCURVE",
"677 780 OFFCURVE",
"787 938 OFFCURVE",
"949 1032 OFFCURVE",
"1050 1032 QCURVE SMOOTH",
"1113 1032 OFFCURVE",
"1216 989 OFFCURVE",
"1240 969 QCURVE",
"1121 481 LINE SMOOTH",
"1113 446 OFFCURVE",
"1060 356 OFFCURVE",
"980 266 OFFCURVE",
"882 209 OFFCURVE",
"828 209 QCURVE",
"828 209 LINE"
);
}
);
width = 1886;
},
{
layerId = "28531FA7-6DEB-4C71-966B-2D248D7FC379";
paths = (
{
closed = 1;
nodes = (
"845 -291 LINE",
"1030 -291 OFFCURVE",
"1314 -164 OFFCURVE",
"1411 -90 QCURVE",
"1370 -33 LINE",
"1284 -98 OFFCURVE",
"1028 -209 OFFCURVE",
"860 -209 QCURVE SMOOTH",
"684 -209 OFFCURVE",
"415 -80 OFFCURVE",
"264 201 OFFCURVE",
"264 424 QCURVE SMOOTH",
"264 635 OFFCURVE",
"389 985 OFFCURVE",
"614 1241 OFFCURVE",
"911 1382 OFFCURVE",
"1083 1382 QCURVE SMOOTH",
"1253 1382 OFFCURVE",
"1517 1245 OFFCURVE",
"1667 987 OFFCURVE",
"1667 809 QCURVE SMOOTH",
"1667 639 OFFCURVE",
"1570 381 OFFCURVE",
"1429 240 OFFCURVE",
"1361 240 QCURVE SMOOTH",
"1298 240 OFFCURVE",
"1224 319 OFFCURVE",
"1224 393 QCURVE SMOOTH",
"1224 434 OFFCURVE",
"1236 528 OFFCURVE",
"1247 567 QCURVE",
"1355 1065 LINE",
"1320 1065 LINE",
"1253 1020 LINE",
"1220 1047 OFFCURVE",
"1116 1083 OFFCURVE",
"1054 1083 QCURVE SMOOTH",
"931 1083 OFFCURVE",
"741 979 OFFCURVE",
"612 807 OFFCURVE",
"546 600 OFFCURVE",
"546 498 QCURVE SMOOTH",
"546 322 OFFCURVE",
"716 158 OFFCURVE",
"835 158 QCURVE SMOOTH",
"909 158 OFFCURVE",
"1019 217 OFFCURVE",
"1097 309 OFFCURVE",
"1122 356 QCURVE",
"1128 356 LINE",
"1142 266 OFFCURVE",
"1261 158 OFFCURVE",
"1355 158 QCURVE SMOOTH",
"1427 158 OFFCURVE",
"1570 250 OFFCURVE",
"1689 422 OFFCURVE",
"1761 659 OFFCURVE",
"1761 803 QCURVE SMOOTH",
"1761 991 OFFCURVE",
"1603 1290 OFFCURVE",
"1302 1462 OFFCURVE",
"1085 1462 QCURVE SMOOTH",
"884 1462 OFFCURVE",
"544 1311 OFFCURVE",
"290 1032 OFFCURVE",
"149 649 OFFCURVE",
"149 416 QCURVE SMOOTH",
"149 178 OFFCURVE",
"321 -135 OFFCURVE",
"634 -291 OFFCURVE",
"845 -291 QCURVE",
"845 -291 LINE"
);
},
{
closed = 1;
nodes = (
"858 240 LINE",
"778 240 OFFCURVE",
"677 358 OFFCURVE",
"677 479 QCURVE SMOOTH",
"677 561 OFFCURVE",
"724 748 OFFCURVE",
"819 911 OFFCURVE",
"962 1014 OFFCURVE",
"1058 1014 QCURVE SMOOTH",
"1110 1014 OFFCURVE",
"1191 977 OFFCURVE",
"1208 952 QCURVE",
"1112 504 LINE SMOOTH",
"1101 451 OFFCURVE",
"1034 326 OFFCURVE",
"929 240 OFFCURVE",
"858 240 QCURVE",
"858 240 LINE"
);
}
);
width = 1886;
},
{
layerId = "82773DB8-11CF-4E3D-BC1E-69725B5EFD97";
paths = (
{
closed = 1;
nodes = (
"1778 803 LINE",
"1778 803 LINE",
"1778 803 LINE",
"1778 803 LINE",
"1778 942 OFFCURVE",
"1691 1183 OFFCURVE",
"1517 1360 OFFCURVE",
"1257 1462 OFFCURVE",
"1085 1462 QCURVE SMOOTH",
"945 1462 OFFCURVE",
"696 1392 OFFCURVE",
"484 1263 OFFCURVE",
"315 1080 OFFCURVE",
"196 854 OFFCURVE",
"133 591 OFFCURVE",
"133 446 QCURVE SMOOTH",
"133 260 OFFCURVE",
"245 -16 OFFCURVE",
"444 -200 OFFCURVE",
"720 -291 OFFCURVE",
"885 -291 QCURVE SMOOTH",
"980 -291 OFFCURVE",
"1149 -256 OFFCURVE",
"1296 -199 OFFCURVE",
"1422 -126 OFFCURVE",
"1473 -88 QCURVE",
"1425 -14 LINE",
"1381 -46 OFFCURVE",
"1270 -107 OFFCURVE",
"1139 -155 OFFCURVE",
"989 -184 OFFCURVE",
"905 -184 QCURVE SMOOTH",
"781 -184 OFFCURVE",
"560 -114 OFFCURVE",
"393 39 OFFCURVE",
"295 280 OFFCURVE",
"295 451 QCURVE SMOOTH",
"295 591 OFFCURVE",
"355 835 OFFCURVE",
"461 1036 OFFCURVE",
"608 1193 OFFCURVE",
"780 1302 OFFCURVE",
"973 1358 OFFCURVE",
"1073 1358 QCURVE SMOOTH",
"1201 1358 OFFCURVE",
"1414 1287 OFFCURVE",
"1567 1148 OFFCURVE",
"1653 943 OFFCURVE",
"1653 809 QCURVE SMOOTH",
"1653 679 OFFCURVE",
"1604 477 OFFCURVE",
"1528 338 OFFCURVE",
"1434 266 OFFCURVE",
"1389 266 QCURVE SMOOTH",
"1364 266 OFFCURVE",
"1319 282 OFFCURVE",
"1285 317 OFFCURVE",
"1264 370 OFFCURVE",
"1264 406 QCURVE SMOOTH",
"1264 427 OFFCURVE",
"1268 475 OFFCURVE",
"1271 495 QCURVE SMOOTH",
"1275 519 OFFCURVE",
"1278 543 QCURVE",
"1382 1065 LINE",
"1333 1065 LINE",
"1251 1022 LINE",
"1220 1047 OFFCURVE",
"1125 1083 OFFCURVE",
"1059 1083 QCURVE SMOOTH",
"965 1083 OFFCURVE",
"814 1028 OFFCURVE",
"698 937 OFFCURVE",
"615 818 OFFCURVE",
"562 691 OFFCURVE",
"537 563 OFFCURVE",
"537 508 QCURVE SMOOTH",
"537 418 OFFCURVE",
"588 286 OFFCURVE",
"673 200 OFFCURVE",
"786 158 OFFCURVE",
"848 158 QCURVE SMOOTH",
"900 158 OFFCURVE",
"983 186 OFFCURVE",
"1050 236 OFFCURVE",
"1103 304 OFFCURVE",
"1124 344 QCURVE",
"1135 344 LINE",
"1164 256 OFFCURVE",
"1285 158 OFFCURVE",
"1376 158 QCURVE SMOOTH",
"1447 158 OFFCURVE",
"1590 248 OFFCURVE",
"1706 416 OFFCURVE",
"1778 655 OFFCURVE",
"1778 803 QCURVE",
"1778 803 LINE"
);
},
{
closed = 1;
nodes = (
"727 479 LINE",
"727 479 LINE",
"727 479 LINE",
"727 479 LINE",
"727 523 OFFCURVE",
"743 633 OFFCURVE",
"778 749 OFFCURVE",
"832 860 OFFCURVE",
"907 946 OFFCURVE",
"1006 999 OFFCURVE",
"1067 999 QCURVE SMOOTH",
"1104 999 OFFCURVE",
"1169 967 OFFCURVE",
"1182 938 QCURVE",
"1104 522 LINE SMOOTH",
"1095 475 OFFCURVE",
"1063 383 OFFCURVE",
"1011 311 OFFCURVE",
"935 266 OFFCURVE",
"883 266 QCURVE SMOOTH",
"814 266 OFFCURVE",
"727 371 OFFCURVE",
"727 479 QCURVE",
"727 479 LINE"
);
}
);
userData = {
assembly = "MPPEM[ ]	/* MeasurePixelPerEm */\012PUSHB[ ]	/* 1 value pushed */\01229 \012LT[ ]	/* LessThan */\012IF[ ]	/* If */\012NPUSHB[ ]	/* 16 values pushed */\01229 1 10 2 105 8 2 4 10 70 69 2 6 0 3 76 \012ELSE[ ]	/* Else */\012NPUSHB[ ]	/* 16 values pushed */\01229 1 10 3 105 8 2 4 10 70 69 2 6 0 3 76 \012EIF[ ]	/* EndIf */\012MPPEM[ ]	/* MeasurePixelPerEm */\012PUSHB[ ]	/* 1 value pushed */\01229 \012LT[ ]	/* LessThan */\012IF[ ]	/* If */\012NPUSHB[ ]	/* 39 values pushed */\0129 1 4 1 1 0 6 4 0 106 0 6 0 7 6 7 101 0 5 5 8 97 0 8 8 50 77 0 10 10 2 97 3 1 2 2 53 10 78 \012ELSE[ ]	/* Else */\012MPPEM[ ]	/* MeasurePixelPerEm */\012PUSHB[ ]	/* 1 value pushed */\01230 \012LT[ ]	/* LessThan */\012IF[ ]	/* If */\012NPUSHB[ ]	/* 43 values pushed */\0129 1 4 1 1 0 6 4 0 106 0 6 0 7 6 7 101 0 5 5 8 97 0 8 8 50 77 0 3 3 53 77 0 10 10 2 97 0 2 2 53 10 78 \012ELSE[ ]	/* Else */\012NPUSHB[ ]	/* 46 values pushed */\0120 3 2 10 2 3 10 128 9 1 4 1 1 0 6 4 0 106 0 6 0 7 6 7 101 0 5 5 8 97 0 8 8 50 77 0 10 10 2 97 0 2 2 53 10 78 \012EIF[ ]	/* EndIf */\012EIF[ ]	/* EndIf */\012NPUSHB[ ]	/* 16 values pushed */\012109 107 100 98 42 41 42 40 42 19 42 39 36 11 9 31 \012CALL[ ]	/* CallFunction */";
};
width = 1886;
},
{
layerId = "05F2EFEE-D68A-47EA-B1CB-1F079D4BE6D1";
paths = (
{
closed = 1;
nodes = (
"954 -291 LINE",
"1148 -291 OFFCURVE",
"1478 -174 OFFCURVE",
"1585 -92 QCURVE",
"1536 -14 LINE",
"1441 -78 OFFCURVE",
"1148 -186 OFFCURVE",
"983 -186 QCURVE SMOOTH",
"843 -186 OFFCURVE",
"600 -111 OFFCURVE",
"411 49 OFFCURVE",
"305 307 OFFCURVE",
"305 487 QCURVE SMOOTH",
"305 690 OFFCURVE",
"434 1012 OFFCURVE",
"651 1237 OFFCURVE",
"925 1358 OFFCURVE",
"1071 1358 QCURVE SMOOTH",
"1237 1358 OFFCURVE",
"1493 1233 OFFCURVE",
"1640 983 OFFCURVE",
"1640 795 QCURVE SMOOTH",
"1640 627 OFFCURVE",
"1568 395 OFFCURVE",
"1458 276 OFFCURVE",
"1404 276 QCURVE SMOOTH",
"1372 276 OFFCURVE",
"1306 330 OFFCURVE",
"1306 414 QCURVE SMOOTH",
"1306 438 OFFCURVE",
"1316 528 OFFCURVE",
"1321 553 QCURVE SMOOTH",
"1407 1065 LINE",
"1357 1065 LINE",
"1271 1022 LINE",
"1239 1047 OFFCURVE",
"1138 1083 OFFCURVE",
"1067 1083 QCURVE SMOOTH",
"917 1083 OFFCURVE",
"708 969 OFFCURVE",
"577 788 OFFCURVE",
"516 590 OFFCURVE",
"516 508 QCURVE SMOOTH",
"516 389 OFFCURVE",
"606 233 OFFCURVE",
"751 158 OFFCURVE",
"837 158 QCURVE SMOOTH",
"946 158 OFFCURVE",
"1077 270 OFFCURVE",
"1120 350 QCURVE",
"1132 350 LINE",
"1167 248 OFFCURVE",
"1294 158 OFFCURVE",
"1384 158 QCURVE SMOOTH",
"1486 158 OFFCURVE",
"1681 311 OFFCURVE",
"1806 598 OFFCURVE",
"1806 803 QCURVE SMOOTH",
"1806 987 OFFCURVE",
"1642 1286 OFFCURVE",
"1323 1462 OFFCURVE",
"1085 1462 QCURVE SMOOTH",
"872 1462 OFFCURVE",
"514 1317 OFFCURVE",
"249 1057 OFFCURVE",
"104 705 OFFCURVE",
"104 500 QCURVE SMOOTH",
"104 301 OFFCURVE",
"237 4 OFFCURVE",
"471 -193 OFFCURVE",
"778 -291 OFFCURVE",
"954 -291 QCURVE",
"954 -291 LINE"
);
},
{
closed = 1;
nodes = (
"899 276 LINE",
"839 276 OFFCURVE",
"768 385 OFFCURVE",
"768 487 QCURVE SMOOTH",
"768 549 OFFCURVE",
"800 719 OFFCURVE",
"870 885 OFFCURVE",
"981 993 OFFCURVE",
"1058 993 QCURVE SMOOTH",
"1091 993 OFFCURVE",
"1155 963 OFFCURVE",
"1167 936 QCURVE",
"1085 518 LINE SMOOTH",
"1073 459 OFFCURVE",
"1032 348 OFFCURVE",
"958 276 OFFCURVE",
"899 276 QCURVE",
"899 276 LINE"
);
}
);
width = 1886;
},
{
layerId = "482B5BA1-F14A-4795-881D-282E6E2A03D9";
paths = (
{
closed = 1;
nodes = (
"970 -291 LINE",
"1122 -291 OFFCURVE",
"1351 -240 OFFCURVE",
"1536 -152 OFFCURVE",
"1617 -98 QCURVE",
"1566 -4 LINE",
"1466 -70 OFFCURVE",
"1177 -168 OFFCURVE",
"993 -168 QCURVE SMOOTH",
"790 -168 OFFCURVE",
"485 -25 OFFCURVE",
"313 272 OFFCURVE",
"313 502 QCURVE SMOOTH",
"313 702 OFFCURVE",
"440 1016 OFFCURVE",
"657 1235 OFFCURVE",
"927 1348 OFFCURVE",
"1071 1348 QCURVE SMOOTH",
"1234 1348 OFFCURVE",
"1493 1221 OFFCURVE",
"1640 963 OFFCURVE",
"1640 770 QCURVE SMOOTH",
"1640 602 OFFCURVE",
"1568 383 OFFCURVE",
"1466 276 OFFCURVE",
"1415 276 QCURVE SMOOTH",
"1392 276 OFFCURVE",
"1339 326 OFFCURVE",
"1339 420 QCURVE SMOOTH",
"1339 432 OFFCURVE",
"1345 518 OFFCURVE",
"1353 561 QCURVE SMOOTH",
"1435 1065 LINE",
"1357 1065 LINE",
"1271 1022 LINE",
"1247 1044 OFFCURVE",
"1118 1083 OFFCURVE",
"1050 1083 QCURVE SMOOTH",
"911 1083 OFFCURVE",
"704 979 OFFCURVE",
"569 809 OFFCURVE",
"501 606 OFFCURVE",
"501 508 QCURVE SMOOTH",
"501 336 OFFCURVE",
"686 158 OFFCURVE",
"823 158 QCURVE SMOOTH",
"935 158 OFFCURVE",
"1075 266 OFFCURVE",
"1118 346 QCURVE",
"1132 346 LINE",
"1169 233 OFFCURVE",
"1300 158 OFFCURVE",
"1390 158 QCURVE SMOOTH",
"1499 158 OFFCURVE",
"1689 305 OFFCURVE",
"1806 586 OFFCURVE",
"1806 782 QCURVE SMOOTH",
"1806 1004 OFFCURVE",
"1624 1307 OFFCURVE",
"1298 1462 OFFCURVE",
"1085 1462 QCURVE SMOOTH",
"901 1462 OFFCURVE",
"550 1339 OFFCURVE",
"270 1098 OFFCURVE",
"104 743 OFFCURVE",
"104 510 QCURVE SMOOTH",
"104 301 OFFCURVE",
"245 0 OFFCURVE",
"489 -197 OFFCURVE",
"800 -291 OFFCURVE",
"970 -291 QCURVE",
"970 -291 LINE"
);
},
{
closed = 1;
nodes = (
"911 285 LINE",
"860 285 OFFCURVE",
"798 377 OFFCURVE",
"798 485 QCURVE SMOOTH",
"798 555 OFFCURVE",
"827 727 OFFCURVE",
"888 887 OFFCURVE",
"985 989 OFFCURVE",
"1052 989 QCURVE SMOOTH",
"1081 989 OFFCURVE",
"1144 963 OFFCURVE",
"1157 934 QCURVE",
"1075 504 LINE SMOOTH",
"1058 418 OFFCURVE",
"987 285 OFFCURVE",
"911 285 QCURVE",
"911 285 LINE"
);
}
);
width = 1886;
}
);
note = at;
unicode = 0040;
},
{
glyphname = A;
lastChange = "2020-08-17 13:41:11 +0000";
layers = (
{
layerId = "FFF31276-834F-49C0-8230-C5CBB7819B89";
paths = (
{
closed = 1;
nodes = (
"-8 0 LINE",
"451 0 LINE",
"451 41 LINE",
"342 41 LINE SMOOTH",
"266 41 OFFCURVE",
"230 70 OFFCURVE",
"230 98 QCURVE SMOOTH",
"230 123 OFFCURVE",
"254 205 OFFCURVE",
"281 283 OFFCURVE",
"287 301 QCURVE SMOOTH",
"361 514 LINE",
"953 514 LINE",
"1026 301 LINE SMOOTH",
"1032 283 OFFCURVE",
"1059 205 OFFCURVE",
"1084 123 OFFCURVE",
"1084 98 QCURVE SMOOTH",
"1084 70 OFFCURVE",
"1049 41 OFFCURVE",
"971 41 QCURVE SMOOTH",
"901 41 LINE",
"901 0 LINE",
"1321 0 LINE",
"1321 41 LINE",
"1276 41 LINE SMOOTH",
"1229 41 OFFCURVE",
"1184 53 OFFCURVE",
"1159 94 OFFCURVE",
"1143 139 QCURVE SMOOTH",
"686 1462 LINE",
"627 1462 LINE",
"170 139 LINE SMOOTH",
"156 94 OFFCURVE",
"129 53 OFFCURVE",
"84 41 OFFCURVE",
"37 41 QCURVE SMOOTH",
"-8 41 LINE",
"-8 0 LINE",
"-8 0 LINE"
);
},
{
closed = 1;
nodes = (
"377 565 LINE",
"545 1055 LINE SMOOTH",
"561 1102 OFFCURVE",
"606 1235 OFFCURVE",
"649 1360 OFFCURVE",
"658 1393 QCURVE",
"672 1350 OFFCURVE",
"713 1223 OFFCURVE",
"758 1090 OFFCURVE",
"776 1034 QCURVE SMOOTH",
"934 565 LINE",
"377 565 LINE",
"377 565 LINE"
);
}
);
width = 1320;
},
{
layerId = "28531FA7-6DEB-4C71-966B-2D248D7FC379";
paths = (
{
closed = 1;
nodes = (
"-4 0 LINE",
"477 0 LINE",
"477 66 LINE",
"402 66 LINE SMOOTH",
"332 66 OFFCURVE",
"277 104 OFFCURVE",
"277 145 QCURVE SMOOTH",
"277 172 OFFCURVE",
"303 260 OFFCURVE",
"313 287 QCURVE SMOOTH",
"389 500 LINE",
"952 500 LINE",
"1030 279 LINE SMOOTH",
"1040 254 OFFCURVE",
"1065 170 OFFCURVE",
"1065 145 QCURVE SMOOTH",
"1065 104 OFFCURVE",
"1016 66 OFFCURVE",
"948 66 QCURVE SMOOTH",
"891 66 LINE",
"891 0 LINE",
"1389 0 LINE",
"1389 66 LINE",
"1354 66 LINE SMOOTH",
"1288 66 OFFCURVE",
"1235 104 OFFCURVE",
"1213 170 QCURVE SMOOTH",
"754 1462 LINE",
"639 1462 LINE",
"184 197 LINE SMOOTH",
"164 139 OFFCURVE",
"131 84 OFFCURVE",
"82 66 OFFCURVE",
"39 66 QCURVE SMOOTH",
"-4 66 LINE",
"-4 0 LINE",
"-4 0 LINE"
);
},
{
closed = 1;
nodes = (
"418 580 LINE",
"571 1008 LINE SMOOTH",
"600 1090 OFFCURVE",
"660 1266 OFFCURVE",
"674 1327 QCURVE",
"692 1257 OFFCURVE",
"752 1075 OFFCURVE",
"782 989 QCURVE SMOOTH",
"924 580 LINE",
"418 580 LINE",
"418 580 LINE"
);
}
);
width = 1388;
},
{
layerId = "82773DB8-11CF-4E3D-BC1E-69725B5EFD97";
paths = (
{
closed = 1;
nodes = (
"414 489 LINE",
"414 489 LINE",
"414 489 LINE",
"414 489 LINE",
"952 489 LINE",
"1034 260 LINE SMOOTH",
"1042 237 OFFCURVE",
"1051 201 OFFCURVE",
"1051 184 QCURVE SMOOTH",
"1051 86 OFFCURVE",
"928 86 QCURVE SMOOTH",
"881 86 LINE",
"881 0 LINE",
"1444 0 LINE",
"1444 86 LINE",
"1417 86 LINE SMOOTH",
"1387 86 OFFCURVE",
"1343 96 OFFCURVE",
"1309 121 OFFCURVE",
"1284 163 OFFCURVE",
"1272 195 QCURVE SMOOTH",
"809 1462 LINE",
"649 1462 LINE",
"195 246 LINE SMOOTH",
"176 197 OFFCURVE",
"145 135 OFFCURVE",
"111 99 OFFCURVE",
"69 86 OFFCURVE",
"39 86 QCURVE SMOOTH",
"0 86 LINE",
"0 0 LINE",
"500 0 LINE",
"500 86 LINE",
"453 86 LINE SMOOTH",
"384 86 OFFCURVE",
"317 134 OFFCURVE",
"317 186 QCURVE SMOOTH",
"317 203 OFFCURVE",
"327 250 OFFCURVE",
"336 274 QCURVE SMOOTH",
"414 489 LINE",
"414 489 LINE"
);
},
{
closed = 1;
nodes = (
"788 950 LINE",
"788 950 LINE",
"788 950 LINE",
"788 950 LINE",
"915 592 LINE",
"453 592 LINE",
"592 969 LINE SMOOTH",
"610 1017 OFFCURVE",
"638 1096 OFFCURVE",
"660 1168 OFFCURVE",
"679 1237 OFFCURVE",
"686 1274 QCURVE",
"703 1200 OFFCURVE",
"756 1041 OFFCURVE",
"788 950 QCURVE",
"788 950 LINE"
);
}
);
userData = {
assembly = "NPUSHB[ ]	/* 50 values pushed */\01244 1 8 3 32 1 0 7 2 76 0 8 0 7 0 8 7 104 0 3 3 50 77 6 4 2 3 0 0 1 95 5 1 1 1 51 1 78 29 21 33 17 37 21 33 17 38 9 9 31 \012CALL[ ]	/* CallFunction */";
};
width = 1444;
},
{
layerId = "05F2EFEE-D68A-47EA-B1CB-1F079D4BE6D1";
paths = (
{
closed = 1;
nodes = (
"8 0 LINE",
"540 0 LINE",
"540 109 LINE",
"454 109 LINE SMOOTH",
"420 109 OFFCURVE",
"362 147 OFFCURVE",
"362 188 QCURVE SMOOTH",
"362 213 OFFCURVE",
"379 281 OFFCURVE",
"387 305 QCURVE SMOOTH",
"446 481 LINE",
"944 481 LINE",
"1016 276 LINE SMOOTH",
"1022 260 OFFCURVE",
"1034 213 OFFCURVE",
"1034 188 QCURVE SMOOTH",
"1034 145 OFFCURVE",
"977 109 OFFCURVE",
"946 109 QCURVE SMOOTH",
"866 109 LINE",
"866 0 LINE",
"1542 0 LINE",
"1542 109 LINE",
"1505 109 LINE SMOOTH",
"1456 109 OFFCURVE",
"1380 170 OFFCURVE",
"1349 256 QCURVE SMOOTH",
"921 1462 LINE",
"641 1462 LINE",
"196 258 LINE SMOOTH",
"164 166 OFFCURVE",
"88 109 OFFCURVE",
"33 109 QCURVE SMOOTH",
"8 109 LINE",
"8 0 LINE",
"8 0 LINE"
);
},
{
closed = 1;
nodes = (
"489 606 LINE",
"610 952 LINE SMOOTH",
"635 1024 OFFCURVE",
"688 1190 OFFCURVE",
"706 1255 QCURVE",
"723 1184 OFFCURVE",
"774 1012 OFFCURVE",
"794 942 QCURVE",
"903 606 LINE",
"489 606 LINE",
"489 606 LINE"
);
}
);
width = 1542;
},
{
layerId = "482B5BA1-F14A-4795-881D-282E6E2A03D9";
paths = (
{
closed = 1;
nodes = (
"14 0 LINE",
"571 0 LINE",
"571 125 LINE",
"471 125 LINE SMOOTH",
"428 125 OFFCURVE",
"395 160 OFFCURVE",
"395 190 QCURVE SMOOTH",
"395 219 OFFCURVE",
"417 303 OFFCURVE",
"424 328 QCURVE SMOOTH",
"471 475 LINE",
"938 475 LINE",
"1001 289 LINE SMOOTH",
"1005 276 OFFCURVE",
"1024 217 OFFCURVE",
"1024 188 QCURVE SMOOTH",
"1024 150 OFFCURVE",
"970 125 OFFCURVE",
"938 125 QCURVE SMOOTH",
"856 125 LINE",
"856 0 LINE",
"1613 0 LINE",
"1613 125 LINE",
"1591 125 LINE SMOOTH",
"1534 125 OFFCURVE",
"1450 190 OFFCURVE",
"1423 262 QCURVE SMOOTH",
"1005 1462 LINE",
"635 1462 LINE",
"198 266 LINE SMOOTH",
"166 178 OFFCURVE",
"82 125 OFFCURVE",
"28 125 QCURVE SMOOTH",
"14 125 LINE",
"14 0 LINE",
"14 0 LINE"
);
},
{
closed = 1;
nodes = (
"516 616 LINE",
"645 1010 LINE SMOOTH",
"661 1061 OFFCURVE",
"698 1184 OFFCURVE",
"714 1249 QCURVE",
"727 1182 OFFCURVE",
"762 1061 OFFCURVE",
"776 1008 QCURVE SMOOTH",
"893 616 LINE",
"516 616 LINE",
"516 616 LINE"
);
}
);
width = 1613;
}
);
note = A;
unicode = 0041;
},
{
glyphname = B;
lastChange = "2020-08-17 13:41:11 +0000";
layers = (
{
layerId = "FFF31276-834F-49C0-8230-C5CBB7819B89";
paths = (
{
closed = 1;
nodes = (
"106 0 LINE",
"655 0 LINE SMOOTH",
"878 0 OFFCURVE",
"1103 195 OFFCURVE",
"1103 410 QCURVE SMOOTH",
"1103 580 OFFCURVE",
"942 766 OFFCURVE",
"792 772 QCURVE",
"792 776 LINE",
"860 791 OFFCURVE",
"972 862 OFFCURVE",
"1042 995 OFFCURVE",
"1042 1108 QCURVE SMOOTH",
"1042 1298 OFFCURVE",
"825 1462 OFFCURVE",
"593 1462 QCURVE SMOOTH",
"106 1462 LINE",
"106 1421 LINE",
"190 1421 LINE SMOOTH",
"241 1421 OFFCURVE",
"290 1397 OFFCURVE",
"305 1319 OFFCURVE",
"305 1241 QCURVE SMOOTH",
"305 221 LINE SMOOTH",
"305 143 OFFCURVE",
"290 66 OFFCURVE",
"241 41 OFFCURVE",
"190 41 QCURVE SMOOTH",
"106 41 LINE",
"106 0 LINE",
"106 0 LINE"
);
},
{
closed = 1;
nodes = (
"362 795 LINE",
"362 1411 LINE",
"583 1411 LINE SMOOTH",
"802 1411 OFFCURVE",
"985 1270 OFFCURVE",
"985 1112 QCURVE SMOOTH",
"985 1012 OFFCURVE",
"913 870 OFFCURVE",
"739 795 OFFCURVE",
"587 795 QCURVE SMOOTH",
"362 795 LINE",
"362 795 LINE"
);
},
{
closed = 1;
nodes = (
"362 51 LINE",
"362 743 LINE",
"649 743 LINE SMOOTH",
"800 743 OFFCURVE",
"974 668 OFFCURVE",
"1046 516 OFFCURVE",
"1046 403 QCURVE SMOOTH",
"1046 233 OFFCURVE",
"864 51 OFFCURVE",
"645 51 QCURVE SMOOTH",
"362 51 LINE",
"362 51 LINE"
);
}
);
width = 1273;
},
{
layerId = "28531FA7-6DEB-4C71-966B-2D248D7FC379";
paths = (
{
closed = 1;
nodes = (
"90 0 LINE",
"674 0 LINE SMOOTH",
"919 0 OFFCURVE",
"1163 197 OFFCURVE",
"1163 401 QCURVE SMOOTH",
"1163 567 OFFCURVE",
"995 754 OFFCURVE",
"850 768 QCURVE",
"850 774 LINE",
"956 805 OFFCURVE",
"1102 950 OFFCURVE",
"1102 1102 QCURVE SMOOTH",
"1102 1290 OFFCURVE",
"862 1462 OFFCURVE",
"612 1462 QCURVE SMOOTH",
"90 1462 LINE",
"90 1397 LINE",
"143 1397 LINE SMOOTH",
"215 1397 OFFCURVE",
"287 1341 OFFCURVE",
"287 1239 QCURVE SMOOTH",
"287 227 LINE SMOOTH",
"287 121 OFFCURVE",
"215 66 OFFCURVE",
"143 66 QCURVE SMOOTH",
"90 66 LINE",
"90 0 LINE",
"90 0 LINE"
);
},
{
closed = 1;
nodes = (
"426 807 LINE",
"426 1382 LINE",
"602 1382 LINE SMOOTH",
"795 1382 OFFCURVE",
"956 1255 OFFCURVE",
"956 1104 QCURVE SMOOTH",
"956 954 OFFCURVE",
"807 807 OFFCURVE",
"606 807 QCURVE SMOOTH",
"426 807 LINE",
"426 807 LINE"
);
},
{
closed = 1;
nodes = (
"426 80 LINE",
"426 727 LINE",
"668 727 LINE SMOOTH",
"868 727 OFFCURVE",
"1018 567 OFFCURVE",
"1018 401 QCURVE SMOOTH",
"1018 236 OFFCURVE",
"856 80 OFFCURVE",
"663 80 QCURVE SMOOTH",
"426 80 LINE",
"426 80 LINE"
);
}
);
width = 1308;
},
{
layerId = "82773DB8-11CF-4E3D-BC1E-69725B5EFD97";
paths = (
{
closed = 1;
nodes = (
"1153 1096 LINE",
"1153 1096 LINE",
"1153 1096 LINE",
"1153 1096 LINE",
"1153 1285 OFFCURVE",
"893 1462 OFFCURVE",
"627 1462 QCURVE SMOOTH",
"78 1462 LINE",
"78 1376 LINE",
"104 1376 LINE SMOOTH",
"138 1376 OFFCURVE",
"199 1367 OFFCURVE",
"245 1337 OFFCURVE",
"272 1282 OFFCURVE",
"272 1237 QCURVE SMOOTH",
"272 233 LINE SMOOTH",
"272 185 OFFCURVE",
"246 127 OFFCURVE",
"200 96 OFFCURVE",
"139 86 OFFCURVE",
"104 86 QCURVE SMOOTH",
"78 86 LINE",
"78 0 LINE",
"688 0 LINE SMOOTH",
"954 0 OFFCURVE",
"1214 197 OFFCURVE",
"1214 395 QCURVE SMOOTH",
"1214 476 OFFCURVE",
"1168 603 OFFCURVE",
"1085 696 OFFCURVE",
"969 754 OFFCURVE",
"899 766 QCURVE",
"899 774 LINE",
"953 792 OFFCURVE",
"1046 845 OFFCURVE",
"1114 923 OFFCURVE",
"1153 1027 OFFCURVE",
"1153 1096 QCURVE",
"1153 1096 LINE"
);
},
{
closed = 1;
nodes = (
"479 102 LINE",
"479 102 LINE",
"479 102 LINE",
"479 102 LINE",
"479 715 LINE",
"682 715 LINE SMOOTH",
"772 715 OFFCURVE",
"892 677 OFFCURVE",
"965 599 OFFCURVE",
"995 481 OFFCURVE",
"995 401 QCURVE SMOOTH",
"995 319 OFFCURVE",
"961 205 OFFCURVE",
"885 134 OFFCURVE",
"765 102 OFFCURVE",
"678 102 QCURVE SMOOTH",
"479 102 LINE",
"479 102 LINE"
);
},
{
closed = 1;
nodes = (
"479 817 LINE",
"479 817 LINE",
"479 817 LINE",
"479 817 LINE",
"479 1360 LINE",
"616 1360 LINE SMOOTH",
"703 1360 OFFCURVE",
"824 1334 OFFCURVE",
"900 1272 OFFCURVE",
"934 1171 OFFCURVE",
"934 1096 QCURVE SMOOTH",
"934 1022 OFFCURVE",
"903 916 OFFCURVE",
"831 849 OFFCURVE",
"711 817 OFFCURVE",
"621 817 QCURVE SMOOTH",
"479 817 LINE",
"479 817 LINE"
);
}
);
userData = {
assembly = "PUSHB[ ]	/* 6 values pushed */\0125 1 5 6 1 76 \012MPPEM[ ]	/* MeasurePixelPerEm */\012PUSHB[ ]	/* 1 value pushed */\01230 \012LT[ ]	/* LessThan */\012IF[ ]	/* If */\012NPUSHB[ ]	/* 33 values pushed */\0129 1 6 0 5 1 6 5 103 7 1 2 2 3 95 0 3 3 50 77 8 4 2 1 1 0 95 0 0 0 51 0 78 \012ELSE[ ]	/* Else */\012NPUSHB[ ]	/* 45 values pushed */\0120 2 3 7 7 2 114 0 1 4 0 4 1 114 9 1 6 0 5 4 6 5 103 0 7 7 3 96 0 3 3 50 77 8 1 4 4 0 95 0 0 0 51 0 78 \012EIF[ ]	/* EndIf */\012NPUSHB[ ]	/* 23 values pushed */\01257 55 40 38 67 65 55 71 57 68 50 48 38 54 40 51 33 41 33 45 10 9 26 \012CALL[ ]	/* CallFunction */";
};
width = 1339;
},
{
layerId = "05F2EFEE-D68A-47EA-B1CB-1F079D4BE6D1";
paths = (
{
closed = 1;
nodes = (
"57 0 LINE",
"716 0 LINE SMOOTH",
"1302 0 OFFCURVE",
"1302 401 QCURVE SMOOTH",
"1302 551 OFFCURVE",
"1124 733 OFFCURVE",
"983 768 QCURVE",
"983 778 LINE",
"1097 815 OFFCURVE",
"1241 954 OFFCURVE",
"1241 1090 QCURVE SMOOTH",
"1241 1282 OFFCURVE",
"946 1462 OFFCURVE",
"655 1462 QCURVE SMOOTH",
"57 1462 LINE",
"57 1354 LINE",
"141 1354 LINE SMOOTH",
"184 1354 OFFCURVE",
"247 1305 OFFCURVE",
"247 1223 QCURVE SMOOTH",
"247 242 LINE SMOOTH",
"247 154 OFFCURVE",
"186 109 OFFCURVE",
"141 109 QCURVE SMOOTH",
"57 109 LINE",
"57 0 LINE",
"57 0 LINE"
);
},
{
closed = 1;
nodes = (
"571 827 LINE",
"571 1337 LINE",
"645 1337 LINE SMOOTH",
"782 1337 OFFCURVE",
"897 1229 OFFCURVE",
"897 1090 QCURVE SMOOTH",
"897 950 OFFCURVE",
"792 827 OFFCURVE",
"649 827 QCURVE SMOOTH",
"571 827 LINE",
"571 827 LINE"
);
},
{
closed = 1;
nodes = (
"571 125 LINE",
"571 702 LINE",
"710 702 LINE SMOOTH",
"852 702 OFFCURVE",
"958 557 OFFCURVE",
"958 408 QCURVE SMOOTH",
"958 250 OFFCURVE",
"843 125 OFFCURVE",
"706 125 QCURVE SMOOTH",
"571 125 LINE",
"571 125 LINE"
);
}
);
width = 1376;
},
{
layerId = "482B5BA1-F14A-4795-881D-282E6E2A03D9";
paths = (
{
closed = 1;
nodes = (
"43 0 LINE",
"776 0 LINE SMOOTH",
"1098 0 OFFCURVE",
"1413 203 OFFCURVE",
"1413 406 QCURVE SMOOTH",
"1413 567 OFFCURVE",
"1208 741 OFFCURVE",
"1047 770 QCURVE",
"1047 780 LINE",
"1128 801 OFFCURVE",
"1268 881 OFFCURVE",
"1354 1012 OFFCURVE",
"1354 1106 QCURVE SMOOTH",
"1354 1298 OFFCURVE",
"1024 1462 OFFCURVE",
"715 1462 QCURVE SMOOTH",
"43 1462 LINE",
"43 1337 LINE",
"143 1337 LINE SMOOTH",
"172 1337 OFFCURVE",
"231 1290 OFFCURVE",
"231 1225 QCURVE SMOOTH",
"231 238 LINE SMOOTH",
"231 186 OFFCURVE",
"193 125 OFFCURVE",
"149 125 QCURVE SMOOTH",
"43 125 LINE",
"43 0 LINE",
"43 0 LINE"
);
},
{
closed = 1;
nodes = (
"639 836 LINE",
"639 1321 LINE",
"692 1321 LINE SMOOTH",
"805 1321 OFFCURVE",
"928 1217 OFFCURVE",
"928 1085 QCURVE SMOOTH",
"928 950 OFFCURVE",
"811 836 OFFCURVE",
"696 836 QCURVE SMOOTH",
"639 836 LINE",
"639 836 LINE"
);
},
{
closed = 1;
nodes = (
"639 141 LINE",
"639 694 LINE",
"750 694 LINE SMOOTH",
"977 694 OFFCURVE",
"977 412 QCURVE SMOOTH",
"977 262 OFFCURVE",
"854 141 OFFCURVE",
"745 141 QCURVE SMOOTH",
"639 141 LINE",
"639 141 LINE"
);
}
);
width = 1474;
}
);
note = B;
unicode = 0042;
},
{
glyphname = C;
lastChange = "2020-08-17 13:41:11 +0000";
layers = (
{
layerId = "FFF31276-834F-49C0-8230-C5CBB7819B89";
paths = (
{
closed = 1;
nodes = (
"663 -20 LINE",
"761 -20 OFFCURVE",
"904 27 OFFCURVE",
"999 96 OFFCURVE",
"1044 160 OFFCURVE",
"1044 176 QCURVE SMOOTH",
"1044 213 OFFCURVE",
"1017 227 QCURVE",
"980 147 OFFCURVE",
"812 31 OFFCURVE",
"661 31 QCURVE SMOOTH",
"413 31 OFFCURVE",
"173 410 OFFCURVE",
"173 733 QCURVE SMOOTH",
"173 946 OFFCURVE",
"282 1260 OFFCURVE",
"495 1432 OFFCURVE",
"651 1432 QCURVE SMOOTH",
"794 1432 OFFCURVE",
"950 1368 OFFCURVE",
"1013 1247 OFFCURVE",
"1013 1163 QCURVE",
"1056 1163 OFFCURVE",
"1056 1249 QCURVE SMOOTH",
"1056 1307 OFFCURVE",
"978 1413 OFFCURVE",
"806 1483 OFFCURVE",
"663 1483 QCURVE SMOOTH",
"395 1483 OFFCURVE",
"116 1085 OFFCURVE",
"116 733 QCURVE SMOOTH",
"116 500 OFFCURVE",
"237 162 OFFCURVE",
"478 -20 OFFCURVE",
"663 -20 QCURVE",
"663 -20 LINE"
);
}
);
width = 1126;
},
{
layerId = "28531FA7-6DEB-4C71-966B-2D248D7FC379";
paths = (
{
closed = 1;
nodes = (
"704 -20 LINE",
"847 -20 OFFCURVE",
"1029 55 OFFCURVE",
"1117 156 OFFCURVE",
"1117 195 QCURVE SMOOTH",
"1117 240 OFFCURVE",
"1085 260 QCURVE",
"1040 186 OFFCURVE",
"872 76 OFFCURVE",
"720 76 QCURVE SMOOTH",
"565 76 OFFCURVE",
"362 240 OFFCURVE",
"266 535 OFFCURVE",
"266 733 QCURVE SMOOTH",
"266 1047 OFFCURVE",
"483 1401 OFFCURVE",
"716 1401 QCURVE SMOOTH",
"829 1401 OFFCURVE",
"958 1329 OFFCURVE",
"1011 1208 OFFCURVE",
"1011 1135 QCURVE",
"1062 1135 OFFCURVE",
"1128 1196 OFFCURVE",
"1128 1251 QCURVE SMOOTH",
"1128 1343 OFFCURVE",
"933 1483 OFFCURVE",
"722 1483 QCURVE SMOOTH",
"524 1483 OFFCURVE",
"253 1298 OFFCURVE",
"116 961 OFFCURVE",
"116 733 QCURVE SMOOTH",
"116 504 OFFCURVE",
"247 166 OFFCURVE",
"509 -20 OFFCURVE",
"704 -20 QCURVE",
"704 -20 LINE"
);
}
);
width = 1198;
},
{
layerId = "82773DB8-11CF-4E3D-BC1E-69725B5EFD97";
paths = (
{
closed = 1;
nodes = (
"774 1483 LINE",
"774 1483 LINE",
"774 1483 LINE",
"774 1483 LINE",
"612 1483 OFFCURVE",
"366 1373 OFFCURVE",
"201 1175 OFFCURVE",
"117 899 OFFCURVE",
"117 733 QCURVE SMOOTH",
"117 564 OFFCURVE",
"197 286 OFFCURVE",
"354 88 OFFCURVE",
"586 -20 OFFCURVE",
"739 -20 QCURVE SMOOTH",
"853 -20 OFFCURVE",
"1019 23 OFFCURVE",
"1127 89 OFFCURVE",
"1180 170 OFFCURVE",
"1180 209 QCURVE SMOOTH",
"1180 240 OFFCURVE",
"1158 278 OFFCURVE",
"1141 289 QCURVE",
"1115 255 OFFCURVE",
"1048 192 OFFCURVE",
"960 144 OFFCURVE",
"845 115 OFFCURVE",
"770 115 QCURVE SMOOTH",
"657 115 OFFCURVE",
"496 205 OFFCURVE",
"392 368 OFFCURVE",
"344 596 OFFCURVE",
"344 733 QCURVE SMOOTH",
"344 887 OFFCURVE",
"390 1126 OFFCURVE",
"492 1289 OFFCURVE",
"654 1374 OFFCURVE",
"770 1374 QCURVE SMOOTH",
"837 1374 OFFCURVE",
"928 1327 OFFCURVE",
"985 1252 OFFCURVE",
"1010 1158 OFFCURVE",
"1010 1110 QCURVE",
"1048 1110 OFFCURVE",
"1113 1130 OFFCURVE",
"1161 1167 OFFCURVE",
"1188 1220 OFFCURVE",
"1188 1253 QCURVE SMOOTH",
"1188 1302 OFFCURVE",
"1137 1386 OFFCURVE",
"1034 1448 OFFCURVE",
"879 1483 OFFCURVE",
"774 1483 QCURVE",
"774 1483 LINE"
);
}
);
userData = {
assembly = "NPUSHB[ ]	/* 53 values pushed */\01230 1 3 1 1 76 0 1 2 3 2 1 3 128 0 2 2 0 97 5 1 0 0 56 77 0 3 3 4 97 0 4 4 57 4 78 1 0 39 37 26 24 16 14 10 9 0 51 1 47 6 9 22 \012CALL[ ]	/* CallFunction */";
};
width = 1257;
},
{
layerId = "05F2EFEE-D68A-47EA-B1CB-1F079D4BE6D1";
paths = (
{
closed = 1;
nodes = (
"821 -20 LINE",
"995 -20 OFFCURVE",
"1197 68 OFFCURVE",
"1283 193 OFFCURVE",
"1283 250 QCURVE SMOOTH",
"1283 309 OFFCURVE",
"1249 338 QCURVE",
"1214 291 OFFCURVE",
"1113 203 OFFCURVE",
"970 143 OFFCURVE",
"870 143 QCURVE SMOOTH",
"642 143 OFFCURVE",
"456 436 OFFCURVE",
"456 733 QCURVE SMOOTH",
"456 1030 OFFCURVE",
"610 1352 OFFCURVE",
"804 1352 QCURVE SMOOTH",
"888 1352 OFFCURVE",
"989 1266 OFFCURVE",
"1030 1135 OFFCURVE",
"1030 1067 QCURVE",
"1154 1067 OFFCURVE",
"1286 1167 OFFCURVE",
"1286 1245 QCURVE SMOOTH",
"1286 1346 OFFCURVE",
"1054 1483 OFFCURVE",
"819 1483 QCURVE SMOOTH",
"585 1483 OFFCURVE",
"272 1292 OFFCURVE",
"112 954 OFFCURVE",
"112 733 QCURVE SMOOTH",
"112 506 OFFCURVE",
"268 168 OFFCURVE",
"583 -20 OFFCURVE",
"821 -20 QCURVE",
"821 -20 LINE"
);
}
);
width = 1368;
},
{
layerId = "482B5BA1-F14A-4795-881D-282E6E2A03D9";
paths = (
{
closed = 1;
nodes = (
"855 -20 LINE",
"1009 -20 OFFCURVE",
"1208 37 OFFCURVE",
"1318 129 OFFCURVE",
"1361 233 OFFCURVE",
"1361 281 QCURVE SMOOTH",
"1361 303 OFFCURVE",
"1345 360 OFFCURVE",
"1331 375 QCURVE",
"1296 328 OFFCURVE",
"1189 231 OFFCURVE",
"1036 164 OFFCURVE",
"925 164 QCURVE SMOOTH",
"782 164 OFFCURVE",
"614 274 OFFCURVE",
"540 524 OFFCURVE",
"540 733 QCURVE SMOOTH",
"540 1022 OFFCURVE",
"663 1335 OFFCURVE",
"831 1335 QCURVE SMOOTH",
"913 1335 OFFCURVE",
"1007 1243 OFFCURVE",
"1046 1106 OFFCURVE",
"1046 1036 QCURVE",
"1206 1036 OFFCURVE",
"1359 1155 OFFCURVE",
"1359 1239 QCURVE SMOOTH",
"1359 1339 OFFCURVE",
"1107 1483 OFFCURVE",
"853 1483 QCURVE SMOOTH",
"610 1483 OFFCURVE",
"278 1292 OFFCURVE",
"110 954 OFFCURVE",
"110 733 QCURVE SMOOTH",
"110 506 OFFCURVE",
"276 168 OFFCURVE",
"606 -20 OFFCURVE",
"855 -20 QCURVE",
"855 -20 LINE"
);
}
);
width = 1449;
}
);
note = C;
unicode = 0043;
},
{
glyphname = D;
lastChange = "2020-08-17 13:41:11 +0000";
layers = (
{
layerId = "FFF31276-834F-49C0-8230-C5CBB7819B89";
paths = (
{
closed = 1;
nodes = (
"102 0 LINE",
"653 0 LINE SMOOTH",
"966 0 OFFCURVE",
"1261 365 OFFCURVE",
"1261 700 QCURVE SMOOTH",
"1261 934 OFFCURVE",
"1122 1276 OFFCURVE",
"847 1462 OFFCURVE",
"645 1462 QCURVE SMOOTH",
"102 1462 LINE",
"102 1421 LINE",
"190 1421 LINE SMOOTH",
"241 1421 OFFCURVE",
"290 1397 OFFCURVE",
"305 1319 OFFCURVE",
"305 1241 QCURVE SMOOTH",
"305 221 LINE SMOOTH",
"305 143 OFFCURVE",
"290 66 OFFCURVE",
"241 41 OFFCURVE",
"190 41 QCURVE SMOOTH",
"102 41 LINE",
"102 0 LINE",
"102 0 LINE"
);
},
{
closed = 1;
nodes = (
"362 51 LINE",
"362 1411 LINE",
"626 1411 LINE SMOOTH",
"827 1411 OFFCURVE",
"1083 1235 OFFCURVE",
"1204 915 OFFCURVE",
"1204 700 QCURVE SMOOTH",
"1204 377 OFFCURVE",
"931 51 OFFCURVE",
"624 51 QCURVE SMOOTH",
"362 51 LINE",
"362 51 LINE"
);
}
);
width = 1386;
},
{
layerId = "28531FA7-6DEB-4C71-966B-2D248D7FC379";
paths = (
{
closed = 1;
nodes = (
"88 0 LINE",
"682 0 LINE SMOOTH",
"1006 0 OFFCURVE",
"1321 383 OFFCURVE",
"1321 719 QCURVE SMOOTH",
"1321 1067 OFFCURVE",
"989 1462 OFFCURVE",
"678 1462 QCURVE SMOOTH",
"88 1462 LINE",
"88 1397 LINE",
"143 1397 LINE SMOOTH",
"215 1397 OFFCURVE",
"287 1341 OFFCURVE",
"287 1239 QCURVE SMOOTH",
"287 227 LINE SMOOTH",
"287 121 OFFCURVE",
"215 66 OFFCURVE",
"143 66 QCURVE SMOOTH",
"88 66 LINE",
"88 0 LINE",
"88 0 LINE"
);
},
{
closed = 1;
nodes = (
"426 80 LINE",
"426 1382 LINE",
"645 1382 LINE SMOOTH",
"913 1382 OFFCURVE",
"1171 1030 OFFCURVE",
"1171 719 QCURVE SMOOTH",
"1171 406 OFFCURVE",
"915 80 OFFCURVE",
"643 80 QCURVE SMOOTH",
"426 80 LINE",
"426 80 LINE"
);
}
);
width = 1441;
},
{
layerId = "82773DB8-11CF-4E3D-BC1E-69725B5EFD97";
paths = (
{
closed = 1;
nodes = (
"1372 733 LINE",
"1372 733 LINE",
"1372 733 LINE",
"1372 733 LINE",
"1372 907 OFFCURVE",
"1282 1179 OFFCURVE",
"1111 1365 OFFCURVE",
"863 1462 OFFCURVE",
"705 1462 QCURVE SMOOTH",
"78 1462 LINE",
"78 1376 LINE",
"104 1376 LINE SMOOTH",
"138 1376 OFFCURVE",
"199 1367 OFFCURVE",
"245 1337 OFFCURVE",
"272 1282 OFFCURVE",
"272 1237 QCURVE SMOOTH",
"272 233 LINE SMOOTH",
"272 185 OFFCURVE",
"246 127 OFFCURVE",
"200 96 OFFCURVE",
"139 86 OFFCURVE",
"104 86 QCURVE SMOOTH",
"78 86 LINE",
"78 0 LINE",
"705 0 LINE SMOOTH",
"872 0 OFFCURVE",
"1122 103 OFFCURVE",
"1288 294 OFFCURVE",
"1372 565 OFFCURVE",
"1372 733 QCURVE",
"1372 733 LINE"
);
},
{
closed = 1;
nodes = (
"657 104 LINE",
"657 104 LINE",
"657 104 LINE",
"657 104 LINE",
"479 104 LINE",
"479 1360 LINE",
"659 1360 LINE SMOOTH",
"902 1360 OFFCURVE",
"1145 1038 OFFCURVE",
"1145 733 QCURVE SMOOTH",
"1145 581 OFFCURVE",
"1084 347 OFFCURVE",
"962 187 OFFCURVE",
"779 104 OFFCURVE",
"657 104 QCURVE",
"657 104 LINE"
);
}
);
userData = {
assembly = "MPPEM[ ]	/* MeasurePixelPerEm */\012PUSHB[ ]	/* 1 value pushed */\01229 \012LT[ ]	/* LessThan */\012IF[ ]	/* If */\012NPUSHB[ ]	/* 24 values pushed */\0125 1 2 2 3 95 0 3 3 50 77 6 4 2 1 1 0 95 0 0 0 51 0 78 \012ELSE[ ]	/* Else */\012MPPEM[ ]	/* MeasurePixelPerEm */\012PUSHB[ ]	/* 1 value pushed */\01230 \012LT[ ]	/* LessThan */\012IF[ ]	/* If */\012NPUSHB[ ]	/* 30 values pushed */\0120 1 4 0 4 1 114 5 1 2 2 3 95 0 3 3 50 77 6 1 4 4 0 95 0 0 0 51 0 78 \012ELSE[ ]	/* Else */\012NPUSHB[ ]	/* 36 values pushed */\0120 2 3 5 5 2 114 0 1 4 0 4 1 114 0 5 5 3 96 0 3 3 50 77 6 1 4 4 0 95 0 0 0 51 0 78 \012EIF[ ]	/* EndIf */\012EIF[ ]	/* EndIf */\012NPUSHB[ ]	/* 15 values pushed */\01232 31 40 38 31 45 32 41 33 41 33 36 7 9 26 \012CALL[ ]	/* CallFunction */";
};
width = 1489;
},
{
layerId = "05F2EFEE-D68A-47EA-B1CB-1F079D4BE6D1";
paths = (
{
closed = 1;
nodes = (
"57 0 LINE",
"733 0 LINE SMOOTH",
"970 0 OFFCURVE",
"1294 193 OFFCURVE",
"1458 532 OFFCURVE",
"1458 758 QCURVE SMOOTH",
"1458 1106 OFFCURVE",
"1073 1462 OFFCURVE",
"733 1462 QCURVE SMOOTH",
"57 1462 LINE",
"57 1354 LINE",
"143 1354 LINE SMOOTH",
"186 1354 OFFCURVE",
"247 1311 OFFCURVE",
"247 1229 QCURVE SMOOTH",
"247 242 LINE SMOOTH",
"247 154 OFFCURVE",
"188 109 OFFCURVE",
"143 109 QCURVE SMOOTH",
"57 109 LINE",
"57 0 LINE",
"57 0 LINE"
);
},
{
closed = 1;
nodes = (
"571 127 LINE",
"571 1337 LINE",
"688 1337 LINE SMOOTH",
"897 1337 OFFCURVE",
"1112 1051 OFFCURVE",
"1112 758 QCURVE SMOOTH",
"1112 465 OFFCURVE",
"897 127 OFFCURVE",
"686 127 QCURVE SMOOTH",
"571 127 LINE",
"571 127 LINE"
);
}
);
width = 1570;
},
{
layerId = "482B5BA1-F14A-4795-881D-282E6E2A03D9";
paths = (
{
closed = 1;
nodes = (
"43 0 LINE",
"756 0 LINE SMOOTH",
"1006 0 OFFCURVE",
"1348 201 OFFCURVE",
"1522 553 OFFCURVE",
"1522 776 QCURVE SMOOTH",
"1522 1124 OFFCURVE",
"1112 1462 OFFCURVE",
"756 1462 QCURVE SMOOTH",
"43 1462 LINE",
"43 1337 LINE",
"135 1337 LINE SMOOTH",
"178 1337 OFFCURVE",
"231 1284 OFFCURVE",
"231 1227 QCURVE SMOOTH",
"231 236 LINE SMOOTH",
"231 188 OFFCURVE",
"188 125 OFFCURVE",
"152 125 QCURVE SMOOTH",
"43 125 LINE",
"43 0 LINE",
"43 0 LINE"
);
},
{
closed = 1;
nodes = (
"639 143 LINE",
"639 1321 LINE",
"709 1321 LINE SMOOTH",
"893 1321 OFFCURVE",
"1087 1061 OFFCURVE",
"1087 776 QCURVE SMOOTH",
"1087 586 OFFCURVE",
"999 301 OFFCURVE",
"831 143 OFFCURVE",
"707 143 QCURVE SMOOTH",
"639 143 LINE",
"639 143 LINE"
);
}
);
width = 1630;
}
);
note = D;
unicode = 0044;
},
{
glyphname = E;
lastChange = "2020-08-17 13:41:11 +0000";
layers = (
{
layerId = "FFF31276-834F-49C0-8230-C5CBB7819B89";
paths = (
{
closed = 1;
nodes = (
"102 0 LINE",
"1073 0 LINE",
"1087 334 LINE",
"1046 334 LINE",
"1038 193 LINE SMOOTH",
"1034 109 OFFCURVE",
"993 51 OFFCURVE",
"913 51 QCURVE SMOOTH",
"362 51 LINE",
"362 741 LINE",
"862 741 LINE",
"862 793 LINE",
"362 793 LINE",
"362 1411 LINE",
"843 1411 LINE SMOOTH",
"923 1411 OFFCURVE",
"964 1354 OFFCURVE",
"968 1270 QCURVE SMOOTH",
"976 1128 LINE",
"1017 1128 LINE",
"1003 1462 LINE",
"102 1462 LINE",
"102 1421 LINE",
"190 1421 LINE SMOOTH",
"241 1421 OFFCURVE",
"290 1397 OFFCURVE",
"305 1319 OFFCURVE",
"305 1241 QCURVE SMOOTH",
"305 221 LINE SMOOTH",
"305 143 OFFCURVE",
"290 66 OFFCURVE",
"241 41 OFFCURVE",
"190 41 QCURVE SMOOTH",
"102 41 LINE",
"102 0 LINE",
"102 0 LINE"
);
}
);
width = 1198;
},
{
layerId = "28531FA7-6DEB-4C71-966B-2D248D7FC379";
paths = (
{
closed = 1;
nodes = (
"88 0 LINE",
"1128 0 LINE",
"1143 348 LINE",
"1067 348 LINE",
"1055 236 LINE SMOOTH",
"1046 160 OFFCURVE",
"983 80 OFFCURVE",
"893 80 QCURVE SMOOTH",
"426 80 LINE",
"426 727 LINE",
"922 727 LINE",
"922 805 LINE",
"426 805 LINE",
"426 1382 LINE",
"833 1382 LINE SMOOTH",
"919 1382 OFFCURVE",
"981 1303 OFFCURVE",
"987 1227 QCURVE SMOOTH",
"997 1114 LINE",
"1073 1114 LINE",
"1061 1462 LINE",
"88 1462 LINE",
"88 1397 LINE",
"143 1397 LINE SMOOTH",
"215 1397 OFFCURVE",
"287 1341 OFFCURVE",
"287 1235 QCURVE SMOOTH",
"287 223 LINE SMOOTH",
"287 119 OFFCURVE",
"215 66 OFFCURVE",
"143 66 QCURVE SMOOTH",
"88 66 LINE",
"88 0 LINE",
"88 0 LINE"
);
}
);
width = 1241;
},
{
layerId = "82773DB8-11CF-4E3D-BC1E-69725B5EFD97";
paths = (
{
closed = 1;
nodes = (
"479 102 LINE",
"479 102 LINE",
"479 102 LINE",
"479 102 LINE",
"479 715 LINE",
"973 715 LINE",
"973 815 LINE",
"479 815 LINE",
"479 1360 LINE",
"823 1360 LINE SMOOTH",
"869 1360 OFFCURVE",
"934 1333 OFFCURVE",
"977 1287 OFFCURVE",
"1000 1226 OFFCURVE",
"1004 1192 QCURVE SMOOTH",
"1014 1104 LINE",
"1120 1104 LINE",
"1110 1462 LINE",
"78 1462 LINE",
"78 1376 LINE",
"104 1376 LINE SMOOTH",
"139 1376 OFFCURVE",
"200 1366 OFFCURVE",
"246 1335 OFFCURVE",
"272 1277 OFFCURVE",
"272 1229 QCURVE SMOOTH",
"272 223 LINE SMOOTH",
"272 178 OFFCURVE",
"245 123 OFFCURVE",
"199 95 OFFCURVE",
"138 86 OFFCURVE",
"104 86 QCURVE SMOOTH",
"78 86 LINE",
"78 0 LINE",
"1176 0 LINE",
"1190 358 LINE",
"1083 358 LINE",
"1069 270 LINE SMOOTH",
"1064 236 OFFCURVE",
"1038 175 OFFCURVE",
"992 129 OFFCURVE",
"923 102 OFFCURVE",
"874 102 QCURVE SMOOTH",
"479 102 LINE",
"479 102 LINE"
);
}
);
userData = {
assembly = "MPPEM[ ]	/* MeasurePixelPerEm */\012PUSHB[ ]	/* 1 value pushed */\01210 \012LT[ ]	/* LessThan */\012IF[ ]	/* If */\012NPUSHB[ ]	/* 46 values pushed */\0120 6 4 8 4 6 114 0 1 9 0 0 1 114 0 8 0 9 1 8 9 103 7 1 4 4 5 95 0 5 5 50 77 3 10 2 0 0 2 96 0 2 2 51 2 78 \012ELSE[ ]	/* Else */\012MPPEM[ ]	/* MeasurePixelPerEm */\012PUSHB[ ]	/* 1 value pushed */\01230 \012LT[ ]	/* LessThan */\012IF[ ]	/* If */\012NPUSHB[ ]	/* 48 values pushed */\0120 6 4 8 4 6 8 128 0 1 9 0 9 1 0 128 0 8 0 9 1 8 9 103 7 1 4 4 5 95 0 5 5 50 77 3 10 2 0 0 2 96 0 2 2 51 2 78 \012ELSE[ ]	/* Else */\012NPUSHB[ ]	/* 60 values pushed */\0120 4 5 7 7 4 114 0 6 7 8 7 6 8 128 0 1 9 0 9 1 0 128 0 3 0 2 0 3 114 0 8 0 9 1 8 9 103 0 7 7 5 96 0 5 5 50 77 10 1 0 0 2 96 0 2 2 51 2 78 \012EIF[ ]	/* EndIf */\012EIF[ ]	/* EndIf */\012NPUSHB[ ]	/* 27 values pushed */\0122 0 39 38 37 36 35 33 28 27 26 25 24 22 13 11 10 9 8 7 0 43 2 40 11 9 22 \012CALL[ ]	/* CallFunction */";
};
width = 1276;
},
{
layerId = "05F2EFEE-D68A-47EA-B1CB-1F079D4BE6D1";
paths = (
{
closed = 1;
nodes = (
"57 0 LINE",
"1257 0 LINE",
"1271 377 LINE",
"1130 377 LINE",
"1114 281 LINE SMOOTH",
"1104 213 OFFCURVE",
"1044 125 OFFCURVE",
"983 125 QCURVE SMOOTH",
"573 125 LINE",
"573 702 LINE",
"1058 702 LINE",
"1058 825 LINE",
"573 825 LINE",
"573 1337 LINE",
"917 1337 LINE SMOOTH",
"981 1337 OFFCURVE",
"1040 1257 OFFCURVE",
"1048 1182 QCURVE SMOOTH",
"1058 1085 LINE",
"1202 1085 LINE",
"1194 1462 LINE",
"57 1462 LINE",
"57 1354 LINE",
"143 1354 LINE SMOOTH",
"188 1354 OFFCURVE",
"247 1309 OFFCURVE",
"247 1221 QCURVE SMOOTH",
"247 231 LINE SMOOTH",
"247 150 OFFCURVE",
"186 109 OFFCURVE",
"143 109 QCURVE SMOOTH",
"57 109 LINE",
"57 0 LINE",
"57 0 LINE"
);
}
);
width = 1337;
},
{
layerId = "482B5BA1-F14A-4795-881D-282E6E2A03D9";
paths = (
{
closed = 1;
nodes = (
"43 0 LINE",
"1319 0 LINE",
"1333 391 LINE",
"1165 391 LINE",
"1149 289 LINE SMOOTH",
"1139 221 OFFCURVE",
"1071 141 OFFCURVE",
"1006 141 QCURVE SMOOTH",
"639 141 LINE",
"639 694 LINE",
"1122 694 LINE",
"1122 834 LINE",
"639 834 LINE",
"639 1321 LINE",
"946 1321 LINE SMOOTH",
"1018 1321 OFFCURVE",
"1075 1255 OFFCURVE",
"1083 1174 QCURVE SMOOTH",
"1094 1071 LINE",
"1264 1071 LINE",
"1257 1462 LINE",
"43 1462 LINE",
"43 1337 LINE",
"143 1337 LINE SMOOTH",
"176 1337 OFFCURVE",
"231 1298 OFFCURVE",
"231 1227 QCURVE SMOOTH",
"231 225 LINE SMOOTH",
"231 182 OFFCURVE",
"188 125 OFFCURVE",
"147 125 QCURVE SMOOTH",
"43 125 LINE",
"43 0 LINE",
"43 0 LINE"
);
}
);
width = 1382;
}
);
note = E;
unicode = 0045;
},
{
glyphname = F;
lastChange = "2020-08-17 13:41:11 +0000";
layers = (
{
layerId = "FFF31276-834F-49C0-8230-C5CBB7819B89";
paths = (
{
closed = 1;
nodes = (
"102 0 LINE",
"620 0 LINE",
"620 41 LINE",
"477 41 LINE SMOOTH",
"426 41 OFFCURVE",
"376 66 OFFCURVE",
"362 143 OFFCURVE",
"362 221 QCURVE SMOOTH",
"362 692 LINE",
"866 692 LINE",
"866 743 LINE",
"362 743 LINE",
"362 1411 LINE",
"847 1411 LINE SMOOTH",
"927 1411 OFFCURVE",
"966 1354 OFFCURVE",
"970 1270 QCURVE SMOOTH",
"976 1128 LINE",
"1017 1128 LINE",
"1007 1462 LINE",
"102 1462 LINE",
"102 1421 LINE",
"190 1421 LINE SMOOTH",
"241 1421 OFFCURVE",
"290 1397 OFFCURVE",
"305 1319 OFFCURVE",
"305 1241 QCURVE SMOOTH",
"305 221 LINE SMOOTH",
"305 143 OFFCURVE",
"290 66 OFFCURVE",
"241 41 OFFCURVE",
"190 41 QCURVE SMOOTH",
"102 41 LINE",
"102 0 LINE",
"102 0 LINE"
);
}
);
width = 1126;
},
{
layerId = "28531FA7-6DEB-4C71-966B-2D248D7FC379";
paths = (
{
closed = 1;
nodes = (
"88 0 LINE",
"672 0 LINE",
"672 66 LINE",
"569 66 LINE SMOOTH",
"498 66 OFFCURVE",
"426 121 OFFCURVE",
"426 227 QCURVE SMOOTH",
"426 678 LINE",
"924 678 LINE",
"924 758 LINE",
"426 758 LINE",
"426 1382 LINE",
"829 1382 LINE SMOOTH",
"917 1382 OFFCURVE",
"983 1303 OFFCURVE",
"989 1227 QCURVE SMOOTH",
"997 1114 LINE",
"1073 1114 LINE",
"1063 1462 LINE",
"88 1462 LINE",
"88 1397 LINE",
"143 1397 LINE SMOOTH",
"215 1397 OFFCURVE",
"287 1341 OFFCURVE",
"287 1239 QCURVE SMOOTH",
"287 223 LINE SMOOTH",
"287 119 OFFCURVE",
"215 66 OFFCURVE",
"143 66 QCURVE SMOOTH",
"88 66 LINE",
"88 0 LINE",
"88 0 LINE"
);
}
);
width = 1171;
},
{
layerId = "82773DB8-11CF-4E3D-BC1E-69725B5EFD97";
paths = (
{
closed = 1;
nodes = (
"479 1360 LINE",
"479 1360 LINE",
"479 1360 LINE",
"479 1360 LINE",
"815 1360 LINE SMOOTH",
"863 1360 OFFCURVE",
"931 1333 OFFCURVE",
"976 1288 OFFCURVE",
"1000 1227 OFFCURVE",
"1004 1192 QCURVE SMOOTH",
"1014 1104 LINE",
"1120 1104 LINE",
"1110 1462 LINE",
"78 1462 LINE",
"78 1376 LINE",
"104 1376 LINE SMOOTH",
"138 1376 OFFCURVE",
"199 1367 OFFCURVE",
"245 1337 OFFCURVE",
"272 1282 OFFCURVE",
"272 1237 QCURVE SMOOTH",
"272 223 LINE SMOOTH",
"272 178 OFFCURVE",
"245 123 OFFCURVE",
"199 95 OFFCURVE",
"138 86 OFFCURVE",
"104 86 QCURVE SMOOTH",
"78 86 LINE",
"78 0 LINE",
"715 0 LINE",
"715 86 LINE",
"647 86 LINE SMOOTH",
"613 86 OFFCURVE",
"551 96 OFFCURVE",
"506 127 OFFCURVE",
"479 185 OFFCURVE",
"479 233 QCURVE SMOOTH",
"479 668 LINE",
"973 668 LINE",
"973 768 LINE",
"479 768 LINE",
"479 1360 LINE",
"479 1360 LINE"
);
}
);
userData = {
assembly = "MPPEM[ ]	/* MeasurePixelPerEm */\012PUSHB[ ]	/* 1 value pushed */\01210 \012LT[ ]	/* LessThan */\012IF[ ]	/* If */\012NPUSHB[ ]	/* 38 values pushed */\0120 7 5 0 5 7 114 0 0 0 1 2 0 1 103 8 1 5 5 6 95 0 6 6 50 77 4 1 2 2 3 95 0 3 3 51 3 78 \012ELSE[ ]	/* Else */\012MPPEM[ ]	/* MeasurePixelPerEm */\012PUSHB[ ]	/* 1 value pushed */\01230 \012LT[ ]	/* LessThan */\012IF[ ]	/* If */\012NPUSHB[ ]	/* 39 values pushed */\0120 7 5 0 5 7 0 128 0 0 0 1 2 0 1 103 8 1 5 5 6 95 0 6 6 50 77 4 1 2 2 3 95 0 3 3 51 3 78 \012ELSE[ ]	/* Else */\012NPUSHB[ ]	/* 45 values pushed */\0120 5 6 8 8 5 114 0 7 8 0 8 7 0 128 0 0 0 1 2 0 1 103 0 8 8 6 96 0 6 6 50 77 4 1 2 2 3 95 0 3 3 51 3 78 \012EIF[ ]	/* EndIf */\012EIF[ ]	/* EndIf */\012NPUSHB[ ]	/* 12 values pushed */\01237 17 17 41 33 17 37 17 17 9 9 31 \012CALL[ ]	/* CallFunction */";
};
width = 1208;
},
{
layerId = "05F2EFEE-D68A-47EA-B1CB-1F079D4BE6D1";
paths = (
{
closed = 1;
nodes = (
"57 0 LINE",
"805 0 LINE",
"805 109 LINE",
"678 109 LINE SMOOTH",
"632 109 OFFCURVE",
"571 154 OFFCURVE",
"571 242 QCURVE SMOOTH",
"571 657 LINE",
"1056 657 LINE",
"1056 778 LINE",
"571 778 LINE",
"571 1337 LINE",
"897 1337 LINE SMOOTH",
"960 1337 OFFCURVE",
"1040 1266 OFFCURVE",
"1048 1184 QCURVE SMOOTH",
"1058 1085 LINE",
"1202 1085 LINE",
"1192 1462 LINE",
"57 1462 LINE",
"57 1354 LINE",
"143 1354 LINE SMOOTH",
"186 1354 OFFCURVE",
"247 1311 OFFCURVE",
"247 1229 QCURVE SMOOTH",
"247 231 LINE SMOOTH",
"247 150 OFFCURVE",
"186 109 OFFCURVE",
"143 109 QCURVE SMOOTH",
"57 109 LINE",
"57 0 LINE",
"57 0 LINE"
);
}
);
width = 1271;
},
{
layerId = "482B5BA1-F14A-4795-881D-282E6E2A03D9";
paths = (
{
closed = 1;
nodes = (
"43 0 LINE",
"872 0 LINE",
"872 125 LINE",
"750 125 LINE SMOOTH",
"688 125 OFFCURVE",
"639 180 OFFCURVE",
"639 225 QCURVE SMOOTH",
"639 649 LINE",
"1120 649 LINE",
"1120 786 LINE",
"639 786 LINE",
"639 1321 LINE",
"958 1321 LINE SMOOTH",
"997 1321 OFFCURVE",
"1073 1268 OFFCURVE",
"1083 1178 QCURVE SMOOTH",
"1094 1071 LINE",
"1264 1071 LINE",
"1253 1462 LINE",
"43 1462 LINE",
"43 1337 LINE",
"145 1337 LINE SMOOTH",
"180 1337 OFFCURVE",
"231 1288 OFFCURVE",
"231 1235 QCURVE SMOOTH",
"231 223 LINE SMOOTH",
"231 172 OFFCURVE",
"180 125 OFFCURVE",
"115 125 QCURVE SMOOTH",
"43 125 LINE",
"43 0 LINE",
"43 0 LINE"
);
}
);
width = 1318;
}
);
note = F;
unicode = 0046;
},
{
glyphname = G;
lastChange = "2020-08-17 13:41:11 +0000";
layers = (
{
layerId = "FFF31276-834F-49C0-8230-C5CBB7819B89";
paths = (
{
closed = 1;
nodes = (
"763 -20 LINE",
"886 -20 OFFCURVE",
"1068 14 OFFCURVE",
"1150 53 QCURVE",
"1150 438 LINE SMOOTH",
"1150 516 OFFCURVE",
"1164 594 OFFCURVE",
"1214 618 OFFCURVE",
"1265 618 QCURVE SMOOTH",
"1304 618 LINE",
"1304 659 LINE",
"911 659 LINE",
"911 618 LINE",
"978 618 LINE SMOOTH",
"1029 618 OFFCURVE",
"1078 594 OFFCURVE",
"1093 516 OFFCURVE",
"1093 438 QCURVE SMOOTH",
"1093 84 LINE",
"1040 57 OFFCURVE",
"870 31 OFFCURVE",
"784 31 QCURVE SMOOTH",
"571 31 OFFCURVE",
"302 205 OFFCURVE",
"177 520 OFFCURVE",
"177 733 QCURVE SMOOTH",
"177 954 OFFCURVE",
"323 1266 OFFCURVE",
"587 1432 OFFCURVE",
"767 1432 QCURVE SMOOTH",
"902 1432 OFFCURVE",
"1052 1370 OFFCURVE",
"1111 1249 OFFCURVE",
"1111 1159 QCURVE",
"1154 1159 OFFCURVE",
"1154 1245 QCURVE SMOOTH",
"1154 1307 OFFCURVE",
"1083 1415 OFFCURVE",
"917 1483 OFFCURVE",
"775 1483 QCURVE SMOOTH",
"575 1483 OFFCURVE",
"280 1305 OFFCURVE",
"120 969 OFFCURVE",
"120 733 QCURVE SMOOTH",
"120 506 OFFCURVE",
"261 168 OFFCURVE",
"546 -20 OFFCURVE",
"763 -20 QCURVE",
"763 -20 LINE"
);
}
);
width = 1318;
},
{
layerId = "28531FA7-6DEB-4C71-966B-2D248D7FC379";
paths = (
{
closed = 1;
nodes = (
"794 -20 LINE",
"923 -20 OFFCURVE",
"1124 20 OFFCURVE",
"1218 63 QCURVE",
"1218 440 LINE SMOOTH",
"1218 547 OFFCURVE",
"1279 602 OFFCURVE",
"1347 602 QCURVE SMOOTH",
"1369 602 LINE",
"1369 668 LINE",
"900 668 LINE",
"900 602 LINE",
"935 602 LINE SMOOTH",
"1007 602 OFFCURVE",
"1079 547 OFFCURVE",
"1079 444 QCURVE SMOOTH",
"1079 104 LINE",
"1031 86 OFFCURVE",
"892 66 OFFCURVE",
"823 66 QCURVE SMOOTH",
"624 66 OFFCURVE",
"380 225 OFFCURVE",
"268 524 OFFCURVE",
"268 733 QCURVE SMOOTH",
"268 1051 OFFCURVE",
"534 1401 OFFCURVE",
"798 1401 QCURVE SMOOTH",
"915 1401 OFFCURVE",
"1048 1329 OFFCURVE",
"1103 1208 OFFCURVE",
"1103 1133 QCURVE",
"1154 1133 OFFCURVE",
"1226 1194 OFFCURVE",
"1226 1249 QCURVE SMOOTH",
"1226 1343 OFFCURVE",
"1027 1483 OFFCURVE",
"806 1483 QCURVE SMOOTH",
"587 1483 OFFCURVE",
"280 1298 OFFCURVE",
"118 961 OFFCURVE",
"118 733 QCURVE SMOOTH",
"118 506 OFFCURVE",
"265 168 OFFCURVE",
"564 -20 OFFCURVE",
"794 -20 QCURVE",
"794 -20 LINE"
);
}
);
width = 1396;
},
{
layerId = "82773DB8-11CF-4E3D-BC1E-69725B5EFD97";
paths = (
{
closed = 1;
nodes = (
"821 -20 LINE",
"821 -20 LINE",
"821 -20 LINE",
"821 -20 LINE",
"953 -20 OFFCURVE",
"1171 26 OFFCURVE",
"1274 74 QCURVE",
"1274 442 LINE SMOOTH",
"1274 490 OFFCURVE",
"1296 549 OFFCURVE",
"1334 580 OFFCURVE",
"1386 590 OFFCURVE",
"1415 590 QCURVE SMOOTH",
"1423 590 LINE",
"1423 676 LINE",
"891 676 LINE",
"891 590 LINE",
"899 590 LINE SMOOTH",
"933 590 OFFCURVE",
"994 580 OFFCURVE",
"1040 551 OFFCURVE",
"1067 496 OFFCURVE",
"1067 451 QCURVE SMOOTH",
"1067 121 LINE",
"1024 108 OFFCURVE",
"913 96 OFFCURVE",
"854 96 QCURVE SMOOTH",
"714 96 OFFCURVE",
"520 180 OFFCURVE",
"398 342 OFFCURVE",
"344 580 OFFCURVE",
"344 733 QCURVE SMOOTH",
"344 887 OFFCURVE",
"396 1126 OFFCURVE",
"512 1289 OFFCURVE",
"695 1374 OFFCURVE",
"825 1374 QCURVE SMOOTH",
"900 1374 OFFCURVE",
"1004 1327 OFFCURVE",
"1068 1252 OFFCURVE",
"1096 1158 OFFCURVE",
"1096 1110 QCURVE",
"1136 1110 OFFCURVE",
"1205 1130 OFFCURVE",
"1256 1167 OFFCURVE",
"1286 1220 OFFCURVE",
"1286 1253 QCURVE SMOOTH",
"1286 1302 OFFCURVE",
"1230 1386 OFFCURVE",
"1117 1448 OFFCURVE",
"948 1483 OFFCURVE",
"834 1483 QCURVE SMOOTH",
"657 1483 OFFCURVE",
"389 1373 OFFCURVE",
"208 1175 OFFCURVE",
"117 899 OFFCURVE",
"117 733 QCURVE SMOOTH",
"117 564 OFFCURVE",
"203 286 OFFCURVE",
"378 88 OFFCURVE",
"643 -20 OFFCURVE",
"821 -20 QCURVE",
"821 -20 LINE"
);
}
);
userData = {
assembly = "NPUSHB[ ]	/* 72 values pushed */\01238 1 4 5 55 1 0 4 2 76 0 2 3 6 3 2 6 128 0 6 7 1 5 4 6 5 105 0 3 3 1 97 0 1 1 56 77 0 4 4 0 97 8 1 0 0 57 0 78 1 0 50 48 47 46 44 43 36 34 26 24 20 19 11 9 0 61 1 57 9 9 22 \012CALL[ ]	/* CallFunction */";
};
width = 1462;
},
{
layerId = "05F2EFEE-D68A-47EA-B1CB-1F079D4BE6D1";
paths = (
{
closed = 1;
nodes = (
"866 -20 LINE",
"1005 -20 OFFCURVE",
"1249 35 OFFCURVE",
"1369 90 QCURVE",
"1369 426 LINE SMOOTH",
"1369 514 OFFCURVE",
"1427 580 OFFCURVE",
"1490 580 QCURVE SMOOTH",
"1517 580 LINE",
"1517 688 LINE",
"874 688 LINE",
"874 580 LINE",
"900 580 LINE SMOOTH",
"972 580 OFFCURVE",
"1046 516 OFFCURVE",
"1046 434 QCURVE SMOOTH",
"1046 133 LINE",
"1011 125 OFFCURVE",
"935 119 OFFCURVE",
"896 119 QCURVE SMOOTH",
"655 119 OFFCURVE",
"456 436 OFFCURVE",
"456 733 QCURVE SMOOTH",
"456 1030 OFFCURVE",
"647 1352 OFFCURVE",
"870 1352 QCURVE SMOOTH",
"1001 1352 OFFCURVE",
"1124 1196 OFFCURVE",
"1124 1071 QCURVE",
"1253 1071 OFFCURVE",
"1388 1174 OFFCURVE",
"1388 1245 QCURVE SMOOTH",
"1388 1346 OFFCURVE",
"1130 1483 OFFCURVE",
"876 1483 QCURVE SMOOTH",
"626 1483 OFFCURVE",
"284 1292 OFFCURVE",
"112 954 OFFCURVE",
"112 733 QCURVE SMOOTH",
"112 506 OFFCURVE",
"278 168 OFFCURVE",
"612 -20 OFFCURVE",
"866 -20 QCURVE",
"866 -20 LINE"
);
}
);
width = 1574;
},
{
layerId = "482B5BA1-F14A-4795-881D-282E6E2A03D9";
paths = (
{
closed = 1;
nodes = (
"901 -20 LINE",
"1044 -20 OFFCURVE",
"1310 41 OFFCURVE",
"1441 102 QCURVE",
"1441 414 LINE SMOOTH",
"1441 496 OFFCURVE",
"1482 571 OFFCURVE",
"1548 571 QCURVE SMOOTH",
"1566 571 LINE",
"1566 696 LINE",
"864 696 LINE",
"864 571 LINE",
"903 571 LINE SMOOTH",
"978 571 OFFCURVE",
"1032 498 OFFCURVE",
"1032 422 QCURVE SMOOTH",
"1032 141 LINE",
"974 135 OFFCURVE",
"929 135 QCURVE SMOOTH",
"716 135 OFFCURVE",
"540 444 OFFCURVE",
"540 733 QCURVE SMOOTH",
"540 1022 OFFCURVE",
"706 1335 OFFCURVE",
"905 1335 QCURVE SMOOTH",
"1019 1335 OFFCURVE",
"1146 1188 OFFCURVE",
"1146 1042 QCURVE",
"1310 1042 OFFCURVE",
"1464 1163 OFFCURVE",
"1464 1239 QCURVE SMOOTH",
"1464 1339 OFFCURVE",
"1183 1483 OFFCURVE",
"909 1483 QCURVE SMOOTH",
"647 1483 OFFCURVE",
"290 1292 OFFCURVE",
"110 954 OFFCURVE",
"110 733 QCURVE SMOOTH",
"110 506 OFFCURVE",
"284 168 OFFCURVE",
"634 -20 OFFCURVE",
"901 -20 QCURVE",
"901 -20 LINE"
);
}
);
width = 1658;
}
);
note = G;
unicode = 0047;
},
{
glyphname = H;
lastChange = "2020-08-17 13:41:11 +0000";
layers = (
{
layerId = "FFF31276-834F-49C0-8230-C5CBB7819B89";
paths = (
{
closed = 1;
nodes = (
"102 0 LINE",
"569 0 LINE",
"569 41 LINE",
"477 41 LINE SMOOTH",
"426 41 OFFCURVE",
"376 66 OFFCURVE",
"362 143 OFFCURVE",
"362 221 QCURVE SMOOTH",
"362 739 LINE",
"1196 739 LINE",
"1196 221 LINE SMOOTH",
"1196 143 OFFCURVE",
"1181 66 OFFCURVE",
"1132 41 OFFCURVE",
"1081 41 QCURVE SMOOTH",
"989 41 LINE",
"989 0 LINE",
"1456 0 LINE",
"1456 41 LINE",
"1368 41 LINE SMOOTH",
"1316 41 OFFCURVE",
"1267 66 OFFCURVE",
"1253 143 OFFCURVE",
"1253 221 QCURVE SMOOTH",
"1253 1241 LINE SMOOTH",
"1253 1319 OFFCURVE",
"1267 1397 OFFCURVE",
"1316 1421 OFFCURVE",
"1368 1421 QCURVE SMOOTH",
"1456 1421 LINE",
"1456 1462 LINE",
"989 1462 LINE",
"989 1421 LINE",
"1081 1421 LINE SMOOTH",
"1132 1421 OFFCURVE",
"1181 1397 OFFCURVE",
"1196 1319 OFFCURVE",
"1196 1241 QCURVE SMOOTH",
"1196 791 LINE",
"362 791 LINE",
"362 1241 LINE SMOOTH",
"362 1319 OFFCURVE",
"376 1397 OFFCURVE",
"426 1421 OFFCURVE",
"477 1421 QCURVE SMOOTH",
"569 1421 LINE",
"569 1462 LINE",
"102 1462 LINE",
"102 1421 LINE",
"190 1421 LINE SMOOTH",
"241 1421 OFFCURVE",
"290 1397 OFFCURVE",
"305 1319 OFFCURVE",
"305 1241 QCURVE SMOOTH",
"305 221 LINE SMOOTH",
"305 143 OFFCURVE",
"290 66 OFFCURVE",
"241 41 OFFCURVE",
"190 41 QCURVE SMOOTH",
"102 41 LINE",
"102 0 LINE",
"102 0 LINE"
);
}
);
width = 1558;
},
{
layerId = "28531FA7-6DEB-4C71-966B-2D248D7FC379";
paths = (
{
closed = 1;
nodes = (
"88 0 LINE",
"627 0 LINE",
"627 66 LINE",
"569 66 LINE SMOOTH",
"498 66 OFFCURVE",
"426 121 OFFCURVE",
"426 227 QCURVE SMOOTH",
"426 725 LINE",
"1167 725 LINE",
"1167 227 LINE SMOOTH",
"1167 121 OFFCURVE",
"1096 66 OFFCURVE",
"1024 66 QCURVE SMOOTH",
"969 66 LINE",
"969 0 LINE",
"1505 0 LINE",
"1505 66 LINE",
"1450 66 LINE SMOOTH",
"1380 66 OFFCURVE",
"1307 119 OFFCURVE",
"1307 223 QCURVE SMOOTH",
"1307 1235 LINE SMOOTH",
"1307 1341 OFFCURVE",
"1378 1397 OFFCURVE",
"1450 1397 QCURVE SMOOTH",
"1505 1397 LINE",
"1505 1462 LINE",
"969 1462 LINE",
"969 1397 LINE",
"1024 1397 LINE SMOOTH",
"1096 1397 OFFCURVE",
"1167 1341 OFFCURVE",
"1167 1235 QCURVE SMOOTH",
"1167 805 LINE",
"426 805 LINE",
"426 1235 LINE SMOOTH",
"426 1341 OFFCURVE",
"498 1397 OFFCURVE",
"569 1397 QCURVE SMOOTH",
"627 1397 LINE",
"627 1462 LINE",
"88 1462 LINE",
"88 1397 LINE",
"143 1397 LINE SMOOTH",
"215 1397 OFFCURVE",
"287 1341 OFFCURVE",
"287 1239 QCURVE SMOOTH",
"287 227 LINE SMOOTH",
"287 121 OFFCURVE",
"215 66 OFFCURVE",
"143 66 QCURVE SMOOTH",
"88 66 LINE",
"88 0 LINE",
"88 0 LINE"
);
}
);
width = 1593;
},
{
layerId = "82773DB8-11CF-4E3D-BC1E-69725B5EFD97";
paths = (
{
closed = 1;
nodes = (
"950 0 LINE",
"950 0 LINE",
"950 0 LINE",
"950 0 LINE",
"1546 0 LINE",
"1546 86 LINE",
"1520 86 LINE SMOOTH",
"1486 86 OFFCURVE",
"1425 95 OFFCURVE",
"1379 123 OFFCURVE",
"1352 178 OFFCURVE",
"1352 223 QCURVE SMOOTH",
"1352 1229 LINE SMOOTH",
"1352 1277 OFFCURVE",
"1378 1335 OFFCURVE",
"1424 1366 OFFCURVE",
"1485 1376 OFFCURVE",
"1520 1376 QCURVE SMOOTH",
"1546 1376 LINE",
"1546 1462 LINE",
"950 1462 LINE",
"950 1376 LINE",
"977 1376 LINE SMOOTH",
"1012 1376 OFFCURVE",
"1073 1366 OFFCURVE",
"1118 1335 OFFCURVE",
"1145 1277 OFFCURVE",
"1145 1229 QCURVE SMOOTH",
"1145 815 LINE",
"479 815 LINE",
"479 1229 LINE SMOOTH",
"479 1277 OFFCURVE",
"506 1335 OFFCURVE",
"551 1366 OFFCURVE",
"613 1376 OFFCURVE",
"647 1376 QCURVE SMOOTH",
"674 1376 LINE",
"674 1462 LINE",
"78 1462 LINE",
"78 1376 LINE",
"104 1376 LINE SMOOTH",
"138 1376 OFFCURVE",
"199 1367 OFFCURVE",
"245 1337 OFFCURVE",
"272 1282 OFFCURVE",
"272 1237 QCURVE SMOOTH",
"272 233 LINE SMOOTH",
"272 185 OFFCURVE",
"246 127 OFFCURVE",
"200 96 OFFCURVE",
"139 86 OFFCURVE",
"104 86 QCURVE SMOOTH",
"78 86 LINE",
"78 0 LINE",
"674 0 LINE",
"674 86 LINE",
"647 86 LINE SMOOTH",
"613 86 OFFCURVE",
"551 96 OFFCURVE",
"506 127 OFFCURVE",
"479 185 OFFCURVE",
"479 233 QCURVE SMOOTH",
"479 713 LINE",
"1145 713 LINE",
"1145 233 LINE SMOOTH",
"1145 185 OFFCURVE",
"1118 127 OFFCURVE",
"1073 96 OFFCURVE",
"1012 86 OFFCURVE",
"977 86 QCURVE SMOOTH",
"950 86 LINE",
"950 0 LINE",
"950 0 LINE"
);
}
);
userData = {
assembly = "NPUSHB[ ]	/* 59 values pushed */\0120 8 0 1 0 8 1 103 11 9 7 3 5 5 6 95 10 1 6 6 50 77 12 4 2 3 0 0 3 95 13 1 3 3 51 3 78 68 67 66 64 55 53 52 51 50 48 21 33 17 41 33 17 37 21 33 14 9 31 \012CALL[ ]	/* CallFunction */";
};
width = 1624;
},
{
layerId = "05F2EFEE-D68A-47EA-B1CB-1F079D4BE6D1";
paths = (
{
closed = 1;
nodes = (
"57 0 LINE",
"764 0 LINE",
"764 109 LINE",
"675 109 LINE SMOOTH",
"632 109 OFFCURVE",
"571 154 OFFCURVE",
"571 242 QCURVE SMOOTH",
"571 700 LINE",
"1106 700 LINE",
"1106 242 LINE SMOOTH",
"1106 154 OFFCURVE",
"1044 109 OFFCURVE",
"1001 109 QCURVE SMOOTH",
"913 109 LINE",
"913 0 LINE",
"1620 0 LINE",
"1620 109 LINE",
"1534 109 LINE SMOOTH",
"1493 109 OFFCURVE",
"1429 150 OFFCURVE",
"1429 231 QCURVE SMOOTH",
"1429 1221 LINE SMOOTH",
"1429 1309 OFFCURVE",
"1491 1354 OFFCURVE",
"1534 1354 QCURVE SMOOTH",
"1620 1354 LINE",
"1620 1462 LINE",
"913 1462 LINE",
"913 1354 LINE",
"1001 1354 LINE SMOOTH",
"1044 1354 OFFCURVE",
"1106 1309 OFFCURVE",
"1106 1221 QCURVE SMOOTH",
"1106 825 LINE",
"571 825 LINE",
"571 1221 LINE SMOOTH",
"571 1309 OFFCURVE",
"632 1354 OFFCURVE",
"675 1354 QCURVE SMOOTH",
"764 1354 LINE",
"764 1462 LINE",
"57 1462 LINE",
"57 1354 LINE",
"143 1354 LINE SMOOTH",
"184 1354 OFFCURVE",
"247 1311 OFFCURVE",
"247 1229 QCURVE SMOOTH",
"247 242 LINE SMOOTH",
"247 154 OFFCURVE",
"186 109 OFFCURVE",
"143 109 QCURVE SMOOTH",
"57 109 LINE",
"57 0 LINE",
"57 0 LINE"
);
}
);
width = 1677;
},
{
layerId = "482B5BA1-F14A-4795-881D-282E6E2A03D9";
paths = (
{
closed = 1;
nodes = (
"43 0 LINE",
"791 0 LINE",
"791 125 LINE",
"715 125 LINE SMOOTH",
"678 125 OFFCURVE",
"641 186 OFFCURVE",
"641 227 QCURVE SMOOTH",
"641 692 LINE",
"1077 692 LINE",
"1077 240 LINE SMOOTH",
"1077 188 OFFCURVE",
"1036 125 OFFCURVE",
"993 125 QCURVE SMOOTH",
"928 125 LINE",
"928 0 LINE",
"1675 0 LINE",
"1675 125 LINE",
"1567 125 LINE SMOOTH",
"1532 125 OFFCURVE",
"1487 184 OFFCURVE",
"1487 231 QCURVE SMOOTH",
"1487 1233 LINE SMOOTH",
"1487 1337 OFFCURVE",
"1567 1337 QCURVE SMOOTH",
"1675 1337 LINE",
"1675 1462 LINE",
"928 1462 LINE",
"928 1337 LINE",
"991 1337 LINE SMOOTH",
"1077 1337 OFFCURVE",
"1077 1233 QCURVE SMOOTH",
"1077 834 LINE",
"641 834 LINE",
"641 1239 LINE SMOOTH",
"641 1337 OFFCURVE",
"715 1337 QCURVE SMOOTH",
"791 1337 LINE",
"791 1462 LINE",
"43 1462 LINE",
"43 1337 LINE",
"133 1337 LINE SMOOTH",
"174 1337 OFFCURVE",
"231 1284 OFFCURVE",
"231 1229 QCURVE SMOOTH",
"231 227 LINE SMOOTH",
"231 186 OFFCURVE",
"186 125 OFFCURVE",
"152 125 QCURVE SMOOTH",
"43 125 LINE",
"43 0 LINE",
"43 0 LINE"
);
}
);
width = 1716;
}
);
note = H;
unicode = 0048;
},
{
glyphname = I;
lastChange = "2020-08-17 13:41:11 +0000";
layers = (
{
layerId = "FFF31276-834F-49C0-8230-C5CBB7819B89";
paths = (
{
closed = 1;
nodes = (
"102 0 LINE",
"559 0 LINE",
"559 41 LINE",
"477 41 LINE SMOOTH",
"426 41 OFFCURVE",
"376 66 OFFCURVE",
"362 143 OFFCURVE",
"362 221 QCURVE SMOOTH",
"362 1241 LINE SMOOTH",
"362 1319 OFFCURVE",
"376 1397 OFFCURVE",
"426 1421 OFFCURVE",
"477 1421 QCURVE SMOOTH",
"559 1421 LINE",
"559 1462 LINE",
"102 1462 LINE",
"102 1421 LINE",
"190 1421 LINE SMOOTH",
"241 1421 OFFCURVE",
"290 1397 OFFCURVE",
"305 1319 OFFCURVE",
"305 1241 QCURVE SMOOTH",
"305 221 LINE SMOOTH",
"305 143 OFFCURVE",
"290 66 OFFCURVE",
"241 41 OFFCURVE",
"190 41 QCURVE SMOOTH",
"102 41 LINE",
"102 0 LINE",
"102 0 LINE"
);
}
);
width = 665;
},
{
layerId = "28531FA7-6DEB-4C71-966B-2D248D7FC379";
paths = (
{
closed = 1;
nodes = (
"88 0 LINE",
"623 0 LINE",
"623 66 LINE",
"569 66 LINE SMOOTH",
"498 66 OFFCURVE",
"426 121 OFFCURVE",
"426 227 QCURVE SMOOTH",
"426 1235 LINE SMOOTH",
"426 1341 OFFCURVE",
"498 1397 OFFCURVE",
"569 1397 QCURVE SMOOTH",
"623 1397 LINE",
"623 1462 LINE",
"88 1462 LINE",
"88 1397 LINE",
"143 1397 LINE SMOOTH",
"215 1397 OFFCURVE",
"287 1341 OFFCURVE",
"287 1235 QCURVE SMOOTH",
"287 227 LINE SMOOTH",
"287 121 OFFCURVE",
"215 66 OFFCURVE",
"143 66 QCURVE SMOOTH",
"88 66 LINE",
"88 0 LINE",
"88 0 LINE"
);
}
);
width = 712;
},
{
layerId = "82773DB8-11CF-4E3D-BC1E-69725B5EFD97";
paths = (
{
closed = 1;
nodes = (
"78 0 LINE",
"78 0 LINE",
"78 0 LINE",
"78 0 LINE",
"674 0 LINE",
"674 86 LINE",
"647 86 LINE SMOOTH",
"613 86 OFFCURVE",
"551 96 OFFCURVE",
"506 127 OFFCURVE",
"479 185 OFFCURVE",
"479 233 QCURVE SMOOTH",
"479 1229 LINE SMOOTH",
"479 1277 OFFCURVE",
"506 1335 OFFCURVE",
"551 1366 OFFCURVE",
"613 1376 OFFCURVE",
"647 1376 QCURVE SMOOTH",
"674 1376 LINE",
"674 1462 LINE",
"78 1462 LINE",
"78 1376 LINE",
"104 1376 LINE SMOOTH",
"139 1376 OFFCURVE",
"200 1366 OFFCURVE",
"246 1335 OFFCURVE",
"272 1277 OFFCURVE",
"272 1229 QCURVE SMOOTH",
"272 233 LINE SMOOTH",
"272 185 OFFCURVE",
"246 127 OFFCURVE",
"200 96 OFFCURVE",
"139 86 OFFCURVE",
"104 86 QCURVE SMOOTH",
"78 86 LINE",
"78 0 LINE",
"78 0 LINE"
);
}
);
userData = {
assembly = "NPUSHB[ ]	/* 32 values pushed */\0123 1 1 1 2 95 0 2 2 50 77 4 1 0 0 5 95 0 5 5 51 5 78 17 41 33 17 41 33 6 9 28 \012CALL[ ]	/* CallFunction */";
};
width = 752;
},
{
layerId = "05F2EFEE-D68A-47EA-B1CB-1F079D4BE6D1";
paths = (
{
closed = 1;
nodes = (
"57 0 LINE",
"764 0 LINE",
"764 109 LINE",
"678 109 LINE SMOOTH",
"632 109 OFFCURVE",
"573 154 OFFCURVE",
"573 242 QCURVE SMOOTH",
"573 1221 LINE SMOOTH",
"573 1309 OFFCURVE",
"632 1354 OFFCURVE",
"678 1354 QCURVE SMOOTH",
"764 1354 LINE",
"764 1462 LINE",
"57 1462 LINE",
"57 1354 LINE",
"143 1354 LINE SMOOTH",
"188 1354 OFFCURVE",
"247 1309 OFFCURVE",
"247 1221 QCURVE SMOOTH",
"247 242 LINE SMOOTH",
"247 154 OFFCURVE",
"188 109 OFFCURVE",
"143 109 QCURVE SMOOTH",
"57 109 LINE",
"57 0 LINE",
"57 0 LINE"
);
}
);
width = 821;
},
{
layerId = "482B5BA1-F14A-4795-881D-282E6E2A03D9";
paths = (
{
closed = 1;
nodes = (
"43 0 LINE",
"831 0 LINE",
"831 125 LINE",
"719 125 LINE SMOOTH",
"688 125 OFFCURVE",
"641 180 OFFCURVE",
"641 225 QCURVE SMOOTH",
"641 1227 LINE SMOOTH",
"641 1337 OFFCURVE",
"719 1337 QCURVE SMOOTH",
"831 1337 LINE",
"831 1462 LINE",
"43 1462 LINE",
"43 1337 LINE",
"152 1337 LINE SMOOTH",
"180 1337 OFFCURVE",
"231 1284 OFFCURVE",
"231 1229 QCURVE SMOOTH",
"231 221 LINE SMOOTH",
"231 176 OFFCURVE",
"180 125 OFFCURVE",
"152 125 QCURVE SMOOTH",
"43 125 LINE",
"43 0 LINE",
"43 0 LINE"
);
}
);
width = 872;
}
);
note = I;
unicode = 0049;
},
